/* XPM */
static char *result[] = {
/* columns rows colors chars-per-pixel */
"64 64 11 1 ",
"  c #1A120D",
". c gray10",
"X c #291E16",
"o c #3A291D",
"O c #282828",
"+ c #343434",
"@ c #493324",
"# c #523C2D",
"$ c #5C4436",
"% c gray26",
"& c gray32",
/* pixels */
"                                                                ",
"                                                                ",
"  $$####$$$$$$$$####$$######$$$$$$####$$$$$$$$$$####$$##$$##$$  ",
"  $$####$$$$$$$$####$$######$$$$$$####$$$$$$$$$$####$$##$$##$$  ",
"  ##oooo##ooXXoo@@@@$$##oooo##@@ooXX##oo##ooXXoo@@@@$$##oo@@$$  ",
"  ##oooo##ooXXoo@@@@$$##oooo##@@ooXX##oo##ooXXoo@@@@$$##oo@@$$  ",
"  ooXXooXXXXooXXooXXooooooXXooXXXXooooooXXXXooXXooXXooooXXXXoo  ",
"  ooXXooXXXXooXXooXXooooooXXooXXXXooooooXXXXooXXooXXooooXXXXoo  ",
"                                                                ",
"                                                                ",
"..++..&&++++..&&&&&&..OO++OOOO..&&%%..++++++..&&&&&&..OO++..OO..",
"..++..&&++++..&&&&&&..OO++OOOO..&&%%..++++++..&&&&&&..OO++..OO..",
"..OO..%%++....%%%%++&&..OO....&&%%++%%..++....%%%%++&&....&&....",
"..OO..%%++....%%%%++&&..OO....&&%%++%%..++....%%%%++&&....&&....",
"....%%++....%%....++%%....&&&&++..++OO......%%....++%%..OO..&&..",
"....%%++....%%....++%%....&&&&++..++OO......%%....++%%..OO..&&..",
"                                                                ",
"                                                                ",
"  ####$$##$$$$$$##$$$$##$$####$$$$$$######$$$$$$##$$$$##$$$$$$  ",
"  ####$$##$$$$$$##$$$$##$$####$$$$$$######$$$$$$##$$$$##$$$$$$  ",
"  XX##oooo@@@@@@@@oo##@@oo##XXoo@@##oooooo@@@@@@@@oo##@@@@@@##  ",
"  XX##oooo@@@@@@@@oo##@@oo##XXoo@@##oooooo@@@@@@@@oo##@@@@@@##  ",
"  ooooooXXooooXXXXooXXXXooooooXXXXooXXooXXooooXXXXooXXXXXXoooo  ",
"  ooooooXXooooXXXXooXXXXooooooXXXXooXXooXXooooXXXXooXXXXXXoooo  ",
"                                                                ",
"                                                                ",
"..++..&&++++..&&&&&&..OO++....&&&&&&..OO++....&&&&&&..OO..&&....",
"..++..&&++++..&&&&&&..OO++....&&&&&&..OO++....&&&&&&..OO..&&....",
"..OO..%%++....%%%%++&&....%%%%++++..&&....%%%%++++..&&..++%%....",
"..OO..%%++....%%%%++&&....%%%%++++..&&....%%%%++++..&&..++%%....",
"....%%++....%%....++%%..OO++++++%%..++..OO++++++%%..++......%%..",
"....%%++....%%....++%%..OO++++++%%..++..OO++++++%%..++......%%..",
"                                                                ",
"                                                                ",
"  ####$$##$$$$$$##$$$$##$$$$$$##$$$$$$$$$$$$$$##$$$$$$$$####$$  ",
"  ####$$##$$$$$$##$$$$##$$$$$$##$$$$$$$$$$$$$$##$$$$$$$$####$$  ",
"  XX##oooo@@@@@@@@oo##@@@@@@##ooooXXoo##@@@@##ooooXXoo##oooo##  ",
"  XX##oooo@@@@@@@@oo##@@@@@@##ooooXXoo##@@@@##ooooXXoo##oooo##  ",
"  ooooooXXooooXXXXooXXXXXXooooooXXooXXXXXXooooooXXooXXXXooXXoo  ",
"  ooooooXXooooXXXXooXXXXXXooooooXXooXXXXXXooooooXXooXXXXooXXoo  ",
"                                                                ",
"                                                                ",
"..&&..++++OOOO..&&%%..++++OOOO..&&%%..++++++..&&&&&&..OO++..OO..",
"..&&..++++OOOO..&&%%..++++OOOO..&&%%..++++++..&&&&&&..OO++..OO..",
"..++&&++OO....&&%%++%%..OO....&&%%++%%..++....%%%%++&&....&&....",
"..++&&++OO....&&%%++%%..OO....&&%%++%%..++....%%%%++&&....&&....",
"..%%++....&&&&++..++OO....&&&&++..++OO......%%....++%%..OO..&&..",
"..%%++....&&&&++..++OO....&&&&++..++OO......%%....++%%..OO..&&..",
"                                                                ",
"                                                                ",
"  $$$$##$$####$$$$$$####$$####$$$$$$######$$$$$$##$$$$##$$$$$$  ",
"  $$$$##$$####$$$$$$####$$####$$$$$$######$$$$$$##$$$$##$$$$$$  ",
"  @@@@oooo##XXoo@@##oooooo##XXoo@@##oooooo@@@@@@@@oo##@@@@@@##  ",
"  @@@@oooo##XXoo@@##oooooo##XXoo@@##oooooo@@@@@@@@oo##@@@@@@##  ",
"  ooooXXooooooXXXXooXXooooooooXXXXooXXooXXooooXXXXooXXXXXXoooo  ",
"  ooooXXooooooXXXXooXXooooooooXXXXooXXooXXooooXXXXooXXXXXXoooo  ",
"                                                                ",
"                                                                ",
"..OO++..OO..%%++&&....OOOO..%%++&&....OOOO%%..++&&..OO%%..%%++..",
"..OO++..OO..%%++&&....OOOO..%%++&&....OOOO%%..++&&..OO%%..%%++..",
"....OO%%..%%....++++&&....%%....++++&&......OO++++&&....OO++....",
"....OO%%..%%....++++&&....%%....++++&&......OO++++&&....OO++....",
"................................................................",
"................................................................"
};
