/* XPM */
static char *result[] = {
/* columns rows colors chars-per-pixel */
"64 64 38 1 ",
"  c #1A120D",
". c gray10",
"X c #1B1B1B",
"o c #1D1D1D",
"O c #291E16",
"+ c #3A291D",
"@ c #3A2A1E",
"# c #3A2A1F",
"$ c #202020",
"% c gray15",
"& c #282828",
"* c gray16",
"= c #2F2F2F",
"- c #3B2B20",
"; c #3B2B21",
": c #323232",
"> c gray20",
", c #343434",
"< c #373737",
"1 c gray23",
"2 c gray24",
"3 c #3E3E3E",
"4 c #3F3F3F",
"5 c #493324",
"6 c #4D382A",
"7 c #4D392B",
"8 c #4E392B",
"9 c #523C2D",
"0 c #5C4436",
"q c gray25",
"w c gray26",
"e c gray27",
"r c #4B4B4B",
"t c #4C4C4C",
"y c #4E4E4E",
"u c gray31",
"i c #505050",
"p c gray32",
/* pixels */
"                                                                ",
"                                                                ",
"9900999900000000999900999999000000999900000000009999009900990000",
"9900999900000000999900999999000000999900000000009999009900990000",
"++99++++99++OO++55550099++++9955++OO99++99++OO++55550099++5500OO",
"++99++++99++OO++55550099++++9955++OO99++99++OO++55550099++5500OO",
"++++OO++OOOO++OO++OO++++++OO++OOOO++++++OOOO++OO++OO++++OOOO++++",
"++++OO++OOOO++OO++OO++++++OO++OOOO++++++OOOO++OO++OO++++OOOO++++",
"                                                                ",
"                                                                ",
"pr,,..pp,,,,..pppppp..&&,,&&&&..ppww..,,,,,,..pppppp..&&,,..&&..",
"iee,..pp,,,,..pppppp..&&,,&&&&..ppww..,,,,,,..pppppp..&&,,..&&.2",
"..&&..ww,,....wwww,,pp..&&....ppww,,ww..,,....wwww,,pp....pp..pt",
"..&&..ww,,....wwww,,pp..&&....ppww,,ww..,,....wwww,,pp....pp..yu",
"w3..ww,,....ww....,,ww....pppp,,..,,&&......ww....,,ww..&&..pp..",
"4q..ww,,....ww....,,ww....pppp,,..,,&&......ww....,,ww..&&..pp..",
"                                                                ",
"                                                                ",
"9999990099000000990000990099990000009999990000009900009900000000",
"9999990099000000990000990099990000009999990000009900009900000000",
"55OO99++++55555555++9955++99OO++5599++++++55555555++995555559955",
"55OO99++++55555555++9955++99OO++5599++++++55555555++995555559955",
"68++++++OO++++OOOO++OOOO++++++OOOO++OO++OO++++OOOO++OOOOOO++++++",
"79++++++OO++++OOOO++OOOO++++++OOOO++OO++OO++++OOOO++OOOOOO++++++",
"                                                                ",
"                                                                ",
"..,,..pp,,,,..pppppp..&&,,....pppppp..&&,,....pppppp..&&..pp..pp",
"..,,..pp,,,,..pppppp..&&,,....pppppp..&&,,....pppppp..&&..pp..pp",
"pp&&..ww,,....wwww,,pp....wwww,,,,..pp....wwww,,,,..pp..,,ww..,,",
"pp&&..ww,,....wwww,,pp....wwww,,,,..pp....wwww,,,,..pp..,,ww..,,",
"ww..ww,,....ww....,,ww..&&,,,,,,ww..,,..&&,,,,,,ww..,,......wwww",
"ww..ww,,....ww....,,ww..&&,,,,,,ww..,,..&&,,,,,,ww..,,......wwww",
"                               ..                               ",
"                               ..                               ",
"0099990099000000990000990000009++0000000000000990000000099990000",
"0099990099000000990000990000009--0000000000000990000000099990000",
"55OO99++++55555555++9955555599+@@+OO++99555599++++OO++99++++99++",
"55OO99++++55555555++9955555599+#;+OO++99555599++++OO++99++++99++",
"OO++++++OO++++OOOO++OOOOOO++++++OO++OOOOOO++++++OO++OOOO++OO++OO",
"OO++++++OO++++OOOO++OOOOOO++++++OO++OOOOOO++++++OO++OOOO++OO++OO",
"                                                                ",
"                                                                ",
"pppp..,,,,&&&&..ppww..,,,,&&&&..ppww..,,,,,,..pppppp..&&,,..&&..",
"pppp..,,,,&&&&..ppww..,,,,&&&&..ppww..,,,,,,..pppppp..&&,,..&&..",
",,$.pp,,&&....ppww,,ww..&&....ppww,,ww..,,....wwww,,pp....pp..pp",
",,oXpp,,&&....ppww,,ww..&&....ppww,,ww..,,....wwww,,pp....pp..pp",
"wwww,,....pppp,,..,,&&....pppp,,..,,&&......ww....,,ww..&&..ppww",
"wwww,,....pppp,,..,,&&....pppp,,..,,&&......ww....,,ww..&&..ppww",
"                                                                ",
"                                                                ",
"0000009900999900000099990099990000009999990000009900009900000000",
"0000009900999900000099990099990000009999990000009900009900000000",
"OO5555++++99OO++5599++++++99OO++5599++++++55555555++995555559955",
"OO5555++++99OO++5599++++++99OO++5599++++++55555555++995555559955",
"++++++OO++++++OOOO++OO++++++++OOOO++OO++OO++++OOOO++OOOOOO++++OO",
"++++++OO++++++OOOO++OO++++++++OOOO++OO++OO++++OOOO++OOOOOO++++OO",
"                                                                ",
"                                                                ",
"==&&,,..&&..ww,,pp....&&&&..ww,,pp....&&&&ww..,,pp..&&ww..ww,,41",
",*&&,,..&&..ww,,pp....&&&&..ww,,pp....&&&&ww..,,pp..&&ww..ww,,w:",
">,..&&ww..ww....,,,,pp....ww....,,,,pp......&&,,,,pp....&&,,ww<2",
">=..&&ww..ww....,,,,pp....ww....,,,,pp......&&,,,,pp....&&,,::w%",
"X...............................................................",
"................................................................"
};
