/* XPM */
static char *dfdcee26fb7246fbb9ff5a00c8253488LBvNN1v1mAyNU02Q[] = {
/* columns rows colors chars-per-pixel */
"64 64 151 2 ",
"   c #040002",
".  c #090105",
"X  c #05020B",
"o  c #0C040B",
"O  c #0D0A0E",
"+  c #11030E",
"@  c #100B0F",
"#  c #0C0715",
"$  c #0E0A14",
"%  c #0E0C1A",
"&  c #130513",
"*  c #190115",
"=  c #130C14",
"-  c #190E16",
";  c #150519",
":  c #1B061C",
">  c #130D1C",
",  c #1B0B1D",
"<  c #141014",
"1  c #1A1016",
"2  c #14111D",
"3  c #1A121D",
"4  c #29051F",
"5  c #250C1E",
"6  c #1D0720",
"7  c #150D20",
"8  c #1C0E21",
"9  c #161221",
"0  c #1B1322",
"q  c #1E1924",
"w  c #1A1728",
"e  c #1E1929",
"r  c #260723",
"t  c #290421",
"y  c #220D23",
"u  c #2A0E21",
"i  c #270E28",
"p  c #290B29",
"a  c #310F2A",
"s  c #231324",
"d  c #281426",
"f  c #231A26",
"g  c #2A1B27",
"h  c #251628",
"j  c #2A162A",
"k  c #241B2A",
"l  c #2B1C2C",
"z  c #301C2F",
"x  c #2D1D31",
"c  c #321E32",
"v  c #371E39",
"b  c #3B1D39",
"n  c #27222D",
"m  c #2B212E",
"M  c #31242E",
"N  c #35282F",
"B  c #2D2333",
"V  c #2E2936",
"C  c #2C2638",
"Z  c #2F293A",
"A  c #332434",
"S  c #392436",
"D  c #332936",
"F  c #382837",
"G  c #352539",
"H  c #3C253A",
"J  c #352B3B",
"K  c #3C2A3C",
"L  c #3C313E",
"P  c #431D3B",
"I  c #42243D",
"U  c #412A3D",
"Y  c #3E2440",
"T  c #352D42",
"R  c #3E2E41",
"E  c #3E3142",
"W  c #432542",
"Q  c #4A2443",
"!  c #432C43",
"~  c #4B2946",
"^  c #462E49",
"/  c #4A2C4A",
"(  c #552F4E",
")  c #433344",
"_  c #493346",
"`  c #423946",
"'  c #493C47",
"]  c #453649",
"[  c #4B344C",
"{  c #463A49",
"}  c #4B3A4C",
"|  c #52344D",
" . c #523B4F",
".. c #58394F",
"X. c #4E3550",
"o. c #4C3F51",
"O. c #533452",
"+. c #593655",
"@. c #533B52",
"#. c #5A3956",
"$. c #5D3658",
"%. c #573D5A",
"&. c #5C3B59",
"*. c #613A5C",
"=. c #4E424D",
"-. c #4D4353",
";. c #544353",
":. c #584557",
">. c #534A56",
",. c #5C445C",
"<. c #5D4A5C",
"1. c #624759",
"2. c #68475F",
"3. c #64485B",
"4. c #674D63",
"5. c #6B4E65",
"6. c #6E4F6C",
"7. c #714E68",
"8. c #675261",
"9. c #635661",
"0. c #675264",
"q. c #685263",
"w. c #6D5064",
"e. c #6F5067",
"r. c #6B5766",
"t. c #6F5667",
"y. c #665964",
"u. c #6D5967",
"i. c #6D536A",
"p. c #6B5568",
"a. c #6F5668",
"s. c #6F506D",
"d. c #6F5A6A",
"f. c #705867",
"g. c #70536A",
"h. c #70506C",
"j. c #75536C",
"k. c #77536D",
"l. c #71546C",
"z. c #705B6B",
"x. c #735A6B",
"c. c #745D6B",
"v. c #73586F",
"b. c #75586F",
"n. c #775C6E",
"m. c #785B6F",
"M. c #735370",
"N. c #755470",
"B. c #795571",
"V. c #765970",
"C. c #7A5875",
/* pixels */
"o o o o     . .                             . . o o         o o o o . . . .                           .                     . o ",
"o o o o   . M M N N D D o o M M M M A A D D D D D D M M M M + o o o m M M M D D D D D D D D D D D D 1 + g M N D M m - . o . o o ",
"    - - & - u.u.c.c.n.n.5 5 a.t.a.a.v.v.b.b.l.l.l.l.e.e.i.i., + & & 4.i.i.i.b.V.k.l.k.k.b.b.b.b.m.m.U u 1.5.z.n.t.r.F , 3 3 @ O ",
"    - - D D 8.8.f.f.n.n.5 5 g.g.5.5.l.l.l.l.5.5.e.e.4.4.i.i.5 & * * 5.i.5.4.i.g.5.5.e.e.g.g.g.g.m.m.U u 3.e.t.t.q.8.) D h s = o ",
"  . s g z.d.I I ....k.k.r r h.h.W W &.&.&.&.Q Q ~ ~ I I M.N.j r r r N.C.~ P Q ~ P P Q Q ( ( $.#.k.B.I 4 5.k.| I |  .p.v.] A =   ",
"  o M D r.r.U U ....k.k.r r 5.5.W W +.+.&.&.~ ~ ~ ~ W I 6.s.j r r r 7.N./ W Q Q P P ~ ~ ( O.+.#.7.k.I 4 2.e.| Q |  .0.p.] F -   ",
"  - y.y.H H | | | | +.+.r r b b W W W W &.&.&.+./ / W W W W p p p p Y W O.O.W W Q Q $.*.+.+.+.+.~ W a t P P | +.&.&.! H :.<.m X ",
"  - 9.9.H H [ [ | | +.+.r r b b W W W W &.&.+.+./ / W W W Y p p p p Y W O.O.W W Q Q $.&.+.+.+.+.~ W a t b P | +.%.&.! H :.<.n . ",
"= = D D K K H H W W X.X.: : v v R R ! ! %.%.W W b b H Y i i ; * 6 : H Y v v H W W W W ^ ! ! ^ ^ Y H j p b Y ^ [ O.O.} } ) E h 2 ",
"= - D D K K H H W W [ [ : : v v Y R R ! %.%.W W b b H H i i : : 6 6 H Y v v Y W W W W ^ ! ! ^ ^ Y H j p H Y ^ [ O.@.} } ) E h 2 ",
"- 1 ) ) R R R R G G , , 7 7 7 7 8 8 J J G G G G k k 8 8 8 8 J K K K s 8 > > x G R R R E T T k e 7 7 0 0 D J E ` ` ` R J J J k 0 ",
"- 1 ) ) R R R R G G , , 7 7 7 7 8 8 J J G G G G k k 8 8 8 8 J K K K s 8 > > x G R R R E T T k 0 7 7 0 0 G J ) ` ` ` R J J K f 0 ",
"& & k k h h 8 8 0 0 k k Z Z k k 7 7 9 9 > > > > > > 9 9 D J T T J J J J q 9 > > 9 9 7 7 e k e w 9 9 % # 7 9 0 q f k f f f f 2 2 ",
"& & k k h h 8 8 0 0 k k Z Z k k 7 7 9 9 > > > > > > 9 9 J J T T J J J J q 9 > > 9 9 7 7 e k w w 9 9 % # 7 9 0 q k k f f f f 2 2 ",
"& = B B l l ; ; > > Z Z C C e e 7 7 9 9 > > 2 2 2 2 2 2 , , s s s s , , > $ > > > > > > k B B C x x 8 > > > k x B B B B C C 0 % ",
"& = B B l l ; ; > > Z Z C C e e 7 7 9 9 > > 2 2 2 2 2 2 , , s s s s 8 , > $ > > > > > > k B B C x k 8 > > > k x B B B B C C 0 % ",
"= - K K E E , , 8 8 J J , , s s A A J J J J s s , , , , > > c A A A s y X   $ $ 0 0 V J F J J J F F J J h 8 J J E E ) ) ] ] f > ",
"= - K K E E , , 8 8 J J 8 , s s A A J J J J s s , , , , > > c A A A s y X   $ $ 0 0 V J J F J J F F J J h 8 D J E E ) ) ] ] f > ",
"- 3 K K { { E E x x 8 8 , , S S U U D D E E j j A A A A > > H H H H g h > > , , , , C D J J F F K K K K h > B B K R ] ' } } l - ",
"1 3 K K { { E E x x 8 8 , , S S U U D D E L j j A A A A > > H H H H g h > > , , , , C D J J F F K K K K h > B B K R ] ' } } l , ",
"1 3 ' ' K K R R x x : : S S H H U U K K K K H H K K H H > > > > U U l j > > c A d y , - D J E ) J F 0 , > > , 8 K R } @.;.;.l . ",
"1 3 ' ' K K R R x x : : S S H H U U K K K K H H K K H H > > > > K U l j > > c A d y - - D J E ) J F 0 , > > , 8 K R } @.;.;.l . ",
"1 3 =.=.K K R R c c : : S S K H U U U K K K K K U U U U > > A A A A H H 9 > S H A A s 3 2 > 2 2 % # % % 7 8 A G R ) ' } @.@.g o ",
"1 3 =.=.K K R R c c : : S S K H U U K K K K K K U U U U > > A A A A H H 9 > S H A A s 3 > = > 2 # # % % > 8 A G R ) ' } @.@.g o ",
"- 3 =.=.] ] ) ) A A , , d d H H ! ! A S F F D D K K K K > > > > > > 2 3 > > H U F F 0 = > 2 % % C Z q 9 > # C J R E R R ! ! h , ",
"- 3 =.=.' ' ) ) A A , , d d H H ! ! A A F F A A K K K K > > > > > > > > > > H U K F 0 = > 2 % % Z J e 9 > # C J R ) R R K K h , ",
"= 1 ' ' } } ) ) F F D D ; ; y y K K R R ; = B B g g 0 9 > > A A H H A A 9 > H K F F s > 3 3 J J E E J C 0 9 f f A J R E F D s , ",
"= - ' ' -.-.) ) K K F F ; ; : : K K R R X X B B h h > > > > D D K U H H 9 > H K F F s > 9 0 J E E E J Z 0 9 e f C A R E F A 0 = ",
"= - F F } } ] ] E E A D ; ; , , k k h h X X D D c c > > B B H F K K F F 9 > D D l k s 8 C J J J K K J A 0 9 9 9 f f F J B m 3 = ",
"= - D F } } ] ] E E A A ; ; , , 0 0 , , X X D D A A > > V V F F K K F F 9 > A D k 0 s y J J F F J J D A 0 9 9 9 q e J J m m 1 = ",
"= = h k K K R R F F k k , , , , , , , , ; ; 0 0 0 0 > > 0 0 0 0 g g j j > > 9 0 2 > l l J J F F F F f 0 8 > > > 0 0 l B k k 1 = ",
"& = s s G G K K D D h h , , , , , , , , , , > > > > > > > > > > d d s s > > > > > > l c F J J F D D 0 > > > > > 9 0 k k k k 1 = ",
"& & , , h h h h h h - - 3 3 d s c c c c 8 8 D D A A l l F K O X d d c c c c d s > > 9 9 f f L E k 9 0 9 8 8 x B F J ` { ` ) h - ",
"+ & , , 8 8 8 , , , , , 9 9 h h A A A A y y K K F F A A ) ) o   s d A A A A j d > > > > 0 0 L E f > 9 0 9 8 B A K E } } ' ' f - ",
"= - B B G G B A h h , > 0 3 A A H H H H > > ) ) K K K K H H o   A S H H H H A c 0 9 > > > > q f 0 9 9 9 A F R ! ) ) ] ' ' ' l - ",
"- - A A K K D G h h , > 3 3 H H K K H H > > ) ) K K K K D D o   S H K K H H S A h 9 > > > > 2 2 9 9 9 9 F K ! ! ) ) _ ] { ' g - ",
"= - F F G G K K A A > > 2 2 K K U U H H 9 9 L L K K K K K K > > K K K U l g 0 0 0 0 > > > > 9 9 9 9 > > K R K K _ _ _ _  .;.l & ",
"= = F F G G K R D D > > > > K K U U H H 9 9 L L K K K K K K 2 > K K U U k h > > 0 s , > , , 9 9 2 2 > > K R H H _ _ _ _ ;.;.l o ",
"= 2 J J K K E E F F 3 3 > > F F K K l l 3 3 ) ) K K K K f 0 l l H H K K k h 3 > 0 0 l c s 8 2 2 % % > 9 B D K K ! ) ! ! =.;.l o ",
"= 2 J J K K E E J J 3 3 > > D D K K l l 3 3 ) ) K K H H > > l B F F K K k h 3 , 0 0 c A d y 2 2 % % 9 9 B B K K ! ! U U  .;.g + ",
"2 3 J K } } ) ) A A 3 3 2 2 0 0 A A f f k k F F K K A A 2 > c A F F K K 0 > l l A F H H A c m n 9 > > > 0 0 A G U U ) ) ) ) s $ ",
"2 3 J K o.o.) ) A A 3 3 9 9 > > m m h h m m D D K K l l 9 > c A F F K K 9 > z A H K H H A A B B 0 > > > , , A D K ! ) ) K K 3 $ ",
"= 2 J J o.o.) ) A A , , D D D D 0 0 l l f f D D D D A A > > h h A A K K h 9 F K K K U U K K k 0 0 h 8 , 8 8 s s j g g g h h - $ ",
"$ $ J J o.o.) ) A A ; ; K K K K > > m m 0 0 A A D D A A > > 8 8 C A K E f 0 H K U U U U K K h > h k 8 , 8 y , , , , - , , = = $ ",
"O = ` ` -.-.] ] g g : : ! ! K K g g F F B B f f f f 0 0 # # A D K K ) ) k 0 k k k k H K D A 0 > l c s , , , l l A A F J L E q $ ",
"X $ =.=.-.-.] ] s s : : ) ) U U z z K K D D 2 3 3 3 o o O O K R ) ) ) ) k 0 > > > > H K A l 9 > c S d 6 , : x A F F E E { =.f $ ",
"X = -.-.-.-.] ] 5 , : : U U U U F F K K J J 2 2 - - = $ l l R R K K _ _ k 0 m B 9 > H K F F F F H H d , , , F R K K ) ` -.-.n $ ",
"X $ -.-.-.-.] ] : , : : S S U U K K U U L L - - > > > > A A R E H H _ _ k q D F 0 > G K K K ! ! U K d , , , K ) K K ) { >.>.n o ",
"= 3 -.-.) ) R R s s : : j j H H U U F F L L 0 0 > > 2 2 F F F F K K ) ) h 2 l l 3 > D K K K K K c l y , , , l A D G E ) ` ` f = ",
"2 q -.-.K K G G d d : : : : F F U U F F E E q q > > 2 2 K U A B K K ! ! 0 > 0 h > > F K K K F F h y , , , : y y x A K E K J 0 = ",
"= 2 J J l l l l s s s s , , l l F F F F V V q q > > 0 0 U U k h H H ! ! 3 $ , , > > D F F F l g , , , , , , , 6 d h l x l k - = ",
"$ $ - - s s y y s s h h , , f f D D J J f f 0 0 > > 0 0 U U , , A D U ! 3 $ > > - , A D D D s , ; & , , , , , , , , , , : ; = = ",
"= - l l c c z z l l h h > > 9 9 k k B B f f s s 3 3 q q l l - > f k l l 9 2 9 9 3 3 l m m m 0 3 , , , , y d l l c c c A c l , ; ",
"- - D A S S A A c c h h > > > > 0 0 f f k k f f 0 0 f f % % % % 2 2 % % 0 0 0 0 0 3 s f f k 0 3 , , ; ; d j c A H H Y Y H H s ; ",
"= - K K H H H H S S l l , , 3 3 f f m m l l l l k k k k 2 2 > > 2 2 2 2 k k m m m m m m m m k k s s : ; l c H H ! ^ _ _ ! ! h , ",
"& , ) ) U U H H H H A A , , 0 0 k k B B l l l l l l m m 9 9 2 2 2 2 0 0 B B A A A A B B B B l l h h : ; c S W W [ [ X.X.] _ k , ",
"- , ) ) ! ! U U H H G H 8 8 A A G G A A c c A A D D B B m n 3 2 2 2 n B D D K K ) ) ) ) F G H H A c 8 : c S ! ! [ X.O.O.[ ] l , ",
"- 3 _ _ ! ! U U K K H H y y K K R R D D c c A A F F A A V V 0 9 3 2 V V J J E E ' ' } } K F U ! H D s : c H ! ^ X.X.O.@.[ [ l , ",
"- 3 } } [ [ ! ! K K H H y y ) ) [ [ H H c c F F F F A A V V 2 2 > > V V J K K K ) ) _ _ [ [ @.@._ ) j y v H ^ ^ ^ ^ [ [ ! ! h , ",
"- 3  . .@.@.! ^ K K H H y y [ [ @.@.H H c c H H K K A A V V > > > > V D K K K K K K W ! @.%.,.,.@.| c y v H ^ [ ^ ^ ! ! R K s = ",
"= - ] _ ] ] W W c c A A : : ! ! [ [ H H z z A A A A m m f f $ $ $ $ f f B B A A A A K W _ _ ] ] W K d : x c H Y H S G G A A 3 = ",
"+ = ) ) ) ) H H h h l l & & c c ! ! S S j j z z k k k k > > O O O O $ $ f k h h g g F K F H A c j d : * d j x x l l l x l k 1 = ",
"o & A A A A l l 3 0 h h + + g j A A l l s s s s q q 3 3 $ $ O O O O $ $ 3 0 3 3 s s l m l l h h 0 , ; & 0 s s s h 0 h h 0 0 = & ",
"o o - - o o - - = = 2 2 o o - - - - = = = @ @ @ < < < < O O o o o o X X = < = = = = = = < < = = @ O o o - - = $ = = - - = O o o "
};
