/* XPM */
static char *_094542d7c06496cb6e5c2f6d906eddfXECLfGySwHeWZw3k[] = {
/* columns rows colors chars-per-pixel */
"64 64 189 2 ",
"   c #689F38",
".  c #69A039",
"X  c #77A94B",
"o  c #679E38",
"O  c #659C37",
"+  c #86B159",
"@  c #CDDCA1",
"#  c #497227",
"$  c #22110E",
"%  c #2D1C13",
"&  c #311E14",
"*  c #29140F",
"=  c #190D0C",
"-  c #1B1315",
";  c #241512",
":  c #578D30",
">  c #629635",
",  c #5B9232",
"<  c #291513",
"1  c #1B0F11",
"2  c #334C1C",
"3  c #F6E47A",
"4  c #2A1621",
"5  c #2B2526",
"6  c #33211C",
"7  c #58352A",
"8  c #85523B",
"9  c #8A553B",
"0  c #674134",
"q  c #422933",
"w  c #4B2C2E",
"e  c #734434",
"r  c #70442F",
"t  c #884E3C",
"y  c #4D2D36",
"u  c #472833",
"i  c #663834",
"p  c #834B3B",
"a  c #623639",
"s  c #3E2B2D",
"d  c #311D26",
"f  c #231C1C",
"g  c #2B1826",
"h  c #593A34",
"j  c #A16246",
"k  c #A96648",
"l  c #B46E4D",
"z  c #935944",
"x  c #5E3538",
"c  c #6F4143",
"v  c #9D6149",
"b  c #AF6A4B",
"n  c #A76448",
"m  c #7F493B",
"M  c #B7704E",
"N  c #8C5443",
"B  c #54323B",
"V  c #432D2D",
"C  c #7E4D45",
"Z  c #7B453B",
"A  c #9B5C45",
"S  c #955946",
"D  c #4B3326",
"F  c #2D1C24",
"G  c #543336",
"H  c #232D12",
"J  c #43262B",
"K  c #713D3D",
"L  c #884E40",
"P  c #835142",
"I  c #6C3B35",
"U  c #713D36",
"Y  c #3A2C32",
"T  c #6E3C3A",
"R  c #794341",
"E  c #723E41",
"W  c #4B3031",
"Q  c #6F3C40",
"!  c #4B302D",
"~  c #512D3A",
"^  c #5D3340",
"/  c #4F2C3A",
"(  c #5E3335",
")  c #623534",
"_  c #5C332E",
"`  c #1D100D",
"'  c #41221E",
"]  c #5A8C31",
"[  c #472621",
"{  c #653741",
"}  c #63393D",
"|  c #52862D",
" . c #492724",
".. c #406222",
"X. c #522C2C",
"o. c #4D2A25",
"O. c #130B0C",
"+. c #663942",
"@. c #2C1E1D",
"#. c #331D29",
"$. c #211719",
"%. c #140F10",
"&. c #532C26",
"*. c #3A2926",
"=. c #292C2E",
"-. c #292E31",
";. c #272A2D",
":. c #231D22",
">. c #242224",
",. c #292828",
"<. c #434143",
"1. c #6B747B",
"2. c #748289",
"3. c #6F7980",
"4. c #66666E",
"5. c #615D64",
"6. c #6B767D",
"7. c #656B72",
"8. c #4C555B",
"9. c #333538",
"0. c #3C1F24",
"q. c #4A484C",
"w. c #5F6366",
"e. c #393A3B",
"r. c #4A464D",
"t. c #552E33",
"y. c #2C1519",
"u. c #1C1A1B",
"i. c #79868E",
"p. c #565D64",
"a. c #17191B",
"s. c #020202",
"d. c #0B0704",
"f. c #0E060A",
"g. c #1C161A",
"h. c #161314",
"j. c #4C4E52",
"k. c #73727A",
"l. c #444B4F",
"z. c #3E3B3C",
"x. c #5E5960",
"c. c #2C201F",
"v. c #333234",
"b. c #504D4C",
"n. c #0E0B0B",
"m. c #4E5154",
"M. c #372924",
"N. c #381C1B",
"B. c #717C83",
"V. c #87939A",
"C. c #7E8C94",
"Z. c #738087",
"A. c #848892",
"S. c #8C98A2",
"D. c #9BADB7",
"F. c #9EB1BB",
"G. c #94A2AB",
"H. c #98A2AC",
"J. c #7E7982",
"K. c #90939D",
"L. c #1F2122",
"P. c #7B757E",
"I. c #8A8A94",
"U. c #808187",
"Y. c #6E6F70",
"T. c #86818B",
"R. c #827C85",
"E. c #6A656B",
"W. c #857F89",
"Q. c #5C585A",
"!. c #5A555B",
"~. c #504D53",
"^. c #7D7780",
"/. c #736E73",
"(. c #383635",
"). c #615C5D",
"_. c #787377",
"`. c #321A1A",
"'. c #939CA7",
"]. c #774636",
"[. c #3D6221",
"{. c #757075",
"}. c #413E3C",
"|. c #1F1E20",
" X c #3B212C",
".X c #456D26",
"XX c #55892F",
"oX c #20290F",
"OX c white",
/* pixels */
"  . X . . . . . . .       . . o o           o           . . . . . O             o o         o o                     . o . o . O ",
". + @ + . # $ % & & & % * = - ; & & & & & & & & & & & & ; . : > , O   $ & & & & & & & & & & & % < 1 1 < & & & & % ; 2 > o . . . ",
"X @ 3 4 5 6 7 8 9 9 9 9 0 q w e 9 9 9 9 9 9 9 9 9 9 9 9 r . o , O . O r 9 9 9 9 9 9 9 t 9 9 9 9 e y u i 8 9 9 9 p a s d f . . O ",
". + g u h 0 9 j k k l l z x c v l b n n n n n n n n k l l m < o . 6 m l M k j k n n n n n n l M v c x N l l k k j N c B V ; . . ",
". . d B C z N p Z t A b N h 0 v b S p p p p p p p p t A l z D f F G z l A 8 m p p p p p p p S l v h G N l A t Z p S S C G F     ",
". H J c S A t K i K L S P h h N A p I I I U a I I i U t A t h s Y x P z 8 e I i I T I i i I p S N B y m A L T T U t A S 0 q H   ",
". ; 0 z N p R E K I Z C c B W e Z E Q T I T E T I T E E Z T W q q ! I Z Z E I I T E T I I E c p T G ~ T Z R E T I U p 9 z 0 ;   ",
"  ; e z t T T E K I T Q ^ / B x T K E T I K E K T K E K I ( y q s w ( I K E K K E E T I T E K I ) ~ / ( I K E T I I K t A e ;   ",
"O $ _ U U I I I I I I a x / / ) I I T i I I K E c K T I I _ V V q / ( i I T K E E K I I I I I I ) / / ( I I T I I T E R Z 7 `   ",
"> ` ' i K U I I I I I I ( / ~ ) I T T I I I T E E K I T I x ! Y q W ) T I I K K E K I I I T T I ) / / ( I I I T I T E K I ' =   ",
"] ` [ I K E K I K E K I ( / ~ ) T e K T I K E K K I I T E { ~ s s ! } Q T I I K K E K I T E K T ) ~ / ( I T E T I I I K I ' = o ",
"| `  .K E E U I K E K I ) / / ) T K E T I K E T I I T T E { / q s y } E T I T T E K K I T E e I ) ~ / ( T K E T T I I I I  .= o ",
"..= X.E E K I I I T I i ( / / ) I T I I I I I I I K E E T x ! Y s y a I I I K E E K I I I T I I ) ~ / ( I I T E E K I K K w 1 > ",
"..= w Q K K I I I T I I ( / / ) I T I I I I T I I U E E T x ! s Y y x I I I K K K K I I I I T I ) ~ ^ ( I T T K E U I K T w 1 > ",
"> =  .T E E K I K E K I ( / ~ ) T K E T I K E K I I T K E { / s s y } E K I I T K E K I K E K T ( / u ( I T E E K I I U I o.= o ",
"  O.[ I K E K I T E K I ( / ~ ) T K E T I K E K U I I K E +./ V s y } E K I I K E E K I I E E T ( u ^ ( I K E T I I I T i  .= o ",
"  = ' U U K I I I T I I ( / ~ ) I I I I I I T K E T T I I ) ! s q / a T U I T E K T I I I I I I a ~ / ( I I I I I T E K I [ =   ",
"o = ' i U U I I I T I I ( / ~ ) I T T I I I T E E a X.o.' ' 6 @.F #.[ o.o.X.a E E K I I I I K I ) ~ ^ ( I I T I I T E E T  .=   ",
"  = ' I E E U I T E T I ( / ~ ) I K E T T K E E I  .$.= $ = O.O.O.%.1 = = *  .I E E K I K K K T ( u u ( T K c T I I T K E w 1   ",
"  = [ I E E K T E E K I ( / ~ ) I E E T I K E i &.*.=.-.-.-.=.=.;.:.:.>.,.=.*.X.) E K I T E E I ( ^ / ( I K E K T I I K K y =   ",
"  = ' I U K K E E T I I ( / ~ i U I I I I T ) ' f <.1.2.2.2.2.3.4.5.5.4.6.7.<.f ' ) K I I I U I ( ~ / x I T T K E K I U I  .= o ",
"  ` ' i I K E E T I I T x / ~ a I I I I I _  .*.-.8.6.2.2.2.2.6.4.5.5.4.3.1.8.9.*.o._ i I I I I a ~ / x I I I T E E U U i [ =   ",
"  = [ I E E E T I I T E } / ~ } E T K K a 0.@.q.7.w.e.-.-.-.-.;.;.>.:.>.;.9.w.7.r.F ' a K K T E { t.y x Q K T I K K E E I o.= o ",
"  = [ I E E K T T I T T x y B } E T U E a y.u.8.i.p.a.s.d.O.O.O.f.O.O.f.s.a.p.i.8.g.y.a K K I E } t.w x Q T I I T E E K i ' =   ",
"  ` [ i U K K E K I I I x ~ B a I I I K _ < h.j.k.8.h.s.u.6 d d @.@.d 4 f.h.j.k.l.g.< _ T I I I a / / x T I I K E E K U i [ = o ",
"  = ' i K K E E K I I I x / / a I I I U ( < %.z.x.z.h.d.; c.d d @.c.d 4 f.h.<.x.z.O.< 7 U I I I ) / / ( I I T K E K I U I o.= o ",
"O ` ' U K E K K I I K E x W B } E T U K ) y.O.v.b.9.n.s.d.n.O.O.O.n.O.f.s.%.e.b.v.= * _ U E E T ) ~ / ( I T E E T I I K E w = o ",
"O ` ' I E E K K I i K Q x y G } E T i ) ~ Y 9.j.w.m.9.-.;.-.-.-.=.=.=.;.;.9.m.x.j.9.M. .) Q E I ) ~ / ( I K E E T I I U Q w = o ",
"  ` ' I U U K E K I I I a / ~ ) I U _ N.d j.B.V.V.C.2.Z.Z.Z.Z.2.Z.Z.Z.2.2.2.A.V.V.3.j.5 N._ K U ) / / ) I I T E E K I U I o.= o ",
"> ` ' I K U E K K I I a ( / B a U I &.$ g.p.S.D.D.D.F.F.D.G.C.Z.Z.C.G.F.F.F.F.F.D.S.p.u.$ &.U U a ~ / ( T I I T E K K U i  .= o ",
"] = ' U K E E K I I U E a W W } E K &.$ g.j.A.G.D.F.F.F.D.i.l.-.-.l.i.F.F.F.F.D.H.A.j.- $ &.K c +.W y x E T I I K K E E I [ = o ",
"O = ' U E E K K I I K T x W W +.E U &.* - r.J.K.G.G.G.G.V.7.L.s.s.L.w.V.G.G.G.G.K.J.r.- $ &.U E } W w } K T I I T E E K i [ = o ",
"  = ' i I K E E T I I T x y G a K I &.$ g.r.P.A.I.I.I.U.Y.q.h.s.s.a.q.Y.U.C.S.V.A.P.r.- $ &.I U ) y y x T I I T E E K I I ' ` . ",
"  ` ' i U K E E T I I I x y ~ a U U &.$ - r.P.T.R.T.R.E.q.,.n.s.s.n.,.q.J.J.C.J.W.P.r.g.; &.U K a ~ y a T I I T E E K K i ' = . ",
"  = [ I K E K K T I T E } W W +.E K &.$ g.q.P.T.W.T.P.Q.5 n.s.s.s.s.n.,.P.J.W.W.W.J.q.h.$ &.K E +.W y x Q T I I T E E K U ' = O ",
"  = [ I E E K K I I K Q x ! W } E U &.$ a.q.P.T.W.T.P.~.h.s.s.s.s.s.s.h.~.J.W.W.W.P.j.g.$ &.U E } W W x E T I I T K E E I ' = . ",
"  = ' I T K K E T I I I x / W i U U &.$ - q.P.T.W.T.P.~.h.s.s.s.s.s.s.a.~.^.W.W.T.P.q.g.$ &.U I } G y x I I I T E K K U I ' $ . ",
"  = ' I T K K E T T I T h ~ / } T I &.$ - <./.R.R.T.R.Q.v.>.;.-.-.;.:.Y x.J.W.W.R./.<.- $ &.I K ) G y x I I I T E E K U i ' = O ",
"  = ' U E E K T I I T Q x W W } K K &.$ h.(.)._.R.W.R.k.E.7.3.2.2.3.4.4.^.R.W.R._.).(.%.$ &.U E } W W } E K I I T E E E U ' = , ",
"] = ' I K E E T I I T Q } ! G } E T _ `.g.5 <.)./.R.R.W.T.I.'.H.G.'.I.R.R.R.R.k.).<.5 - `._ K E +.W W } Q T I I T K E ].I ' ` O ",
"[.= ' U U K K E T I I T x / ~ a U I ) u d $.:.z.).{.R.T.T.T.I.I.V.I.W.W.T.J.J.5.z.:.g.#.u _ U U a y / x I I I K E E K U i ' `   ",
"[.= ' I U U E E T I I I ( y G a I I i x u y.- :.}.Q.{.P.U.T.W.W.W.W.W.W.R./.x.<.>.1 4 u x i I I a / y x T I I T E E K K i ' =   ",
"> = ' I K E K K I I T Q x W W +.E K I i ( u #.$.$.(.Q./.R.W.W.R.W.W.W.R./.).(.$.4 d u ( I I T E } G w x Q T I I K E E K U ' =   ",
"O = ' U E E K K I I K Q x W W +.E K I I i a u g - 5 (.q.Q.5.5.5.5.5.5.x.b.(.>.$.g u x T I I I E } W y a E T I I I K E E I ' `   ",
"  = ' i U K K E T T I T x y ~ ) K E E T I i ) u #.y.g.a.u.:.:.:.:.:.:.|.a.g.$.#.u ( T E K T I I i B y x T I I T E E K U I ' =   ",
"  ` ' I U K E E T I I I x y y ) T K E K I I I ) / d 1 f.f.O.O.O.n.f.O.n.f.= d y ( I K E E T I I ) ~ / ( I I T E E K I I I o.=   ",
"  = [ i E E E T I I T E } ! ! ) I I T E E K I i ( y  XF c.c.5 d F @.d d 5 6 w ( i I I I K E E T ) ~ / ( I K E E K I I U E w =   ",
"  = [ I E E K T I I K c x ! o.) I I K E K T I I I x B y ! ! q q s q y y w D h I T I I I K E E I ) ~ / ( I K E E T I I K Q w =   ",
"  = ' I K K K E K I I I a y / _ I E E K K I I K K T a ) _ 7 ! Y q y ( ) _ a T E K I T E E T I I ) ~ / x I I T E E T I U I  .1 o ",
"  = ' I U K K E K I I a a / y ) I K E K I I I K E E K I I _ ! s s / x I T T T E T I T E E T I I ) ~ / x I I T E E T I I I  .= o ",
". = ' U E E K K I I K E } W w _ I U K E E T I I K K E E I ( y q s W } E U T I T I I I T K E E T ) ~ / ( I K E E T I I K Q t.1 o ",
"  = ' U E E K K I I K T } ! ! _ I I K E E K I I T E E K I x y s Y W } K T I I I I I I T K E e I ) ~ / ( I K E K K T I T Q w = o ",
"  = ' U U U E E T I I I x y / h I E E E I I I T E K T I I _ ! s q / x T I I K E K I T E E K T I ) ~ / ( i I T E E K I U I  .= O ",
"O = ' I U K E E T I I I x W t.) I E E K I I I K E E K U I ( ! s q y ) I I I K K T T T E E K I I ) ~ / ( I I T E E K I I I  .1 o ",
". = ' I K E K U T I K E x W ! _ i U K E E K I I K K E K I ( y q s V } Q T I I T I I I T K E K T ) ~ / ( I K E E K I I T Q t.1 > ",
". = ' U K c E U I I T c } W ! a T I I K E K T I I T E E I x y q s y } E K I I I I I I I K E K T ) / / ) I Q E E T I I K Q w 1 o ",
"  = ' i U K E E T I I T ( y / +.E K I I K K E K I I T K Q } y s q W a I I I T E T I T E E T I I a ~ / ( I I K E E K U U I  .= o ",
"o ` ' i I K K E T I I I x / B +.E K I I I K E E T I I T E x y s q / a I I I Q E K U K E E K I I ) ~ ~ ( I I K E E K I U I  .1 > ",
"] = [ I E E K K T I T E } W w x K E E T I I K K K K I T T x / q Y ! } E U I I T I I I T K E E I ) ~ / ( I T E E T I I K E u 1 ] ",
"| = o.I E E K K I I K E } W ! _ U c E K U I I K E E T I I ( J d c.*.a E K I T T I I I T K E E K ) ~ / ) I K E E K I U K E X.1 | ",
".X= ' I U K K E K I T I x y W ) I U K E E K I I K E E Z I  .$.XXO ;  .I U I T E K U K E E T I U ) ~ ^ x I I K E E K I I I  .= ..",
"] > , ' &.X.t.t.X.&.o.&. . X XJ o.&.X.t.t.X.&.&.o.X.t.t.[ O > O   ] .X' &.&.t.t.X.X.X.t.t.X.&.&.J 0.#.J  .&.&.X.x X.X.&.6 # ] ] ",
".X] O oX= = 1 ; = ` = = = [.2 1 = = $ 1 1 1 = = $ 1 1 1 =         O O ] = = - 1 1 = $ 1 1 = = = = 2 ..= = $ = 1 1 1 = $ oX> > # ",
"> O O .           .       . . . o >                                 .                     o     o o o o           o   o o   o > "
};
