/* XPM */
static char *chocbarre1705676607[] = {
/* columns rows colors chars-per-pixel */
"64 64 197 2 ",
"   c #14072F",
".  c #0F0834",
"X  c #0E0A3C",
"o  c #120732",
"O  c #150934",
"+  c #1A0C35",
"@  c #150B3A",
"#  c #1A0D3C",
"$  c #191436",
"%  c #1C1B36",
"&  c #1B1739",
"*  c #210F35",
"=  c #251136",
"-  c #2B1336",
";  c #29163B",
":  c #26193A",
">  c #331636",
",  c #381736",
"<  c #371837",
"1  c #3B1A37",
"2  c #331738",
"3  c #361B3A",
"4  c #3C1B39",
"5  c #1D2435",
"6  c #1E2238",
"7  c #222938",
"8  c #232D39",
"9  c #352339",
"0  c #243235",
"q  c #293C36",
"w  c #253639",
"e  c #2A3C39",
"r  c #34373B",
"t  c #431D37",
"y  c #431E38",
"u  c #481F38",
"i  c #4B2037",
"p  c #462039",
"a  c #4C2239",
"s  c #4F283D",
"d  c #562536",
"f  c #592637",
"g  c #532539",
"h  c #5A2738",
"j  c #56293C",
"k  c #5C293A",
"l  c #632D3B",
"z  c #662D3B",
"x  c #65313D",
"c  c #6A323E",
"v  c #71353F",
"b  c #2E4336",
"n  c #2E423E",
"m  c #324C36",
"M  c #324738",
"N  c #375436",
"B  c #395637",
"V  c #3D5D37",
"C  c #3C5A3B",
"Z  c #3D6221",
"A  c #3F6336",
"S  c #406523",
"D  c #456D26",
"F  c #477127",
"G  c #487227",
"H  c #497328",
"J  c #416437",
"K  c #456B36",
"L  c #42643A",
"P  c #456938",
"I  c #496F3A",
"U  c #4A7633",
"Y  c #4B723A",
"T  c #4F793A",
"R  c #527D39",
"E  c #1C0F43",
"W  c #1E1145",
"Q  c #261646",
"!  c #24144C",
"~  c #2A1653",
"^  c #321C5C",
"/  c #29264F",
"(  c #2E354C",
")  c #361E62",
"_  c #3B2365",
"`  c #3C236B",
"'  c #5B2E44",
"]  c #562A4D",
"[  c #642E4C",
"{  c #6A3743",
"}  c #6C3441",
"|  c #723641",
" . c #763942",
".. c #7C3D44",
"X. c #71364A",
"o. c #673057",
"O. c #713756",
"+. c #452775",
"@. c #442973",
"#. c #4E2B7E",
"$. c #783C67",
"%. c #733C70",
"&. c #344943",
"*. c #435840",
"=. c #754D44",
"-. c #58714C",
";. c #676D5B",
":. c #813F45",
">. c #824246",
",. c #854945",
"<. c #854348",
"1. c #8A4549",
"2. c #8A4948",
"3. c #884E4E",
"4. c #924E4B",
"5. c #96574E",
"6. c #9D5B4D",
"7. c #965452",
"8. c #A15F4E",
"9. c #A3624D",
"0. c #AC6A4F",
"q. c #B36F53",
"w. c #BC7553",
"e. c #B87457",
"r. c #C37B59",
"t. c #52842D",
"y. c #558A2F",
"u. c #558536",
"i. c #578B30",
"p. c #598E32",
"a. c #568339",
"s. c #5B8B39",
"d. c #5D9233",
"f. c #5F9139",
"g. c #629635",
"h. c #659C37",
"j. c #689F37",
"k. c #619539",
"l. c #669C38",
"z. c #689F38",
"x. c #6BA13C",
"c. c #5B8244",
"v. c #6B9549",
"b. c #6EA340",
"n. c #71A544",
"m. c #75A749",
"M. c #76A84A",
"N. c #7DA556",
"B. c #83AE59",
"V. c #85B15B",
"C. c #8A9372",
"Z. c #86B361",
"A. c #8AB565",
"S. c #9CA67F",
"D. c #F6E47A",
"F. c #512D82",
"G. c #553384",
"H. c #5A318B",
"J. c #5E3490",
"K. c #5E3B90",
"L. c #6E3888",
"P. c #723A88",
"I. c #623694",
"U. c #6A3A9D",
"Y. c #6E3CA1",
"T. c #743FA7",
"R. c #753FA8",
"E. c #7B458A",
"W. c #6B4599",
"Q. c #7641A9",
"!. c #7B45AE",
"~. c #7B49AE",
"^. c #7D48B1",
"/. c #7E53B0",
"(. c #814786",
"). c #854B96",
"_. c #854FA6",
"`. c #8852AD",
"'. c #824CB5",
"]. c #864FB9",
"[. c #8857B7",
"{. c #8651BA",
"}. c #8A54BD",
"|. c #8D57C1",
" X c #8F59C3",
".X c #915AC5",
"XX c #945DC9",
"oX c #9661CA",
"OX c #9962CD",
"+X c #9E66D2",
"@X c #9F68D3",
"#X c #A069D4",
"$X c #A269D6",
"%X c #AB72DF",
"&X c #AC73E0",
"*X c #C9D69D",
"=X c #CEDCA1",
/* pixels */
"z.x.M.z.z.z.z.z.z.z.z.z.z.z.z.z.h.j.j.j.j.j.j.j.j.j.j.j.x.h.h.x.h.x.x.x.h.x.x.h.x.d.x.x.h.x.x.h.j.j.j.j.j.j.j.j.z.z.z.z.z.z.z.z.",
"x.V.*XV.z.j.z.z.z.z.z.z.z.z.z.z.x.j.x.h.h.x.h.x.x.j.h.x.x.h.d.g.d.h.h.x.x.h.x.x.x.x.x.x.x.h.j.j.j.x.x.j.j.j.j.j.z.j.z.z.z.z.z.z.",
"M.=XD.=Xm.j.z.j.z.z.z.z.z.z.z.z.j.j.h.j.h.g.d.h.x.j.j.j.j.l.h.d.t.I I I I U K K U T k.j.h.h.j.h.j.j.h.j.j.j.j.j.h.d.x.j.z.z.z.z.",
"x.V.=XV.x.z.z.z.z.z.z.z.j.z.z.z.x.j.d.h.g.G g.j.j.j.h.x.j.j.j.j.A X X X X X X . . ( f.j.j.x.j.x.x.h.x.j.j.j.j.j.d.Z h.j.z.z.z.z.",
"x.x.m.j.j.j.z.z.x.h.j.h.d.j.l.x.j.j.h.d.j.h.h.j.j.j.j.j.j.z.l.x.L X X X X X X X @ w t.h.h.x.x.h.h.j.x.j.x.x.x.h.y.g.j.x.z.j.j.z.",
"x.x.j.j.z.z.z.z.h.x.h.d.h.l.j.j.j.x.h.h.j.d.d.h.j.j.j.j.h.U B B r t 4 s ' ' s 9 1 9 w N A d.x.x.j.j.h.x.N.x.x.h.H h.x.n.x.j.z.z.",
"j.j.j.j.z.z.z.z.x.x.x.h.j.j.j.j.j.j.d.g.d.H d.x.j.j.j.x.z.B X O 1 f f v 1.1. .h f t O O 7 d.x.x.x.j.x.x.n.Z.x.x.h.z.M.N.x.z.z.z.",
"j.j.j.j.z.z.z.z.h.h.x.l.j.j.x.l.j.x.d.F g.h.h.x.j.j.h.d.f.B $ O y h h  .1.1. .k k u + + 0 s.k.k.h.j.h.j.x.A.x.M.N.n.N.n.z.z.z.z.",
"j.j.j.j.h.x.h.x.x.h.j.x.h.j.x.j.j.x.g.y.h.x.x.h.j.h.V q 0 9 u u } :.:.:.1.1.1...:.v d i 9 0 0 e p.h.x.x.x.x.b.V.M.x.x.x.z.j.j.j.",
"h.d.h.x.x.h.x.x.x.h.j.h.j.j.j.j.j.h.j.h.j.j.h.x.j.h.m O   t l h  .1.1.1.1.1.1.1.1.v f f a + O % d.x.x.x.x.x.b.N.x.j.z.z.z.j.j.j.",
"y.h.j.y.g.j.x.x.h.x.j.x.j.j.x.h.x.x.x.x.x.j.x.i.s.a.b * = t i g c :.:.1.1.1.1.1.1...z z d = = : U f.u.f.x.h.x.x.x.z.z.z.j.d.h.j.",
"y.h.g.F d.x.b.x.j.j.j.j.j.x.j.j.x.x.n.x.h.j.g.m $ % t d d > + + t l h  .1.1.1.1.1.1.<.<...j d y % % 6 y.x.x.x.h.j.j.z.z.h.Z h.j.",
"Z d.y.g.x.b.Z.Z.x.j.x.j.j.j.j.x.x.V.=XV.x.j.k.b O + y f f - O O 1 h h | 1.1.2.1.1.1.1.2.:.l f a # o & p.x.x.x.x.z.z.z.z.h.d.i.h.",
"S d.G g.b.V.n.b.x.j.j.j.x.h.j.h.M.=XD.*Xc.T Y r > 2 k c c y - 2 1 t t k  . .2.6.6.4.:.v c t t t > - ; L U T d.x.z.z.z.z.j.h.Z h.",
"g.x.g.x.x.x.x.x.x.x.x.h.j.j.j.j.x.N.=XN.8 X @ p f h ..1.1.c d h 2 O O 2 h f <.w.r.6.f k u + O - d f g + . $ u.z.z.z.z.j.z.z.h.x.",
"x.x.n.V.V.x.x.n.V.V.x.j.x.h.x.j.x.x.M.f.w X @ a f k :.1.<.} h h > O O 1 h h <.r.r.6.f f u + O * d f i = X X a.z.z.z.z.z.z.z.j.j.",
"x.x.N.n.x.x.x.N.x.x.x.h.x.h.h.x.d.J J V 9 1 4 {  . .<.1.1..... .j 4 1 1 2 > j 1.3.} < 2 < 4 4 p |  .{ p 4 4 m A C s.x.d.x.x.h.x.",
"j.x.x.h.x.x.x.x.x.h.x.x.x.h.x.x.d.5   + d f l =.1.1.1.1.1.1.1.1.} f f 1 O O < h h t O o - h h z <.2.<.z h d * O @ T x.b.x.x.j.h.",
"j.h.j.x.j.x.x.x.x.x.x.x.h.x.g.g.i.5 O + i f f >.<.1.1.1.1.1.1.1.| h k 4 + O 2 g f t + + - h h c 1.1.<.h k d = + + T B.*XM.x.x.h.",
"j.x.j.j.j.j.j.x.h.x.h.h.j.d.m b q G.W.W.E.(.P.[ z } <.1.1.1.1.1.<.....x i i 1 - = > u a j ....<.1.1.1.>.....g p a ( ;.=.S.n.j.j.",
"j.j.j.j.j.j.j.j.h.x.h.x.h.s.% O # /.$X$XXX.X}.[ h h ..1.1.1.1.1.1.1.1. .h f t O o - f f } <.1.1.1.1.1.1.1.1.l d k Q & + c.x.z.z.",
"j.j.j.j.j.x.j.j.x.h.h.p.u.T & W W /.$X@XXX.X}.[ h k ..:.>.2.4.4.1.:.:.} i g 4 + + < g a k >.:.<.1.1.1.1.1.1.} ' l 9 Q ; I f.f.f.",
"j.z.j.j.h.j.j.j.x.x.u.5 5 6 W.[.[.oX@X$X+X+XOX`._._.X.f l 6.w.w.1.h l 4 + + > g d 4 + + - k h c 1.1.1.1.1.1.<.<.>.k g s 9 7 6 C ",
"z.z.j.h.d.h.d.h.h.x.u.. O E [.$X@X@X$X@X@X$X$XXX.X XO.d d 6.r.r.,.d h 1 O o > f f t + O - f h l <.1.1.1.<.1.1.1.1.} g g - O @ C ",
"z.z.z.z.g.d.h.f.a.a.L ! ~ ^ [.$X@X@X@X#X@X#X@XoXoX.XE.%.%.3.9.9.} y y < - - y z c f - - > t t g  ...<.7.6.7.1.=. .' p t = O + C ",
"z.z.z.z.x.h.x.U . O W [.oXoX@X$X$X@X#X#X#X#X#X@X@X@XXX X.X$.h h 2 + O 1 h g c 1.2...f f u + o - d f X.e.r.w.} d g : + O O O O C ",
"z.z.z.z.l.x.x.a.O   Q  X$X@X@X@X@X#X#X@X@X@X@X$X@X@XXX.X.X$.h h > O O 2 f f v 1.1.v f f u + o * d d } q.r.e.h g g = O O O O + C ",
"z.z.h.j.u.K K &._ ` ` ~.{.{.{.{.{.OX#X#X@X@X@X@X$X@XoXoXOX).E.E.] 1 > j v v ..1.1.:.v v z , , 1 3 3 p =.3.<.] 4 1 1 < < = o # C ",
"z.h.d.d.A $ O ! [. X{.Y.R.R.T.Y.Q.oX$X@X$X@X@X@X@X@X#X@X#XoXoX X%.d f X.1.1.1.1.1.1.1.1.:.f k d ; & = g d g ; O + u f h - O O C ",
"h.h.h.d.A . . ! [..X{.Q.R.R.R.R.Q.oX@X+X@X@X+X@X@X#X#X#X@XoX.X.X3.f l X.1.>.1.1.1.1.1.1...l l a ; Q ; a d g * O * i f f - O @ C ",
"d.A m N ( G.G.K. X.X X].'.].].].^.~.^.^.^.~.^.XX#X#X#X#X$XOXOXOX|.^.'.%.z z  .1.1.1.1.1.4.6.9.5.s a a 3 - - t u u g h g - O + C ",
"h.A . . /  XoX X X.X X.X X.X.X.X}.Q.Q.T.T.T.T.|.#X#X#X#X@X@X$X@XXXXXXX3.f f c 1.1.1.>.1.6.w.w.0.k g s = o + g f h f g g - O O C ",
"h.P O   ^ {.|. X.X.X.X.X.X.X.X.X|.Q.R.Q.Q.R.Q.}.OX+XoXoXoX+X@X$XOX.X.X(.o.[ X...:.1.4.4.6.0.0.9.j g i = + * d f f g g a - & $ C ",
"l.K O O ~ T.Q.!. X.X X.X.X.X.X.X|.|.{.}.{.}.{.!.!.Q.Q.Q.Q.}.@X@X+X+X+XXX].}.(.l h ..q.w.6.l x j = $ = i g g f f h - * * L s.s.f.",
"x.K O O ~ U.T.Q. X.X.X.X.X.X.X.X X X.X.X.XXX XQ.T.T.Q.T.Q.{.$X$X$X$X$XXX.XXX(.f g =.w.w.9.g s i + O * g f h h h g - o + I j.x.j.",
"x.J O   ~ T.Q.Q.{.{.}.|..X.X.X.X.X.X.X.X.X X X!.Q.Q.!.Q.!.^..X.X.X.X.XXXXXXX).[ [ <.9.9.5.' p t - = - d f h u u t 8 q 0 Y j.j.j.",
"x.V O O ~ Y.R.T.R.R.Q.|..X.X.X.X.X.X.X.X.X.X.X|. X X|.|.|.!.T.T.T.T.R.XX&X&XOX`.}.(.l h s ; + - g d h h h g * + + Y d.d.h.l.x.x.",
"h.A O O ~ Y.T.T.R.R.Q.|..X.X.X.X.X.X.X.X.X.X.X.X X.X.X.X.X!.R.R.T.T.T..X&X&X$XXX.X).f d t O O * d f h k f g * O @ U h.d.j.l.j.h.",
"x.A + o ~ Y.R.T.T.T.Q.'.'.]..X.X.X.X.X.X.X.X.X.X.X.X.X.X.X'.!.!.'.R.!.}.+X+XXX}.|.).o.o.] 1 > 1 f h d y 4 4 M C B u.h.h.x.x.h.d.",
"y.A O   ~ T.T.T.T.R.T.T.T.!..X.X.X X.X.X.X.X.X.X.X.X.X X.X.X.X X.X.X.X'.R.R.R.Q.R.R.R.R.L.l h h h f g + O O R z.z.j.h.x.h.h.x.h.",
"Z N   O ~ Q.U.Q.T.T.R.T.Q.!..X.X.X.X.X.X.X.X.X.X.X.X.X.X.X X.X X.X.X.X'.R.R.R.T.T.T.T.R.P.k h h f f g # O @ t.j.z.z.j.h.l.x.j.j.",
"Z U K K b ~ ~ _ Y.T.T.T.T.Q.!.!.^. X.X.X.X.X.X.X.X.X.X.X.X.X.X.X.X.X.XXXOX+XXXR.T.T.R.R.P.l h g 3 - ; A U I f.j.z.z.j.d.h.l.j.j.",
"d.h.x.d.N o . ! Y.R.R.T.Q.T.T.T.^. X X X.X.X.X.X.X.X.X.X.X.X.X.X.X.X.X+X%X%X$XQ.T.T.R.R.P.h h u + O % a.x.j.j.j.z.z.z.h.d.j.l.x.",
"x.h.x.h.K + o W J.U.U.T.T.T.T.T.!.|. X X.X.X.X.X.X.X.X.X.X.X.X.X.X.X.X$X%X%X$XR.R.T.R.R.L.g g y $ @ & u.j.h.x.j.z.z.z.z.h.j.j.x.",
"x.h.j.x.d.u.u.A W W ! U.R.T.T.T.Q.Q.R.^. X.X.X.X.X.X.X.X.X.X.X.X.X.X.X}.].].'.R.T.T.R.R.H.# + 7 U u.a.l.h.d.g.d.h.h.h.h.j.j.j.l.",
"j.j.j.h.x.x.x.T o o E U.Q.Q.T.R.T.R.T.Q. X.X.X.X.X.X.X.X.X.X.X.X.X.X.X'.T.T.T.T.T.R.Q.Q.H.O O 6 s.j.z.z.j.h.d.h.x.h.x.x.j.j.j.x.",
"j.j.j.h.h.h.x.R 8 0 / F.H.H.Y.T.T.R.R.R.].|.|. X.X.X.X.X.XXXOXOX.X}.}.'.T.T.T.T.R.U.H.H.@.8 0 q f.z.z.z.j.j.h.h.j.j.x.h.h.x.j.j.",
"h.j.x.y.j.x.x.h.d.d.U # O E I.Q.T.T.R.R.R.R.R.|..X.X.X.X.X$X%X%XXXT.R.R.T.T.T.T.Q.#.+ O 8 a.f.u.h.z.z.z.j.x.j.x.j.j.x.h.x.x.l.j.",
"x.x.d.F g.x.x.j.j.j.i.  O # I.Q.Q.R.T.R.T.T.Q. X.X X XXX.X$X%X%XoXT.R.T.T.R.R.R.!.F.O X 8 d.d.h.z.z.z.z.j.l.j.x.j.j.h.h.h.j.x.j.",
"x.h.x.d.y.h.j.x.h.x.m.;.*.n ` +.+.U.R.T.T.T.Q.^.].].XX+X+X$X$X+X XT.T.T.T.R.J.+.+.( m m B i.h.j.z.z.z.z.j.j.l.x.h.h.x.h.x.h.j.j.",
"h.h.x.d.G g.x.x.j.x.*XD.*Xv.% O @ H.R.R.R.T.T.T.R.Q.@X&X%XXXQ.Q.Q.Q.T.T.T.R.+.. X e f.x.l.h.j.j.z.j.z.l.d.h.j.j.i.d.x.x.j.x.j.x.",
"j.x.x.x.d.x.h.x.j.x.V.=XN.s.# O @ H.R.R.T.T.R.T.R.Q.@X&X%XXXT.T.T.R.R.T.R.R.+.O O e f.z.z.z.j.j.z.M.z.l.p.i.h.p.y.i.h.x.j.j.j.h.",
"x.j.x.h.x.x.x.x.x.x.n.M.x.N.C.-.A / ) ^ J.R.T.T.T.R. XXXXX{.T.T.T.T.R.F.^ ^ ( L L Y l.z.j.h.d.j.V.=XV.x.l.p.h.y.y.h.j.j.j.h.j.j.",
"j.j.j.j.x.B.n.x.b.A.V.x.n.=XD.*Xv.5 o @ F.Q.Q.R.T.R.T.T.T.Q.T.T.T.R.R.` o O M l.z.z.z.z.h.d.h.n.=XD.=XM.h.d.h.p.h.j.x.h.j.x.h.x.",
"j.j.j.j.x.x.B.M.A.n.n.x.x.V.=XV.f.5 O @ #.Y.Y.T.T.T.R.T.T.T.T.Q.Y.Y.U.` O O M l.z.z.z.h.d.h.h.x.V.=XV.z.j.j.j.h.j.j.j.x.j.j.j.j.",
"x.h.x.j.x.j.x.V.A.M.A.V.x.x.M.x.k.a.R I / ! W F.Q.T.T.T.T.T.T.T.` W W &.R R a.l.z.z.z.z.h.j.j.j.z.M.x.z.j.j.j.z.j.x.j.h.x.j.j.x.",
"x.j.h.h.h.x.x.x.n.V.x.x.x.h.h.x.z.z.z.k.0 O O #.Q.R.R.R.Q.Q.Q.Q.) . O B x.x.x.h.x.h.j.j.j.j.j.j.j.h.x.j.j.x.h.x.j.h.h.j.j.h.j.j.",
"h.y.d.h.j.j.j.j.x.x.x.h.x.x.h.h.z.z.z.k.q 6 6 ` I.J.J.J.J.K.H.J.^ % % C h.h.h.x.j.j.j.x.j.j.x.h.x.j.j.j.j.j.j.j.x.y.d.h.j.x.x.h.",
"y.y.h.x.j.x.x.h.x.x.x.x.h.x.x.x.j.z.z.l.s.u.u.q # @ # # # @ @ # b U s.d.d.h.x.x.x.h.x.j.j.j.j.x.j.j.x.h.j.x.j.j.h.h.y.y.d.j.h.p.",
"t.d.h.j.j.h.j.j.x.x.h.x.j.x.h.h.i.h.z.z.x.h.p.q O O O + O O   O B D d.i.y.g.x.h.j.j.h.j.j.j.j.h.j.j.j.j.j.h.j.g.d.g.h.t.G h.d.t.",
"D d.j.j.x.h.j.j.j.h.d.h.j.x.j.d.H g.j.j.z.z.g.C b M b b b b 0 w U d.t.D g.h.j.j.h.j.j.j.x.j.h.d.h.j.j.x.j.j.h.g.d.G y.D d.d.D Z ",
"y.h.d.d.h.j.j.x.x.j.h.p.h.j.j.x.g.i.h.j.z.z.z.l.l.k.k.l.h.h.d.d.g.y.D d.x.x.x.j.x.j.x.h.h.h.d.h.x.j.j.h.j.x.x.h.x.d.G d.g.F d.p.",
"D y.d.j.j.j.j.h.j.j.h.h.j.j.x.j.g.H g.z.z.z.z.z.z.z.z.z.h.j.h.x.x.h.g.j.j.j.h.j.h.j.j.j.h.d.h.h.j.x.j.x.j.j.j.j.j.h.h.h.d.g.g.D ",
"d.h.x.j.j.x.j.x.j.j.x.j.j.x.j.j.j.g.j.z.z.z.z.z.z.z.z.z.x.h.h.h.x.x.j.h.x.j.x.j.x.j.j.x.j.h.j.j.j.j.j.h.h.x.j.h.x.j.j.j.h.j.j.g."
};
