/* XPM */
static char *cowskt21705674511[] = {
/* columns rows colors chars-per-pixel */
"64 64 234 2 ",
"   c #0D0D17",
".  c #0D0F1A",
"X  c #110F19",
"o  c #0D1117",
"O  c #0E111A",
"+  c #13131C",
"@  c #18141B",
"#  c #0E1320",
"$  c #141523",
"%  c #171727",
"&  c #161924",
"*  c #1A1B24",
"=  c #161B2C",
"-  c #1A1C2C",
";  c #161C30",
":  c #1B1E32",
">  c #231C26",
",  c #1D222D",
"<  c #1D2234",
"1  c #1F2439",
"2  c #22232C",
"3  c #29262F",
"4  c #28362B",
"5  c #222434",
"6  c #292A33",
"7  c #22263B",
"8  c #242A3D",
"9  c #2A2D3D",
"0  c #332E38",
"q  c #2A353A",
"w  c #36363D",
"e  c #423A3C",
"r  c #364C35",
"t  c #3D6221",
"y  c #415139",
"u  c #406623",
"i  c #446C25",
"p  c #477127",
"a  c #487227",
"s  c #4E7F2B",
"d  c #476838",
"f  c #4D723B",
"g  c #54763B",
"h  c #232742",
"j  c #252B43",
"k  c #2A2E43",
"l  c #292E48",
"z  c #2C3245",
"x  c #2D334B",
"c  c #2F344F",
"v  c #323443",
"b  c #393742",
"n  c #3A3B45",
"m  c #32354A",
"M  c #353A4C",
"N  c #3A3D4C",
"B  c #343955",
"V  c #343A54",
"C  c #3B3D53",
"Z  c #453F47",
"A  c #3A404B",
"S  c #3B5347",
"D  c #3B4459",
"F  c #3E4960",
"G  c #474449",
"H  c #424454",
"J  c #4B4B54",
"K  c #41455A",
"L  c #444A5B",
"P  c #4B4B59",
"I  c #4F5251",
"U  c #555759",
"Y  c #566C4A",
"T  c #567945",
"R  c #567253",
"E  c #637B54",
"W  c #474B65",
"Q  c #4D5164",
"!  c #475069",
"~  c #4C546B",
"^  c #535564",
"/  c #585A68",
"(  c #4E5371",
")  c #595E73",
"_  c #615D64",
"`  c #5A6468",
"'  c #537566",
"]  c #5C6276",
"[  c #676569",
"{  c #70746F",
"}  c #636573",
"|  c #686A77",
" . c #65697A",
".. c #6C727B",
"X. c #797478",
"o. c #4E802B",
"O. c #52852D",
"+. c #55892F",
"@. c #578B30",
"#. c #598E31",
"$. c #59863B",
"%. c #5C9233",
"&. c #618D3B",
"*. c #629634",
"=. c #659C37",
"-. c #62953B",
";. c #679D39",
":. c #689B3A",
">. c #689F38",
",. c #6AA13C",
"<. c #5B8844",
"1. c #5D8858",
"2. c #638C49",
"3. c #699C45",
"4. c #679549",
"5. c #6C9C4C",
"6. c #668957",
"7. c #6B9656",
"8. c #729753",
"9. c #759959",
"0. c #6CA143",
"q. c #6FA249",
"w. c #71A544",
"e. c #74A64A",
"r. c #76A94A",
"t. c #6EA052",
"y. c #77A459",
"u. c #598264",
"i. c #6C8768",
"p. c #748B6A",
"a. c #6E9560",
"s. c #779966",
"d. c #77877A",
"f. c #7A9578",
"g. c #7CA36C",
"h. c #85B15B",
"j. c #92877B",
"k. c #859C7C",
"l. c #87B361",
"z. c #8AB469",
"x. c #8CAE75",
"c. c #88AA78",
"v. c #F6E47A",
"b. c #676B82",
"n. c #6D7181",
"m. c #777784",
"M. c #827E84",
"N. c #7A838B",
"B. c #7A888A",
"V. c #86838A",
"C. c #8C9B88",
"Z. c #858896",
"A. c #8B8B94",
"S. c #929091",
"D. c #93939C",
"F. c #9A9899",
"G. c #A99799",
"H. c #89A58A",
"J. c #98B788",
"K. c #97AC93",
"L. c #A9A98C",
"P. c #A5B79B",
"I. c #9A9BA6",
"U. c #9C9BA4",
"Y. c #A19BA3",
"T. c #9BA1A8",
"R. c #A3A4AB",
"E. c #A7A6AB",
"W. c #B6A9AA",
"Q. c #A8B7A6",
"!. c #B0BAA5",
"~. c #A7A8B4",
"^. c #ACABB2",
"/. c #B0A6B0",
"(. c #B2AEB4",
"). c #ADB4B7",
"_. c #B4B3BB",
"`. c #B8B6BC",
"'. c #C2BA9E",
"]. c #C5B7B9",
"[. c #AAC29D",
"{. c #A9C2A6",
"}. c #B4C7AC",
"|. c #AFC4B7",
" X c #BAC7BC",
".X c #D4CEAD",
"XX c #CEDCA1",
"oX c #CCD9AB",
"OX c #C2C9BC",
"+X c #E7DDB3",
"@X c #B9BAC5",
"#X c #BCBCC4",
"$X c #C5BEC4",
"%X c #BCC5C8",
"&X c #C8C7C7",
"*X c #C3C4CB",
"=X c #CDCACE",
"-X c #D4C4C9",
";X c #CAD5C6",
":X c #C7C9D4",
">X c #CCCCD3",
",X c #D3CCD2",
"<X c #C9D5D9",
"1X c #D5D6D6",
"2X c #D4D4DC",
"3X c #DAD5DB",
"4X c #DCDBDE",
"5X c #EBCCCD",
"6X c #E5D9DB",
"7X c #DAE2D7",
"8X c #E1E1DC",
"9X c #D8D5E0",
"0X c #DDDBE2",
"qX c #E2DDE4",
"wX c #E9DDE7",
"eX c #F6DEE2",
"rX c #DBE3E5",
"tX c #DAE6F3",
"yX c #E4E2E4",
"uX c #E6E8E7",
"iX c #E5E5EA",
"pX c #EBE5EB",
"aX c #ECEAEE",
"sX c #FAE7E9",
"dX c #E2EBF3",
"fX c #ECEDF2",
"gX c #F3EDF3",
"hX c #F5EEF7",
"jX c #EFF1F3",
"kX c #F4F2F5",
"lX c #F5F5F9",
"zX c #F8F6F8",
"xX c #FBF5FB",
"cX c #FEFCFE",
/* pixels */
">.,.r.>.>.>.>.>.>.>.>.>.>.>.>.>.7.4.1.u.u.4.,.=.,.,.=.,.=.,.=.=.=.,.,.g.{.<XtXdXdXrX{.y.,.,.>.>.>.>.>.>.>.>.>.>.>.>.>.>.>.>.>.>.",
",.h.XXh.,.,.>.>.>.>.>.>.>.>.5.' D v q h j S <.=.=.,.=.=.,.=.%.=.%.q.).dXlXcXlXcXxXxXlX7X{.,.>.>.>.>.>.>.>.>.>.>.>.>.>.>.>.>.>.>.",
"r.XXv.XXw.>.>.>.>.>.>.>.,.;.u.B k 0 0 > < 5 v <.,.=.,.=.,.>.:.*.3.' n.^.qXhXcXcXxXcXcXcXjX%Xw.,.>.>.>.>.>.>.,.=.=.@.=.>.>.>.>.>.",
",.h.XXh.,.>.>.>.>.>.>.>.%.,.' B v Z e e w k 7 q g ,.>.>.=.>.;.:.R D 9 A  .N.%XkXxXcXcXcXlXlX{.,.>.>.>.>.>.>.=.=.*.p =.=.>.>.>.>.",
">.,.w.,.>.>.>.>.,.=.,.=.%.,.' c 6 > > > 6 v v - , t <.3.3.:.$.r 7 5 7 b C W ) ~.kXcXcXxXcXzX7Xw.>.>.,.,.,.,.,.=.@.%.,.,.>.>.>.>.",
">.>.>.>.>.>.>.>.=.=.=.%.,.,.1.F 5 * % > > > 7 < + $ 6 r r r * % % % 5 h k Z Q  .#XzXcXcXcXcXzX Xy.>.,.,.y.,.,.,.a ,.,.,.>.>.>.>.",
">.>.>.>.>.>.>.>.>.>.=.=.=.,.,.3.S 5 $ @ @ @ $ $ O . + $ $ % - > > 7 h l h c W (  .`.zXcXcXcXcXxXuX[.,.,.w.l.,.,.,.,.,.h.,.>.>.>.",
">.>.>.>.>.>.>.>.>.>.=.,.,.,.,.,.Y 5 % $ @ . + + + O . $ - 1 k z c c B h c Z ( W D ^ `.zXcXcXcXcXcXjX}.0.,.l.,.r.y.,.h.,.>.>.>.>.",
">.=.>.>.>.>.>.>.>.>.>.>.>.>.>.>.<.v * @ + + + +       $ - ; 5 k B B c h W ( ( W B Z b.pXcXcXcXcXcXcXcX%Xr.,.w.z.w.,.,.,.>.>.>.>.",
"=.%.=.>.>.>.>.>.>.>.>.>.>.>.>.>.;.#.f r , + + $ 4 4 O # % % = - h c 7 5 K Z K B c B ( >XcXcXcXcXcXcXcXlX|.,.,.y.,.,.>.>.>.>.>.>.",
"%.=.=.@.,.,.,.>.>.>.>.>.>.>.>.>.,.,.,.-.#.f f $.-.-.r $ % % - ; h c : % 5 h B c k k Z @XcXcXcXcXcXcXcXcX%Xy.,.,.,.>.>.>.=.@.=.>.",
"+.=.%.p =.,.w.,.>.>.>.>.>.>.>.>.,.,.0.,.,.,.=.=.,.>.Y C n 5 ; < h Z l h 9 5 ) W B k m Z.lXcXcXcXcXcXcXlX%Xf.>.,.,.,.>.>.=.p *.>.",
"t %.+.%.,.w.l.l.,.>.>.>.>.>.>.>.,.h.oXJ.J.K.H.1.$.f q 8 H ^ M 8 c B C l : m b.b.W v z V.lXcXcXcXcXcXcXcX:XB.4.=.>.>.>.>.=.%.+.=.",
"u %.p =.w.y.w.,.>.>.>.,.>.>.,.z.{.rXaXkXdX:X| 5 = = - 9 ^ n.] 8 l B C k 9 C W b.C 9 v Y.cXcXcXcXcXcXcXcXtXN.7.,.>.>.>.>.>.=.a *.",
"*.,.=.,.w.,.,.,.0.0.0.,.y.g.|.dXcXcXcXxX:XJ $ + $ < 7 P _.fXI.z j c B C m Z B c 5 7 v _.cXcXcXcXcXcXcXcXjXT.0.>.>.>.>.>.>.>.*.>.",
",.,.w.l.J.r.,.w.z.y.g.{.~.%XjXcXcXcXcX6X/ + # & < 8 z } 9XcX%XD l l 7 : % : h : : < v ).cXcXcXcXcXcXcXcXcX%Xq.>.>.>.>.>.>.>.>.>.",
"=.,.H.%XtXrX|.J.e.J.rX%X*XkXcXcXcXcXkXX.> # = < 1 j M n.2XcX^.H x k 1 $ # = = 1 < = 8 V.kXcXcXcXcXcXcXcXcX;X0.,.,.,.,.,.,.,.,.=.",
",.q.H.:XjXkXfXrX;XuX2X1XcXxXcXcXcXcX*Xw & & < 1 1 9 Q R.>XcXA.M M z 1 , = O & 1 8 = = N _.lXcXcXcXcXcXcXzX}.,.,.,.%.,.w.,.=.,.,.",
",.f.B.Z._.0XlXcXcXaX3XxXxXcXcXlXkXcXA.- % = - 1 7 9 m.*X*XxXM.5 z m 8 1 1 = , k z : $ , ` 2XcXcXcXcXcXcXcX7XH.,.,.,.h.XXh.,.=.,.",
"=.S D I.wXpXiXcXcX7XkXcXcXcXkXF.F.*XJ $ = = < 1 7 z I.3X`.kXU.5 < m z 1 < 1 1 l m 8 * $ 9 D.kXcXcXcXcXcXfX4X%Xg.=.0.XXv.XX,.=.=.",
"<.q m.fXgXY.,XxXkXaXcXcXcXcX*XN q v * = = ; < 1 8 8 I.iX^.aX3X) , < A k < 8 9 x c j = $ * J 1XcXcXcXcX>XD.A.T.g.,.,.h.XXh.,.,.,.",
"T n #XgXD.A.gXcXzXcXcXcXcXkXm.8 - & = < ; < 1 h 8 7 A.aX/.qXxX)., & 8 M 9 8 k l x j - $ * 6 E.cXcXfX@XN.D.:XrXx.>.,.,.,.,.,.=.=.",
"p.F.fXU.P =XcXcXcXcXcXcXcX>XL l 8 : ; < 1 1 1 h 8 , | aX(.=XcXyXU + + z M 7 j 1 j j < $ $ N %XcX1XI.A.@XaXcXcX7X,.,.>.>.>.>.>.>.",
" XaX#XJ ^ 0XcXcXcXcXcXcXzXI.c l h 1 ; 1 7 1 8 8 1 - U aX$X`.xXxXX.& o + v z z 8 8 8 7 - & Q 2X@XZ.T.9XcXcXcXcXxX[.,.>.>.>.>.>.>.",
"%X2X..9 ..uXcXcXcXcXcXcX2X` l h h h < : 1 1 j k 7 = J yX3X(.kXcX).6 +   * M z m z k 7 = - W D.N.`.kXcXcXcXcXcXcX7Xw.=.,.,.=.=.,.",
" X*XH 6 Z.lXcXcXcXcXcXlXA.x j h h h < < 1 1  . .8 = J uXaX(.pXxXpX` @ o + 0 C k x j - = 8 ^ n.*XcXcXcXcXcXcXcXcXzX[.,.=.=.,.>.>.",
"%X^.3 n *XcXaXkXcXcXcX1XQ k k j h h h 1 < D @X@X9 & J uXxX(.=XxXxX_.b @ @ + v N 9 < < 9 L P T.cXcXcXcXcXcXcXcXcXzX7Xw.*.=.>.>.>.",
" X{ * ..kXxX%XjXcXcXcX_.D l l j h h 8 1 <  .dX:XN & H qXcX=XY.pXcXxXI.2 + + - U C - 7 D D ] 2XcXcXcXcXcXcXcXcXcXcXkXJ.,.%.=.>.>.",
").J > (.cXjX`.kXcXcXcXI.M k k h 8 h h : : m.lX@XM , v >XcXaXD./.zXcXiX| [ P G T.m.C C C ! ).zXcXcXcXcXcXcXcXcXcXcXcX;X,.=.>.>.>.",
"V.q 0 &XcXkX3XxXcXcXlXN.m j h 1 < < : = < ] fX~.z 5 0 &XcXxX$XM.&XxXxX0XiX0X*XaXY.P K P #XjXcXcXcXcXcXcXcXcXcXcXcXcXkXJ.>.>.>.>.",
"` 2 4 *XcXcXcXcXcXcX<X^ k < = = = % % % 5 ^ iX*XA 2 3 A.kXcXaXF.V.&XlXcXcXcXcXcX2X} W m.rXcXcXcXcXcXcXcXcXcXcXcXcXcXcXoX,.,.>.>.",
"i.3 @ R.cXcXcXcXcXcXT.v 8 & O O # # # . H ).fXfXD.N 2 n &XcXcXqXS.X.F.4XcXcXcXcXzX/.| @XiXcXcXcXcXcXcXcXcXcXcXcXcXcXcXzXOXh.>.>.",
"p.q * E.cXcXxXlXcXlXm.2 ; # . o o o o o J iXcXcXjXV.5 w _.cXcXcXqXM.Z _ (.hXcXxXcX8XA.0XcXcXcXcXcXcXcXcXcXxXcXcXcXxXxXxXcX8Xx.=.",
"8.I 0 _.cXcXqX,XcXlX{ % $ $ % $ O   o O n >XcXcXcX$XG v A.lXcXxXqXA.U Z _ Y.&XkXcXxXE.,XcXcXcXcXcXcXcXcXcXcXxXxXgXkXxXxXxXxX;X5.",
",.2.` R.kXcXkX3XkXkXY.- $ : 8 , O o o * 9 D.cXcXxXlX/.U X.pXxXxX$XM.[ y y { { S.,XxX=X(.xXcXcXcXcXcXcXcXcXxXxXeXW.].pXxXcXcXwXk.",
",.,.3.s.1XcXxXxX$XY.A.2 % 5 , * o O * 8 v U.xXcXcXxXlX0XqXlXxXxX,XM.[ _ e I I e U F.&XY.,XcXcXcXcXcXcXxXxXxXsX$XS.Y./.$XpXgX,XG.",
"=.+.%.;.;XlXxXcX(.0 3 $ + * + O o + < v ..iXxXcXxXcXxXcXcXxXxXxX.Xj.2.E _ e G g g g 6.p.c.kXcXcXcXcXcXxXcXcX5X$XwXwX3X/.$X-XX.[ ",
",.=.+.#.{.iX%X1XR.> @ + O O + * $ , v A.iXxXcXxXcXcXcXcXcXcXxXpXC.:.:.*.L.j.[ h.=.,.=.#.4.8XzXcXcXcXcXcXcXcX-Xj.eXhXxX2X`.[ e g ",
",.=.t +.y. Xa.y.K.n $ + + H A.R.} / @XfXcXcXxXcXcXcXxXcXcXxXxXOX2.>.>.j.+X+X'.2.=.=.=.*.T 1XcXcXcXcXcXcXcXzX6XG.5XeXeXeXX.0 d *.",
"+.%.t s 3.`.f.>.y.d.6 2 9 A.lXxXqX0XxXxXxXxXcXcXxXxXcXcXxXxXgXF.:.>.*.h.'.+XL.&.%.O.%.=.%.].cXcXcXcXcXcXcXzXsX5X5XeX5XM.Z y &.,.",
"t +.<.R 7.@X~.%.0.J.N.A [ 2XcXcXxXxXxXxXxXxXcXxXxXxXxXxXcXxX,Xs.>.>.>.:.h.k.3.>.*.i s +.*.J.kXcXcXcXcXcXxXzXxXsXsXhX'.I Z T ,.,.",
"t T I ~ B.%X<Xy.h.h.D.H T.dXxXxXxXcXxXcXcXxXxXxXxXxXxXxXcXzXOXq.>.>.>.>.>.>.:.:.>.%.u u +.,.}.zXcXcXcXcXcXxXxXzXwXG.X.Y E :.>.>.",
"4.' m x Q I.9XU.5.y.i.n.4X^.=XxXcXxXxXxXcXcXxXxXxXcXcXcXxXgXQ.:.>.>.>.>.>.>.>.>.>.>.*.*.*.,.,.'.8XjXzXcXxXxXxXsX-Xi.:.=.*.>.>.>.",
"4.` M 8 9 | R.I.d.e.7.I.kX3XuXaXlXxXxXcXxXxXcXcXcXcXxXxXxXyXx.=.>.>.>.>.>.>.>.>.>.>.>.>.,.,.,.>.r.z.J.OX7X1X;XL.c.,.:.:.:.>.>.>.",
"4.` D k 3 G [ ..] i.i.@XcXxXzX&XP.!.}. XjXcXxXxXcXcXxXzXsX;X5.#.@.=.>.>.>.>.>.>.>.>.>.>.>.>.>.>.>.>.>.>.>.*.*.*.=.>.>.>.>.>.>.>.",
"%.i.` N z m K ~ ] ) ] N.iXxXgXQ.%.%.,.,.J.aXxXxXxXxXxXgX6X!.#.o.i *.>.>.>.>.>.>.>.>.>.>.>.>.>.>.>.>.>.>.>.=.*.*.>.>.>.>.>.>.>.>.",
",.,.a.] L H W ~ ] b.) ^ I.fXzX{.%.,.,.=.=.x.7XzXzXxXkXwX1Xx.+.i %.:.>.>.>.>.>.>.>.>.>.>.>.>.>.=.>.>.>.>.>.>.=.>.>.>.>.>.>.>.>.>.",
",.,.:.p.d.` Q ~ ( ) ) Q ^ >XzX4XJ.,.=.,.,.=.y.P.}.OXsXhXyXs.#.*.=.,.>.>.>.=.>.>.>.>.>.>.>.>.>.*.;.>.>.>.>.>.>.>.>.>.>.>.>.>.>.>.",
",.5.R.T.f.D.b.~ ! ~ ~ L H #XcXfX#X5.;.=.,.,.>.>.>.x.gXxX8Xy.,.>.+.=.=.=.+.%.=.>.>.>.>.>.>.=.%.=.,.>.>.>.>.>.>.>.>.>.>.>.>.>.>.>.",
"=.y.%XrXD.k.B.| Q ! D A v m.0XiXD.T =.,.,.=.=.,.>.z.kXxX3Xk.,.*.p +.=.%.O.%.=.>.>.>.>.>.>.%.=.>.=.,.>.>.>.>.>.>.=.=.>.>.>.>.>.>.",
",.0.Q.@Xi.=.;.a...` W V k n _.(.N < r %.=.,.=.=.,.y.qXaXOX9.,.>.%.+.=.o.i *.>.>.>.>.>.>.>.=.>.>.,.=.>.=.#.=.=.=.#.%.>.>.>.>.>.>.",
"%.=.0.7.%.=.,.,.a.B.] L v A >X(.q , 1 r $.,.,.=.>.>.Q.uXP.>.=.=.*.a %.a %.=.>.>.>.>.>.>.>.>.>.>.,.r.,.=.#.#.=.#.+.#.=.>.>.>.>.>.",
",.,.=.,.=.,.,.,.,.g.A.n.H } qX9X/ , = ; q T ,.0.>.=.K.kX{.:.#.+.=.=.=.=.>.>.>.>.>.>.>.>.>.=.%.>.h.XXh.,.>.#.*.#.+.=.>.>.>.>.>.>.",
",.,.=.=.w.r.w.,.,.l.x.C.m.} =XqXV., = , = 1 t %.>.*.F.hX;X+.s i *.,.,.=.>.>.>.>.>.>.>.>.=.%.=.,.XXv.XX,.=.%.=.%.=.>.>.>.>.>.>.>.",
",.=.,.,.,.,.h.r.l.w.e.e.C.F.,XqXE.v ; ; ; ; < r %.>.P.hX2X7.u %.=.,.,.=.>.>.>.>.>.>.>.=.%.=.>.>.h.XXh.,.,.=.=.=.,.>.>.>.>.>.>.>.",
"=.,.=.,.,.,.w.l.z.r.l.h.0.k.].].C.F 1 1 1 < ; < q $.K.fXqXQ.*.=.=.=.,.,.>.>.>.>.>.>.>.>.>.>.>.>.,.w.,.,.,.>.>.>.>.>.>.>.>.>.>.>.",
">.>.>.>.>.>.>.,.w.h.,.,.,.=.s.G.V.J k j 8 7 1 1 1 6 ^ >XpX5Xx.#.%.=.,.,.*.=.,.,.>.>.>.>.>.>.>.>.>.>.>.>.>.>.>.>.>.=.=.>.>.>.>.>.",
"=.@.%.=.>.>.>.>.,.,.,.>.,.,.=.5.k.| C m z x l k j 8 v Y.wX].C.5.@.*.,.,.=.,.=.=.>.>.>.>.>.>.>.>.>.>.>.>.>.>.>.>.=.%.%.=.>.>.>.=.",
"+.@.=.>.>.>.>.>.,.,.=.>.=.=.,.,.,.f.n.L B V V V V c M ^ W.W.X.d.g +.,.=.@.>.,.=.>.>.>.>.>.>.>.>.>.>.>.>.>.>.>.>.=.=.+.+.*.=.>.#.",
"+.@.>.>.>.>.>.>.,.,.*.,.,.,.,.*.+.7.k.m.! B D D D D K H / m. .] { f %.+.%.=.>.>.>.>.>.>.>.>.>.=.>.>.>.>.>.>.>.=.%.=.=.o.p =.%.+.",
"i %.>.>.>.>.>.>.>.>.%.=.=.>.>.*.{ %X`.U.I.b.~ W F F F F K W W ] B.3.O.a %.>.>.>.>.>.>.>.>.>.=.%.>.>.>.>.>.>.=.%.*.a +.i %.%.i t ",
"@.=.%.%.=.>.>.>.>.>.=.%.=.>.=.,.I.iXiXU.C.f.B...]  .] ] |  .n.Z.f.@.i %.>.>.>.>.>.>.>.>.>.=.%.=.>.>.>.>.>.>.>.=.>.%.a %.*.a #.#.",
"i +.=.=.>.>.>.>.>.>.>.=.>.>.=.,.C.>XiXF.-.=.=.2.E i.f.f.f.p.7.=.,.=.=.=.>.>.>.>.>.>.>.>.=.%.*.>.>.>.>.>.>.>.>.>.>.>.=.=.%.*.*.p ",
"%.=.>.>.>.>.>.>.>.>.>.>.>.>.>.=.7.T.E.p.=.;.=.,.,.=.,.,.,.=.=.=.,.,.>.>.>.>.>.>.>.>.>.>.>.=.>.>.>.>.>.>.>.>.>.>.>.>.>.>.=.>.=.*."
};
