/* XPM */
static char *crate11705581586[] = {
/* columns rows colors chars-per-pixel */
"64 64 26 1 ",
"  c #321C13",
". c #372016",
"X c #392117",
"o c #3C2419",
"O c #41271C",
"+ c #452A1E",
"@ c #482C1F",
"# c #4A2E20",
"$ c #4E3123",
"% c #523324",
"& c #573827",
"* c #583827",
"= c #563728",
"- c #563828",
"; c #5B3B29",
": c #603F2E",
"> c #5F402E",
", c #63412F",
"< c #634231",
"1 c #694634",
"2 c #6C4A37",
"3 c #6E4B39",
"4 c #714D3A",
"5 c #76523E",
"6 c #78533F",
"7 c #7C5642",
/* pixels */
";;;477777777777777777777777777777777777777777777777777777777<ooo",
";;;377777777777777777777777777777777777777777777777777777777<ooo",
";;;377777777777777777777777777777777777777777777777777777777<ooo",
"3231<<<<<<,;:;<1,,,:,,1,,12211112111:1:1::::1::11:1211,:<<<<$.  ",
"7771%%%#%%#O#O#$%%#%%#%%%:;;;;;;;;;%%%%%%%%##%%%*%***%%$%$$%+   ",
"777,%%$%%%#OO#$%%%%%%%%%%:;;;;;;;;;*%%%%%%%%%%%#%%*:;*%%%%%%+   ",
"777,%%%%%%##++$%%%%%%%*%%;;;;;;*;;**%%%#%%%%%%%%%%***&%%%$$%+   ",
"777,$%%&**%O##$%%%*****;%%%**%%***%%%%%***%%%%%%%%:*;**;&%%$+   ",
"777,%%%;;;%+++$%%&;;;;;;*%%$%%%$%%%%%%%*;;;%%%%%%%*;:;***%%%O   ",
"777,%%%*;:%++@$%%%;:*:;;*%%%%%%$%%%%%%%*;;*%%*%%%&*;*;;:*%%%+   ",
"7771%**;;*%OO@@@@@#######+O++++++OOOO+@###@@+O+++#,11:**;%%$O   ",
"7771;*;;;:$oo oooX           .                   o6761*:;%%%+   ",
"7771**:;*:$ooOooXX                               o6671:**%%%O   ",
"7771*:*;*;$oo oooo. .....    .                   O6671*:*%$%+   ",
"7771**:*%%@oO @$#%%&%152,+OOo++oOOOOOOOOOOOOOOOOO$6771*:*%%%+   ",
"7771:*;%%%+ooO$%%&;;;3772#+++++@++@+@+@O+@++@+++@%677::*:%%%O   ",
"7772;;;*%%+.O.%%%%*;;4773@++++o#++++++++++++++#o+$6771*;*&%$+   ",
"7771;;;%%%@O O@%%%**;1662%%%$#@####+@##o@#@#####@%6771**&%%%O   ",
"7771;;;*%%O   @%%%%#**;;16661--->>>$>>$>>-------;>677<%%%%%%+   ",
"7771;;;%%%+   %%%%%%%*;;17762>->>$$>>%>>->->->>-;>777<$%%%$%+   ",
"7771;;;*%%O   ##%%%*%*;;,6662;;*>>>>>>%>>>->>-->;>577>$%%%%%O   ",
"7771;;**%%+   OOOO*******>,,1442$$$#%-%%$$$$-%%-%;777>%%%%$%+   ",
"7771;;**%%O      O*;;%%#%$%%,676>%$$%%%%%%$%%%$%$;777>$$%$%%+   ",
"7771;;*%%%O      .*;**%%%%%%1776%$$$%%$%$%%$%%%$$;777<%%%%%%O   ",
"7772;;;*%%O    . O#%%%&*%%%%;442>>>$$$$$$$$$$$$$$&677,$%%%%*+   ",
"7771;;;*%%+   O@+O   $*;*%%%%%**477>++#o+++++++++%677:$%&&;;@   ",
"7771;;*%%%+   O+OO   $;;*%$%%%%*577>+++++++++++++$677,$%%;;;@   ",
"7771;;*%%%+   O@@O   %;;*$%%%%%*577>O#o#+++O++++O%677:%$%;;:@   ",
"7771***%%%@   #%%#@++@++#*******<1<<>>>-$$$$%%%%%*677,%%%***$   ",
"777:%%%%%%O   *;***>*O  O*;;**;;%%$1777>>-->;--;*:777,%%*:*:@   ",
"7771%%%%%%O  X%*;;;*>o  o*;;;;;;%%$1777>--->>---;<677:%%%*:;@   ",
"7771#%%%%%+   %*;***&o..O%***;;*-%$>777<>>>---;;*;677:%*%**:@   ",
"777,%%%***#  .$%%%%%%$$$#...+-$---;*--*3771%%%%%%;777:%%%%%=#   ",
"777,%%%;;>#  .#$%%%$%%$%#   O$%$;;*-%%%4772$%%%%%=777:%%%%%#O   ",
"7761%%%*;>#   #%%%%%%$$%#   O$$-;;;-$%&4773$%%#%%=777:%%$%$%#   ",
"776:%%%***#   +###$######XoooOO+---%%%&;1<1111%##$7771&==%%%o   ",
"777,%%%*,;$   o+#O++++++O++#o   #%%%%%$%%$:777%+##777:;;*%%%#   ",
"777,%%%**;#  .++O#++++++++OOo   #$%%%%%%%$:777%OO$777:;;*%%%O   ",
"777,%%%*;*#   +@+O#O+#++++##o  .$%%%%%%$%%:775&@##7771;;;%%%O   ",
"7771***%**@  .#%-=---$-----$-$$#oXX+$%%&*;;;;;1327777<;;*%###   ",
"7771:*;*%%O   %>--->-->--;;;-;>-   O%%%*;;*%%%47777771;;;%%%O   ",
"7772:**%%%+   %;->->->>-;;;;-;-$X  O%%%*;;*%%%57777771;;*%%%+   ",
"7771****&&+  .%*------%-====---=OXoO@++&&&*&*%12247771;;*==%+   ",
"777,%$**;;#   #%$%%$%%$$%%%%=$$=%%%O   @%%&;;;*%*;7771;;:**:@   ",
"777,$%%*;>#   #$%%$$$%%%%%%%%%%%%%$O   #%%*;;;%%%*6771;;:**:#   ",
"777,%%%*;;#   #$%$$$%$%$$##%%%##%$%O   @$$%;;;%%%*6771;;**:*@   ",
"7771***:;;$   +#####+###########@@@+OOOo oO%%%%%%:6771;;***:#   ",
"7772;;**;>#   O+++++++++o#OO#OO#+++++++   o%%%%%%*6771;**:::#   ",
"7772:***;;#   +O+++++++O+OO@+++++++++++   o%%%%%#*6771;;;;**#   ",
"7771**:*;;#   #%%%%%$$$%%%%%%%%%$$%%$%%+oO@;*;;;*:7771**;::*#   ",
"777,%%%:;,%  X176667666666566666756666665566666666777,%%%;;:@   ",
"777,$%$*;;#  X277777777777777777777776777677777777777:%%%;:;#   ",
"777,%%%*;;@  .177777777777777777777777777777677677777,#%%***#   ",
"777,%%%%**#OOO:,,;::,1111:::,:::<<<<1,11111,,,,,::,11;%%%***@   ",
"777,%%$%%%$OO@#%%%%#%*;;*%%$%%%$%$$&;;;;;;&%$$$%*%:**&%%*%%%O   ",
"7771%%%%$%$O@@$%%%%*%*;;*%%%%%%%%%$&:;;;;;&%%%%%%%**;&%$%%%%O   ",
"777,%#%%%%$+++%%%%%*%*,;**%*%%%%%$%&&&*****%%%%*%%;&****%%%%O   ",
"777:%%%$%%#@++$%%%**;*;;;;*;:;:;%%$%%%%%%%%%%%*;>>->;**;*%%%+   ",
"777:%%%%$%@+++$%%%;;;;;;;;;;*:;*%%%%%%%%%$%%%%*;***;;;:**%%%O   ",
"777:%%%%%%#@+@#%**;;;;;;;;**:*:*%%%%%%%%%%%%%%*;;>;;;;*;*%%%+   ",
",::%O+++O+OoOoO+++@@########@@$@++O+OO++O++O+++##@##@@@$@+O+O   ",
"OOO                                                             ",
"OX                                                              ",
"XXOO                                                            "
};
