/* XPM */
static char *result[] = {
/* columns rows colors chars-per-pixel */
"64 64 17 1 ",
"  c #322C26",
". c #4A3428",
"X c #573D2F",
"o c #583D2E",
"O c #5E4232",
"+ c #5E4233",
"@ c #614333",
"# c #614334",
"$ c #634535",
"% c #644535",
"& c #654636",
"* c #654736",
"= c #64453C",
"- c #674838",
"; c #684938",
": c #464646",
"> c #5B5B5B",
/* pixels */
"................................................................",
"................................................................",
";;-;;;;;;;;;X.......;;;;................;;;;........;;;;;;;;....",
";;;;;;;;;;;;;;;;;;;;;;;;;;;;;;;;;;;;;;;;;;;;;;;;;;;;;;;;;;;;;;;;",
";;;;@@@@@@@@;;;;;;;;@@@%;;;;;;;;;;;;;;;;;;;;;;;;;;;;@@@@@@@@;;;;",
";;;;@@@@@@@@;;;;;;;;@@@@;;;;;;;;;;;;;;;;@@@@;;;;;;;;@@@@@@@@;;;;",
";;;;@@oooooo@@@@@@@@oooo@@@@;;;;@@@@@@@@oooo@@@@@@@@oooooo@@;;;;",
";;;;@@oooooo@@@@@@@@oooo@@@@;;;;@@@@@@@@oooo@@@@@@@@oooooo@@;;;;",
";;;;;;@@oo......oooooooooooo@@@@oooooooooooooooooooooooo@@;;;;;;",
";;;;;;@@oo......oooooooooooo@@@@oooooooooooooooooooooooo@@;;;;;;",
";;;;;;@@oo..    ..====oooooooooooo====oooo====oooo....oo@@;;;;;;",
";;;;;;@@oo..    ..====oooooooooooo====oooo====oooo....oo@@;;;&;;",
";;;;@@oo..  >>  ..====oooo....oooo====oooo====oooo....oooo@@;;;;",
";;&;@@oo..  >>  ..====oooo....oooo====oooo====oooo....oooo@@;;;;",
";;;;@@oo..    ..oooooooooo....oooooooooooooooooooooooooooo@@;;;;",
";;;;@@oo..    ..oooooooooo....oooooooooooooooooooooooooooo@@;;;;",
";;;;@@oooo....oooooooooooooooooooooooooooooooooooooo====oo@@;;;;",
";;;;@@oooo....oooooooooooooooooooooooooooooooooooooo====oo@@;;;;",
";;;;@@oo====oooooooooooooo====oooooooooooooooooooooo====oo@@;;;;",
";;;;@@oo====oooooooooooooo====oooooooooooooooooooooo====oo@@;;;;",
";;;;;;@@oooooooooooo....oo====oooo....oo....oooooooooooo@@;;;;;;",
";;;;;;@@oooooooooooo....oo====oooo....oo....oooooooooooo@@;;;;;;",
";;;;;;@@oooooooooooo....oooooooooo....oo....oooooooooooo@@;;;;;;",
";;$;;;@@oooooooooooo....oooooooooo....oo....oooooooooooo@@;;;;;;",
";;;;;;@@oooooooooooooooooooo....oooooooooooooooooooooooo@@;;;;;;",
";;;;;;@@oooooooooooooooooooo....oooooooooooooooooooooooo@@;;;;;;",
";;;;;*;;@@oo====oo====oooooo....oooo====oo====..==oooo@@;;;;;;;;",
";;;;;;;;@@oo====oo====oooooo....oooo====oo====..==oooo@@;;;;;;;;",
";;;;;;;;@@oo====oo====oooooo......oo====oo====      ..@@;;;;;;;;",
";;;;;;;;@@oo====oo====oooooo......oo====oo====      ..@@;;;;;;;;",
";;;;;;@@oooooooooooooooooooo..    ..oooooooo..  ::::  ..@@;;;;;;",
";;;;;;@@oooooooooooooooooooo..    ..oooooooo..  ::::  ..@@;;;;;;",
";;;;;;@@oo....oooooooooooo..  >>  ..oooooooo..  ::>>  ..@@;;;;;;",
";;;;;;@@oo....oooooooooooo..  >>  ..oooooooo..  ::>>  ..@@;;;;;;",
";;;;;;@@oo....oooooooooooo..    ..oooooooooo..        ..@@;;;;;;",
";;;;;;@@oo....oooooooooooo..    ..oooooooooo..        ..@@;;;;;;",
";;$;;;@@oooooooo....oooooooo....oooooooooooo......    oo@@;;;;;;",
";;;;;;@@oooooooo....oooooooo....oooooooooooo......    oo@@;;;;;;",
";;;;;;;;@@oooooo....oooooooooooooooooooooooo....oooo..@@;;;;;;;;",
";;;;;;;;@@oooooo....oooooooooooooooooooooooo....oooo..@@;;;;;;;;",
";;;;;;@@oooooooooooo....oooooooooo....oo....oooooooooooo@@;;;;;;",
";;;;;;@@oooooooooooo....oooooooooo....oo....oooooooooooo@@;;;;;;",
";;;;;;@@oooooooooooo....oo====oooo....oo....oooooooooooo@@;;;;;;",
";;;;;;@@oooooooooooo....oo====oooo....oo....oooooooooooo@@;;;;;;",
";;;;@@oo====oooooooooooooo====oooooooooooooooooooooo====oo@@;;;;",
";;;;@@oo====oooooooooooooo====oooooooooooooooooooooo====oo@@;;;;",
";;;;@@oo====oooooooooooooooooooooooooooooooooooooooo====oo@@;;;;",
";;;;@@oo====oooooooooooooooooooooooooooooooooooooooo====oo@@;;;;",
";;;;@@oooooooooooooooooooo....oooooooooooooooooooooooooooo@@;;;;",
";;;;@@oooooooooooooooooooo....oooooooooooooooooooooooooooo@@;;;;",
";;;;@@oooo....oooo====oooo....oooo====oooo====oooo....oooo@@;;;;",
";;;;@@oooo....oooo====oooo....oooo====oooo====oooo....oooo@@;;;;",
";;#;;;@@oo....oooo====oooooooooooo====oooo====oooo....oo@@;;;;;;",
";;;;;;@@oo....oooo====oooooooooooo====oooo====oooo....oo@@;;;;;;",
";;;;;;@@oooooooooooooooooooo@@@@oooooooooooooooooooooooo@@;;;;;;",
";;;;;;@@oooooooooooooooooooo@@@@oooooooooooooooooooooooo@@;;;;;;",
";;;;%@oooooo@@@@@@@@oooo@@@@;;;;@@@@@@@@oooo@@@@@@@@oooooo@@;;;;",
";;;;@@oooooo@@@@@@@@oooo@@@@;;;;%%@@@@@@oooo@@@@@@@@oooooo@@;;;;",
";;;;@@@@@@@@;;;;;;;;@@@@;;;;;;;;;;;;;;;;@@@@;;;;;;;;@@@@@@@@;;;;",
";;;;@@@@@@@@;;;;;;;;;@@@;;;;;;;;;;;;;;;;@@@@;;;;;;;;@@@@@@@@;;;;",
";;;;;;;;;;;;;;;;;;;;;;;;*;;;;;;;;;;;;;;;;;;;+;;;;;;;;;;;;;;;;;;;",
";;;;;;..;;;;;;......;;;;;;;;;;;;;;;;;;;;;;;;;;O....;;;;;;;;;;;;;",
"................................................................",
"................................................................"
};
