/* XPM */
static char *grass31705580394[] = {
/* columns rows colors chars-per-pixel */
"64 64 173 2 ",
"   c #689F38",
".  c #6AA03A",
"X  c #77A94B",
"o  c #669D37",
"O  c #679E38",
"+  c #86B159",
"@  c #CDDCA1",
"#  c #69A03A",
"$  c #5D9333",
"%  c #639935",
"&  c #669E37",
"*  c #F6E47A",
"=  c #CEDCA1",
"-  c #75A749",
";  c #679E37",
":  c #619634",
">  c #5C9232",
",  c #649B36",
"<  c #5C9333",
"1  c #659C37",
"2  c #588C30",
"3  c #86B25A",
"4  c #659C36",
"5  c #639735",
"6  c #497328",
"7  c #477127",
"8  c #639835",
"9  c #5B9132",
"0  c #588E31",
"q  c #568A2F",
"w  c #699F39",
"e  c #6CA23E",
"r  c #689F39",
"t  c #578B30",
"y  c #609534",
"u  c #619635",
"i  c #598F31",
"p  c #599031",
"a  c #4E802B",
"s  c #456E26",
"d  c #83B05C",
"f  c #70A443",
"g  c #69A039",
"h  c #629735",
"j  c #629635",
"k  c #639A36",
"l  c #639936",
"z  c #54882E",
"x  c #446D25",
"c  c #5E9033",
"v  c #689E38",
"b  c #71A545",
"n  c #87B361",
"m  c #6DA23F",
"M  c #679A3B",
"N  c #71A544",
"B  c #619534",
"V  c #487127",
"C  c #6DA23E",
"Z  c #86B360",
"A  c #6EA33F",
"S  c #83B05B",
"D  c #82B05B",
"F  c #68A038",
"G  c #679D37",
"H  c #649A36",
"J  c #6CA13D",
"K  c #6EA340",
"L  c #456F26",
"P  c #52862D",
"I  c #679F37",
"U  c #689F37",
"Y  c #609434",
"T  c #55892F",
"R  c #629935",
"E  c #51832C",
"W  c #6CA23D",
"Q  c #487227",
"!  c #5D9032",
"~  c #5E9032",
"^  c #3E6322",
"/  c #5F9333",
"(  c #71A543",
")  c #659B37",
"_  c #406523",
"`  c #5D8F32",
"'  c #639836",
"]  c #6CA13E",
"[  c #86B260",
"{  c #5A9031",
"}  c #578B2F",
"|  c #588E30",
" . c #4B7529",
".. c #54862E",
"X. c #669C37",
"o. c #406723",
"O. c #55882E",
"+. c #477027",
"@. c #5E9333",
"#. c #426A24",
"$. c #51832D",
"%. c #659B36",
"&. c #5B9232",
"*. c #669E36",
"=. c #75A748",
"-. c #6BA13C",
";. c #6EA242",
":. c #87B362",
">. c #5D9136",
",. c #81AE5B",
"<. c #72A545",
"1. c #456E25",
"2. c #669D38",
"3. c #6BA03D",
"4. c #598D32",
"5. c #49712B",
"6. c #5E9134",
"7. c #72A448",
"8. c #7DA958",
"9. c #84B15D",
"0. c #679D38",
"q. c #53872E",
"w. c #578D30",
"e. c #5E9233",
"r. c #416824",
"t. c #50822C",
"y. c #69A038",
"u. c #406823",
"i. c #5C8F32",
"p. c #446E25",
"a. c #51822C",
"s. c #5A9032",
"d. c #426924",
"f. c #52832D",
"g. c #3B6020",
"h. c #679B3B",
"j. c #669C38",
"k. c #4E7F2B",
"l. c #3D6221",
"z. c #75A84A",
"x. c #83B15B",
"c. c #5E9133",
"v. c #83B15D",
"b. c #558B2F",
"n. c #6EA341",
"m. c #75A849",
"M. c #5D9332",
"N. c #689E39",
"B. c #6AA03B",
"V. c #74A748",
"C. c #53852D",
"Z. c #639B35",
"A. c #76A84A",
"S. c #73A646",
"D. c #88B362",
"F. c #8BB667",
"G. c #86B361",
"H. c #456C25",
"J. c #83B15C",
"K. c #51852D",
"L. c #467026",
"P. c #53862D",
"I. c #436B25",
"U. c #5D9433",
"Y. c #5F9434",
"T. c #497227",
"R. c #588930",
"E. c #466F26",
"W. c #5C8E32",
"Q. c #5C8D32",
"!. c #446C25",
"~. c #466E26",
"^. c white",
/* pixels */
"  . X .                                                     o O o                                                               ",
". + @ + #                                   o             o $ % $ o                                               &             ",
"X @ * = - ;                         o   O : > o             , < ,                                               1 2 1           ",
". + = 3 #               o         o $ 4 5 6 :                 o           o       o o                           : 7 5           ",
"  # - #               , $ o         , $ 1 8 1                           o 9 ,   , 0 q 1               w e r   1 t y O           ",
"    ;               o $ ,           o o O u > o                         o i p , i a s 8               e d f g h 7 8 g e w       ",
"                      o           o > j h 6 :                             k q l z x c v               r b n m O M r N d e       ",
"                                    B 7 j 8 O                             5 V y 9 B o       o o         C Z A f S N D N r       ",
"  o                                 1 2 1 F                               O 8 G ; 1 2 H   , i i o       w J K n b # e r         ",
", $ o ;                               &                                         F 5 L q , i P 0 o         I m Z C U       &     ",
"p , 1 2 1                           ;                       o                     O Y T R E x :             w W w       1 2 1   ",
"z 1 u 7 h g m m w                 # - #                   , $ o     o             F 8 Q ! 7 ~ v                         5 7 :   ",
"^ / t y v ( n Z W               # 3 = 3 #               o $ ,     , $ o             O 8 o 8 O                           O y t ) ",
"_ ` Q h e d b C r             ; - = * = - ;               o o   o $ ,                                   o               F 8 Q j ",
"5 o ' ] K m     m m w           # 3 = 3 #           o     , $ o   o                                   o $ ,               O 8 ; ",
"  w ( n [ J   f n Z W             # - #           , $ o o $ ,       o             o o                   , $ o                   ",
"  e d b C r e d b C w               ;           o $ ,     o       , $ o     o o o 9 { o                   o           ;         ",
"  w e r     w e r                                 o       o     o $ ,     o 9 i , k } H     o                       # - #       ",
"                                                        , $ o     o         , | q Y  ...X., 9 o                   # 3 = 3 #     ",
"                                                      o $ ,                   Y o.O.` +.@.q 0 o                 ; - = * = - ;   ",
"                        o     o         o               o                   F h #.T 1 / $.s :                     # 3 = 3 #     ",
"                      o $ , o $ ,     , $ o     w e r                         O 8 X.o 2 s c v                       # - #       ",
"        o O o           , < , , 9 o %.< ,       e d N r r e w                         1 5 O                           ;         ",
"      o $ R $ o           , $ , &.H 9 ,         r N d C f d e                                                                   ",
"        , < ,               o O o X.&.o           r J m d N r                     ;                                             ",
"          o                         o             w W # e r                     # - #                                 o         ",
"                                                  e d f                       # 3 = 3 #                             o $ ,       ",
"    o o                                           r b n m                   *.=.= * = - ;           w e r             , $ o     ",
"  o &.9 , o                                         C Z m                 # =.-.+ = 3 #             e d N r r e w       o       ",
"X.1 , , 9 { o                                       w W w     &         # 3 = + -.=.#               r N d C f d e I             ",
"{ i p , k } H     o   m m w             o O o               1 2 1     ; - = * = =.*.                  r J m d N g e w           ",
"o , | q Y  ...X., &.;.:.Z W           o $ R $ o             5 7 :       # 3 = 3 #                     w W # e g N d e           ",
"    Y o.O.` +.@.q >.,.<.m w             , < ,               O y t 1       # - #                       e d f   e d N r           ",
"  F h #.T 4 / E 1.j e 2.o                 o                 F 8 V 5         ;                         r b n m r e r             ",
"    O 8 2.3.4.5.6.  o 9 p ,                                   O 8 O                                     C Z m                   ",
"  o o   C D 7.8.J o   k z 0 o   o                                                   o o o               w W w       o           ",
"o 9 p , r N 9.N 0.$ 1 j o.q.o , &.o                                               o 9 w.p ,                       o $ ,         ",
"  k z 0 o r 3.    H 2 e.r.t.H i z 1             o     o                             , | P i o   o o o               , $ o     o ",
"; j o.q.o , 9 o y.j u.z i.+.@.E s 8           o $ , o $ ,                       o o o : p.a.1 %.i z s.o               o     o > ",
"q e.r.t.H i z 1 F j d.T o B f.x c O             , $ o , $ o                   o s.z i , ~ +.B i a x :                         o ",
"g.O.i.+.@.E 1.' C r h.j.  8 +.~               o   o     o                       : p.k.T l 8 1 q s c v                 o         ",
"l.T o B f.x ! J D z.x.e   O 8 O             o $ ,                               v c.r.u.2 ;   1 8 O                 o $ ,       ",
"h 1   8 +.~   w N v.N r                       , $ o                               v h j 1                             , $ o     ",
"F     O 8 O     r e r                           o     o       o o                   F F                   o O o         o       ",
"                              o O o                 o 9 ,   , 0 q 1                                     o $ R $ o               ",
"                            o $ R $ o               o i p , i a s 8                                       , < ,                 ",
"      &                       , < ,                   k q l z x c v                           o             o                   ",
"    1 2 1             ;         o                     5 V y 9 B o       o o                 , $ o                               ",
"    5 7 :           # - #                             O 8 G ; 1 2 H   , i i o             , < ,                                 ",
"    O y t 1       # 3 = 3 #                                 F 5 L q , i P 0 o           o $ ,           o       o o             ",
"    F 8 V 5     ; - = * = =.*.                                O Y T R E x :               o       ;   o 9 ,   , i i o           ",
"      O 8 ;       g + = + -.=.#         o           &       o ; 8 Q ! 7 ~ v                 o O # - . o i i , i b.i o           ",
"        g e r   r C n.m.-.+ = 3 #     o $ ,       1 2 H   , 0 q %.8 o 8 O                 , M.N.3 = 3 # H i k w.i ,             ",
"        e d N w f n [ B.V.= * = - ;     , $ o     5 s C.H i a s 8 y.                    , < Z.- = * = m.4 &., 9 ,               ",
"        r N d A.:.S.<.K B.3 = 3 #       o o       v ` d.Y z x c v                     o $ ,   # 3 = 3 #   o O o                 ",
"            f D.F.- G.Z J g - #       o $ ,       F h H.Y 9 B 1 o                       o       # - #                           ",
"  o o       r C N J.b C w   ;           , $ o       O 8 %., o 9 { o                               ;               o o           ",
", i 9 o         r e r                   O , O         ; 9 i , k } H     o                                       o 9 i ,       o ",
"w.w.,                           &       o $ ,           , | q Y  ...X., 9 o                                     o , i 0 : O o { ",
"K.0 o               o         1 2 1       , $ o           Y o.O.` +.@.q 0 o                   o               , > : l E L.5 y P.",
"I.B o o           o $ ,       5 7 :         o           F h #.T 1 / $.s :                   , $ o           o U.Y.T.R.E.` ~ I.^ ",
"W.% 9 &.o           , $ o     O y t 1                     O 8 X.o 2 s c v                 , < ,               o O c V c.B Q W.Q.",
"!.2 , o               o       F 8 Q 5                             1 8 O                 o $ ,                     O 8 X.> u 5 ~.",
"B )                             ; h ;                               F                     o                         F   o   O B "
};
