/* XPM */
static char *result[] = {
/* columns rows colors chars-per-pixel */
"64 64 5 1 ",
"  c #0D0E17",
". c #0D0F18",
"X c #20282D",
"o c #303F46",
"O c #364B5A",
/* pixels */
"................................................................",
"................................................................",
"..XXooXXXX..XX..XXXXooXXOOOOoo..OOOOOOooXXXXoo..........XXXXoo..",
"..XXooXXXX..XX..XXXXooXXOOOOoo..OOOOOOooXXXXoo..........XXXXoo..",
"..XX..XX..........XX..XXXXooXX..XXooXXXXXXXXXX..OOOOoo..XXXXXX..",
"..XX..XX..........XX..XXXXooXX..XXooXXXXXXXXXX..OOOOoo..XXXXXX..",
"........OOOOooOO........XXXX......XXXX........XXXXXXXXXX........",
"........OOOOooOO........XXXX......XXXX........XXXXXXXXXX........",
"..OOOOOOOOOOOOOOoo..OOOOOOOOOOOOoo..OOOOXXXXXX..ooOOOOOO..XXXX..",
"..OOOOOOOOOOOOOOoo..OOOOOOOOOOOOoo..OOOOXXXXXX..ooOOOOOO..XXXX..",
"..XXXXXXooXXooXXXX..XXooooXXooXXXX..XXooXX..XX....XXXXXXoo......",
"..XXXXXXooXXooXXXX..XXooooXXooXXXX..XXooXX..XX....XXXXXXoo......",
"..XX..XXXXXXooXXXX..XXXXXXXXooXXXX..XXXX......ooXXXX..XXXX..oo..",
"..XX..XXXXXXooXXXX..XXXXXXXXooXXXX..XXXX......ooXXXX..XXXX..oo..",
"....oo....XX..XXXX..XX....XX..XXXX..XX..OOOOoo......oo......XX..",
"....oo....XX..XXXX..XX....XX..XXXX..XX..OOOOoo......oo......XX..",
"..OOOOOO......oo..oo..........oo..oo....XXXXoo..ooOOOOOOOOoo....",
"..OOOOOO......oo..oo..........oo..oo....XXXXoo..ooOOOOOOOOoo....",
"..XXooXXOOOOoo..OOOOOOooOOOOoo..OOOOOOooXX..XX..XXXXooXXXXXXoo..",
"..XXooXXOOOOoo..OOOOOOooOOOOoo..OOOOOOooXX..XX..XXXXooXXXXXXoo..",
"..XX..XXXXooXX..XXooXXXXXXooXX..XXooXXXX..........XX..XXXXXXXX..",
"..XX..XXXXooXX..XXooXXXXXXooXX..XXooXXXX..........XX..XXXXXXXX..",
"........XXXX......XXXX..XXXX......XXXX..OOOOooOO................",
"........XXXX......XXXX..XXXX......XXXX..OOOOooOO................",
"..XXXX..XXXXXXXX..XXXX....XXXX..XXXXXXXXooOOOOOOXXXXXX..ooOOOO..",
"..XXXX..XXXXXXXX..XXXX....XXXX..XXXXXXXXooOOOOOOXXXXXX..ooOOOO..",
"................oo......oo................XXXXXXXX..XX....XXXX..",
"................oo......oo................XXXXXXXX..XX....XXXX..",
"....ooOOOOOOoo..XX..ooOOXX..ooOOOOOOoo..XXXX..XX......ooXXXX....",
"....ooOOOOOOoo..XX..ooOOXX..ooOOOOOOoo..XXXX..XX......ooXXXX....",
"....XXXXXXooXX......XXXX....XXXXXXooXX......oo..OOOOoo......oo..",
"....XXXXXXooXX......XXXX....XXXXXXooXX......oo..OOOOoo......oo..",
"..oo..XX..XXXX..OOoo..XXOOoo..XX..XXXX..ooOOOOOOXXXXoo..ooOOOO..",
"..oo..XX..XXXX..OOoo..XXOOoo..XX..XXXX..ooOOOOOOXXXXoo..ooOOOO..",
"..XXoo..........XXXXoo..XXXXoo..........XXXXooXXXX..XX..XXXXoo..",
"..XXoo..........XXXXoo..XXXXoo..........XXXXooXXXX..XX..XXXXoo..",
"..XXXX..OOOOoo..XXXXXX..XXXXXX..OOOOoo....XX..XX..........XX....",
"..XXXX..OOOOoo..XXXXXX..XXXXXX..OOOOoo....XX..XX..........XX....",
"......XXXXXXXXXX......XX......XXXXXXXXXX........OOOOooOO........",
"......XXXXXXXXXX......XX......XXXXXXXXXX........OOOOooOO........",
"....OOOO..XXXX..XXXXXXXX..XXXX..XXXXXXXXOOOOOOOOoo..OOOOXXXXXX..",
"....OOOO..XXXX..XXXXXXXX..XXXX..XXXXXXXXOOOOOOOOoo..OOOOXXXXXX..",
"....XXoooo..............oo..............ooXXooXXXX..XXooXX..XX..",
"....XXoooo..............oo..............ooXXooXXXX..XXooXX..XX..",
"....XXXXXX..ooOOOOOOoo..XX..ooOOOOOOoo..XXXXooXXXX..XXXX........",
"....XXXXXX..ooOOOOOOoo..XX..ooOOOOOOoo..XXXXooXXXX..XXXX........",
"....XX......XXXXXXooXX......XXXXXXooXX....XX..XXXX..XX..OOOOoo..",
"....XX......XXXXXXooXX......XXXXXXooXX....XX..XXXX..XX..OOOOoo..",
"..oo....OOoo..XX..XXXX..OOoo..XX..XXXX........oo..oo....XXXXoo..",
"..oo....OOoo..XX..XXXX..OOoo..XX..XXXX........oo..oo....XXXXoo..",
"..OOOOooXXXXoo..........XXXXoo..........OOOOoo..OOOOOOooXX..XX..",
"..OOOOooXXXXoo..........XXXXoo..........OOOOoo..OOOOOOooXX..XX..",
"..ooXXXXXXXXXX..OOOOoo..XXXXXX..OOOOoo..XXooXX..XXooXXXX........",
"..ooXXXXXXXXXX..OOOOoo..XXXXXX..OOOOoo..XXooXX..XXooXXXX........",
"..XXXX........XXXXXXXXXX......XXXXXXXXXXXXXX......XXXX..OOOOoo..",
"..XXXX........XXXXXXXXXX......XXXXXXXXXXXXXX......XXXX..OOOOoo..",
"....OOOOOOOOOOOOoo..OOOO..XXXX..XXXXXXXXXXXXXX..ooOOOOOOXXXXXX..",
"....OOOOOOOOOOOOoo..OOOO..XXXX..XXXXXXXXXXXXXX..ooOOOOOOXXXXXX..",
"....XXooooXXooXXXX..XXoooo..............XX..XX....XXXXXXXX..XX..",
"....XXooooXXooXXXX..XXoooo..............XX..XX....XXXXXXXX..XX..",
"....XXXXXXXXooXXXX..XXXXXX..ooOOOOOOoo........ooXXXX..XX........",
"....XXXXXXXXooXXXX..XXXXXX..ooOOOOOOoo........ooXXXX..XX........",
"................................................................",
". .............................................................."
};
