/* XPM */
static char *result[] = {
/* columns rows colors chars-per-pixel */
"64 64 5 1 ",
"  c #050008",
". c #09000C",
"X c #0E050E",
"o c #320F08",
"O c #40160C",
/* pixels */
"                                                                ",
"                                                                ",
"  oo  XXooXXXXooXXooooooooXXXXooXXooooooOO  XXooOOOOOOooooOOOO  ",
"  oo  XXooXXXXooXXooooooooXXXXooXXooooooOO  XXooOOOOOOooooOOOO  ",
"  ..  ..XX..XXXX..XX..XXXX..XXXX..XX..XXoo  ..XX..XXoooo..XXOO  ",
"  ..  ..XX..XXXX..XX..XXXX..XXXX..XX..XXoo  ..XX..XXoooo..XXOO  ",
"  ..  ....................................  ..................  ",
"  ..  ....................................  ..................  ",
"                                                                ",
"                                                                ",
"  OOOOOOooOOOOOOooOO  OOooOOOOOOooOO  OOOOOOOOooOOOOOOOOOO  OO  ",
"  OOOOOOooOOOOOOooOO  OOooOOOOOOooOO  OOOOOOOOooOOOOOOOOOO  OO  ",
"  ooooooOOOOooooooOO  ooOOOOooooooOO  ooooooooOOooooooOOOO  OO  ",
"  ooooooOOOOooooooOO  ooOOOOooooooOO  ooooooooOOooooooOOOO  OO  ",
"  ooooXXOOooXXoooooo  XXOOooXXoooooo  XXOOooXXooXXoooooooo  oo  ",
"  ooooXXOOooXXoooooo  XXOOooXXoooooo  XXOOooXXooXXoooooooo  oo  ",
"  XXXXooooXXooXXXXOO  ooooXXooXXXXOO  ooOOXXooXXooXXXXooXX  XX  ",
"  XXXXooooXXooXXXXOO  ooooXXooXXXXOO  ooOOXXooXXooXXXXooXX  XX  ",
"  XXXXXXXXooXXXXXXoo  XXXXooXXXXXXoo  XXooXXXXooXXXXXXXXoo  XX  ",
"  XXXXXXXXooXXXXXXoo  XXXXooXXXXXXoo  XXooXXXXooXXXXXXXXoo  XX  ",
"  ..XX....XXXX..XX..  ....XXXX..XX..  ..XX..XXXX..XX..XX..  ..  ",
"  ..XX....XXXX..XX..  ....XXXX..XX..  ..XX..XXXX..XX..XX..  ..  ",
"  ..................  ..............  ....................  ..  ",
"  ..................  ..............  ....................  ..  ",
"                                                                ",
"                                                                ",
"  OOOOOOooOOOOOOooOO  OOooOOOO  XXOO  OOooOOOOOOooOO  OOOOOOOO  ",
"  OOOOOOooOOOOOOooOO  OOooOOOO  XXOO  OOooOOOOOOooOO  OOOOOOOO  ",
"  ooooooOOOOooooooOO  ooOOOOooXX  XX  ooOOOOooooooOO  oooooooo  ",
"  ooooooOOOOooooooOO  ooOOOOooXX  XX  ooOOOOooooooOO  oooooooo  ",
"  ooooXXOOooXXoooooo  XXOOooXXoo..    XXOOooXXoooooo  XXXXoooo  ",
"  ooooXXOOooXXoooooo  XXOOooXXoo..    XXOOooXXoooooo  XXXXoooo  ",
"  XXXXooooXXooXXXXOO  ooooXXooXXXXXX  ooooXXooXXXXOO  ooooXXXX  ",
"  XXXXooooXXooXXXXOO  ooooXXooXXXXXX  ooooXXooXXXXOO  ooooXXXX  ",
"  XXXXXXXXooXXXXXXoo  XXXXooXXXXXXoo  XXXXooXXXXXXoo  XXXXXXXX  ",
"  XXXXXXXXooXXXXXXoo  XXXXooXXXXXXoo  XXXXooXXXXXXoo  XXXXXXXX  ",
"  ..XX....XXXX..XX..  ....XXXX..XX..  ....XXXX..XX..  ....XX..  ",
"  ..XX....XXXX..XX..  ....XXXX..XX..  ....XXXX..XX..  ....XX..  ",
"  ..................  ..............  ..............  ........  ",
"  ..................  ..............  ..............  ........  ",
"                                                                ",
"                                                                ",
"  OOOOOOOO  OOOOOOOOooOOooOOOOOOooOO  OOOOOOOOooOOOOOOOOOO  OO  ",
"  OOOOOOOO  OOOOOOOOooOOooOOOOOOooOO  OOOOOOOOooOOOOOOOOOO  OO  ",
"  ooooOOOO  OOooooooooooOOOOooooooOO  ooooooooOOooooooOOOO  OO  ",
"  ooooOOOO  OOooooooooooOOOOooooooOO  ooooooooOOooooooOOOO  OO  ",
"  oooooooo  ooOOXXXXooXXOOooXXoooooo  XXOOooXXooXXoooooooo  oo  ",
"  oooooooo  ooOOXXXXooXXOOooXXoooooo  XXOOooXXooXXoooooooo  oo  ",
"  XXXXooXX  XXOOooXXooXXooXXooXXXXOO  ooOOXXooXXooXXXXooXX  XX  ",
"  XXXXooXX  XXOOooXXooXXooXXooXXXXOO  ooOOXXooXXooXXXXooXX  XX  ",
"  XXXXXXoo  XXooXXXXXXooXXooXXXXXXoo  XXooXXXXooXXXXXXXXoo  XX  ",
"  XXXXXXoo  XXooXXXXXXooXXooXXXXXXoo  XXooXXXXooXXXXXXXXoo  XX  ",
"  XX..XX..  ..XX..XX..XX..XXXX..XX..  ..XX..XXXX..XX..XX..  ..  ",
"  XX..XX..  ..XX..XX..XX..XXXX..XX..  ..XX..XXXX..XX..XX..  ..  ",
"  ........  ........................  ....................  ..  ",
"  ........  ........................  ....................  ..  ",
"                                                                ",
"                                                                ",
"  OO  OOOOOOOOooOOOOOOOOOO  OOOOOOOOooOOooOOOOOOooOO  OOOOOOOO  ",
"  OO  OOOOOOOOooOOOOOOOOOO  OOOOOOOOooOOooOOOOOOooOO  OOOOOOOO  ",
"  XX  ..XXXX....XXXX..XXXX  ..XXooooXXXX..XXXX....XX  XX..XXXX  ",
"  XX  ..XXXX....XXXX..XXXX  ..XXooooXXXX..XXXX....XX  XX..XXXX  ",
"                                                                ",
"                                                                "
};
