/* XPM */
static char *result[] = {
/* columns rows colors chars-per-pixel */
"64 64 59 1 ",
"  c #000004",
". c #090307",
"X c #04030A",
"o c #09040D",
"O c #070809",
"+ c #0C090D",
"@ c #120D0F",
"# c #0B0611",
"$ c #0C0B12",
"% c #110C14",
"& c #131216",
"* c #181315",
"= c #15151B",
"- c #1A1A1A",
"; c #181623",
": c #171920",
"> c #1D1C23",
", c #232323",
"< c #232429",
"1 c #282828",
"2 c #282B30",
"3 c #343434",
"4 c #3C3C3C",
"5 c #424242",
"6 c #4C4C4C",
"7 c #4F5058",
"8 c #525252",
"9 c #55545C",
"0 c #58535B",
"q c #57585F",
"w c #5A5760",
"e c #5B5B63",
"r c #787684",
"t c #777C83",
"y c #7C7C84",
"u c #7E7E88",
"i c #837E84",
"p c #827F88",
"a c #7E8086",
"s c #7D8189",
"d c #7F8490",
"f c #828087",
"g c #83838B",
"h c #88858D",
"j c #818692",
"k c #9AA4AE",
"l c #9CA6B2",
"z c #9EA8B4",
"x c #A3A5AD",
"c c #ABA7AF",
"v c #A6A9AE",
"b c #A9A9AD",
"n c #A6A7B0",
"m c #A3AAB3",
"M c #ABA9B1",
"N c #A2ADB9",
"B c #ABADBA",
"V c #B1AABA",
"C c #A9B1BC",
/* pixels */
"11--11----1111------1111554588->-,11------1111------1111----1111",
"11--11----1111------1111555588----11------1111------1111----1111",
"11------88----333388----------1,11----5588----553388----5533--44",
"11------88----333388----------1111----5588----553388----5533--55",
"--88--553388--3333--555588--55----1188--558888--33--5588--33--45",
"--88--553388--3333--555588--55----1188--558888--33--5588--33--11",
"--33--55333388--11--3355--1133----5533----5533----55333388----11",
"--33--55333388--11--3355--1133----5533----5533----55333388----11",
"----11----5533----1133----111133333311--333311----11----88--33--",
"----11----5533----1133----111133333311--333311----11----88--33--",
"11--1155333355----11333355--111111----5511----5588--11553355----",
"11--1155333355----11333355--111111----5511----5588--11553355----",
"11----111111--5588--11113388--11--1155----1155--3388----55--55--",
"11----111111--5588--11113388--11--1155----1155--3388----55--55--",
"--3388------55333388----333388----1133----1133--33335588--5533--",
"--3388------55333388----333388----1133----1133--33335588--5533--",
"--553333----1133--3333-->>##XXXX XX X  X1111333333333355--1133--",
"--553333----1133--3333-->;XXXX  X XX X  1111333333333355--1133--",
"33--11--8888--1133----88O xcnnxvttfsxxX ----11333355----88--11--",
"33--11--8888--1133----88&$ccnnnnyysfxxOO----11333355----88--11--",
"33----55553388----5555*%cc,>>>>-&*&&>-bbXO88--1155--55333388--88",
"33----55553388----5555%ocb*.OO      +.bbXX88--1155--55333388--88",
"33--5533--3355--113333o.ii+ @@**@@++  ffX 3388----55----4533--88",
"33--5533--3355--113333@.ii+ @@*&@@++  ii X3388-=--55----5533--88",
"--11----11553333333333o.00. OO O      wwXX113333333355----5533--",
"--11----11553333333333%#00+.@+O+.+OO+oww#o113333333355----5533--",
"--115588--1111333333#%VVBmmmkkzzkzklNBmmBB<X11333355--8888--33--",
"--115588--1111333333#%VVBCmmlkzzmmmzCBmNCC<X11333355--8888--33--",
"88--113388----1133--XorrkkkklllzNNNNzlzzdd:X--1111--55--8811--33",
"88--113388----1133--XorrkkkkllzlNNNNllmzdd:X--1111--55--8811--43",
"--11--33338888------X#rrfasskx2<<<mvdstuss- 88----553333----8888",
"--11--33338888------X#upayatkk&   vmdsttsa= 88----553333----8888",
"--11--33333333----11o#ppfyfgeeO   eeggaapi=X88----11113333--88--",
"--11--33333333----11o#pfyagge0O   qqggaapp=X88----11113333--88,-",
"11--8811333355--88--X#paghhg&@    @Offhhpp;X=-8888----1133----33",
"11--8811333355--88--X+ffghhh+       fghhpp-X--8888----1133----43",
"--1133--11----553388XXyaffae$X X    fgffgh;X5533333388--11--88,-",
"--1133--11----553388 Xyyffhh%X      fhhegj;X5533333388--11--88--",
"--883388--5555333333#Xwwpahftrnnvvathhhhee$X333333333388--5533--",
"--663388--5555333333&&qqyafsttMBmvaajjhhew$X333333333388--5533--",
"11--1133333333--88--11=&wwugpghgggtytyeq-=$$88----1155333355--33",
"11--1133333333--88--11$#99pjggffaatyttqq&#%%88----1155333355--33",
"--88--11333355--88--1133:=eegjytpsgfq7==55=---8855--11333355--66",
"--88--11333355--88--1133>oeejgryspsg97=X55----8855--11333355--66",
"88--88--11----553388--1133&&==&&:===$$3355--55333388--1111--88--",
"88--88--11----553388--113311XXOO$$XX$>3355--55333388--1111--88--",
"44--3388--55553333333388333388--5533333355333333333388----3333--",
"34--3388--55553333333388333388--5533333355333333333388----3333--",
"--3355----1133333333----333333--1155333311553333333333--11333344",
"--3355----1133333333----333333--1155333311553333333333--11333344",
"--55--5588----1133--558833----88----1133----11333333--88--1133--",
"--55--5588----1133--558833----88----1133----11333333--88--1133--",
"--11--55338888--11--5533--5588338888--118888--1133--553388--11--",
"--11--55338888--11--5533--5588338888--118888--1133--553388--11--",
"33--1155333333----55--55--333333333388--333388----5533----88--88",
"33--1155333333----55--55--333333333388--333388----5533----88--88",
"88----113355--55113345----111133335555--335555----1111335555--88",
"88----113355--55113355----111133335555--335555----1111335555--88",
"--5533--1155--33--11333388--88----11--5511----5588----1111--88--",
"--5533--1155--33--11333388--88----11--5511----5588----1111--88--",
"--111155----1133----11113333--1111--3333--113333333388----1133--",
"--111155----1133----11113333--1111--3333--113333333388----1133--",
"11--------11----1111--------11111111----11------------1111----11",
"11--------11----1111--------11111111----11------------1111----11"
};
