/* XPM */
static char *_6ebfffc4c7743d8f13eff7033555fa04KmbcCgQlkk7E9UW[] = {
/* columns rows colors chars-per-pixel */
"32 53 153 2 ",
"   c #010101",
".  c #0B0B0B",
"X  c #141414",
"o  c #1D1D1D",
"O  c #252525",
"+  c #2A2A2A",
"@  c #312F33",
"#  c #343335",
"$  c #383637",
"%  c #373639",
"&  c #39373A",
"*  c #37383E",
"=  c #3D3B3C",
"-  c #413C3E",
";  c #3F3D40",
":  c #433E41",
">  c #454143",
",  c #494446",
"<  c #424448",
"1  c #4C4649",
"2  c #47494D",
"3  c #4D494B",
"4  c #51474B",
"5  c #524B4D",
"6  c #584F4F",
"7  c #4F4F52",
"8  c #554E51",
"9  c #584E52",
"0  c #4F5056",
"q  c #565153",
"w  c #5B5355",
"e  c #5E5659",
"r  c #5D595A",
"t  c #605657",
"y  c #615957",
"u  c #615659",
"i  c #645A5C",
"p  c #695D5F",
"a  c #66605F",
"s  c #5F5F62",
"d  c #645E60",
"f  c #6A5E60",
"g  c #656465",
"h  c #6D6262",
"j  c #65666A",
"k  c #6A6669",
"l  c #6C6A6C",
"z  c #726464",
"x  c #726869",
"c  c #696B70",
"v  c #777376",
"b  c #747374",
"n  c #787577",
"m  c #7B7677",
"M  c #737579",
"N  c #78777A",
"B  c #7D7A7D",
"V  c #7C7C7C",
"C  c #837E81",
"Z  c #878485",
"A  c #858485",
"S  c #888486",
"D  c #84858B",
"F  c #8A8788",
"G  c #8B8D8E",
"H  c #8E8C8F",
"J  c #8B8B8B",
"K  c #918D8F",
"L  c #8C8E92",
"P  c #8D8E94",
"I  c #8E9096",
"U  c #909092",
"Y  c #939292",
"T  c #999697",
"R  c #959599",
"E  c #97999B",
"W  c #9B999A",
"Q  c #9D989A",
"!  c #9A9B9F",
"~  c #9C9A9D",
"^  c #9C9B9C",
"/  c #A09E9F",
"(  c #9B9DA2",
")  c #A09FA2",
"_  c #9FA0A4",
"`  c #A1A0A1",
"'  c #A3A1A3",
"]  c #A5A3A3",
"[  c #A4A4A5",
"{  c #A4A4A9",
"}  c #A6A8AC",
"|  c #A7A8AD",
" . c #AAA9AC",
".. c #ABABAC",
"X. c #ADAEB1",
"o. c #AFB1B5",
"O. c #B3B4B4",
"+. c #B3B5B9",
"@. c #B6B7BD",
"#. c #B7B9BA",
"$. c #B8B8BB",
"%. c #BBBBBB",
"&. c #BEBEC3",
"*. c #C0BFC2",
"=. c #BEC0C2",
"-. c #C3C3C5",
";. c #C1C3C7",
":. c #C3C3C3",
">. c #C4C5C8",
",. c #C3C4C9",
"<. c #C7C9C9",
"1. c #CACACC",
"2. c #CDCDCE",
"3. c gray80",
"4. c #CBCBCB",
"5. c #CCCCD1",
"6. c #CFD0D4",
"7. c #D1D1D1",
"8. c #D2D2D2",
"9. c #D1D2D5",
"0. c #D3D5D7",
"q. c #D3D3D4",
"w. c #D6D6DA",
"e. c #DBDBDB",
"r. c #DDDEE1",
"t. c #DEE0E2",
"y. c #DFE1E2",
"u. c #E0E2E4",
"i. c #E4E4E5",
"p. c #E7E7E9",
"a. c #E8E7E9",
"s. c #E6E8EA",
"d. c #EAECEE",
"f. c #EDEFEF",
"g. c #ECECEC",
"h. c #EEF0EF",
"j. c #EDEFF0",
"k. c #EDEFF1",
"l. c #EEF1F0",
"z. c #EFF1F2",
"x. c #F2F4F3",
"c. c #F3F5F6",
"v. c #F2F4F4",
"b. c #F4F4F4",
"n. c #F5F8F7",
"m. c #F5F7F8",
"M. c #F5F7F8",
"N. c #F8F7F8",
"B. c #F6F9F8",
"V. c #F6F9FA",
"C. c #FCFEFD",
"Z. c #FDFEFE",
"A. c #FCFCFC",
/* pixels */
"k k l l b C K Q K d > = , 1 4 5 w e i p f h h h h z z z z z z z ",
"k h d i i d k m S Z k - > < 1 4 5 w u p p h h h h h z z z z z z ",
"x k g i r w w r g v m r - - > , 5 w e u i p h h h h z z z z z z ",
"x k h d r w q 8 8 q i k 5 - - > 3 8 w r u u f h h h h z z z z z ",
"h a i r w 8 8 5 3 1 1 w i > - - , 5 w e t u p h h h h z z z z z ",
"r w q 5 5 3 1 1 1 1 < , w 5 - - > 3 5 w e u i p h h h z z z z z ",
"i i i r r e q 5 1 , < < > q > = - , 5 8 w t u p f h h h z z z z ",
"W ' ] ' ' ~ H B k q > = = 1 3 : = > 1 5 w r u i f h h h h z z z ",
"3.7.7.7.3.1.-.$. .U b 7 & > 7 < & = , 5 w e t u p f h h h h z z ",
"l.v.x.f.j.d.u.0.>.+.} G j 2 2 > # % : 3 8 w r t i f p h h h z z ",
"C.C.C.B.m.v.d.t.9.-.o.! L M < # # # = 1 5 w e t i p p p a z h h ",
"A.C.A.A.A.B.v.s.r.6.&.} R P j * # # = < 5 w e u u p p f p h h h ",
"A.A.A.A.C.A.n.l.s.r.5.@.{ I D 0 # # = < 5 q e e u i p p p f f f ",
"A.A.A.A.C.C.V.v.j.i.w.,.+.( E c = @ & > 3 5 w e y i i p p p f h ",
"A.A.A.A.C.C.A.B.v.s.r.6.=.X._ D 2 # & : 1 5 w e y u i i p p f f ",
"A.A.A.C.C.C.A.A.m.j.i.e.1.#.} R s & # : , 5 w e t u i i p p f f ",
"A.A.A.C.A.A.C.C.V.v.d.t.0.=.X.[ M < # - , 5 q e t u i i i p p f ",
"A.A.A.C.A.A.C.C.A.B.l.i.e.<.$...H q & - , 5 5 w e u i i i p p p ",
"A.A.A.C.A.A.C.C.A.A.v.g.t.7.:.O.' j = = < 3 5 q e t i i i i p p ",
"s.V.A.C.C.A.C.C.C.C.n.h.i.e.<.%...M , = > , 5 5 w e t i i i p p ",
"M x.C.C.C.C.C.C.C.C.V.x.a.e.3.%.O.F 3 & > , 5 5 w w t i i i d f ",
"X q.V.V.C.C.C.C.C.C.V.n.s.e.7.:.$.U r = > , 5 5 w w t u i i i f ",
"  N s.C.C.C.C.C.C.C.C.V.f.i.w.<.%.^ j = : , 4 5 w w w t i i i i ",
"  + q.C.C.C.C.C.C.C.C.V.x.s.e.3.:...b > - , 3 5 9 w w t t i i i ",
"  . [ x.C.C.C.C.C.C.A.V.n.s.r.7.:.O.V 1 - , 3 5 9 w w w t i i i ",
"    C i.C.C.C.C.C.A.A.V.n.g.u.q.:.O.Z q - , 1 5 9 w w w t t i i ",
"    g e.C.C.C.C.C.C.C.A.n.f.i.w.:.$.U w - , 1 5 5 9 w w t t i i ",
"    > 7.C.C.C.C.C.C.C.V.n.h.i.e.<.%.W r = , 1 5 5 9 w w w t u i ",
"    O <.C.C.C.C.C.C.C.V.n.x.i.e.<.%.^ j = > , 1 5 8 9 w w e t i ",
"    X %.A.C.C.C.C.C.C.V.n.x.i.e.<.%.[ l - > , 1 4 5 9 w w w r i ",
"    . O.V.C.C.C.C.C.C.A.n.x.a.e.3.%.[ b > : , 1 5 5 8 9 w w r t ",
"    . O.N.C.C.C.C.C.C.C.n.x.a.e.3.%...N < - , 1 5 5 8 w w w r r ",
"    . O.V.C.C.C.C.C.C.C.N.x.i.e.<.$...V , - > 1 4 5 8 q w w w r ",
"    o %.V.C.C.C.C.C.C.A.n.x.i.e.<.$...V , - > 1 3 5 8 q w w w r ",
"    = 3.C.C.C.C.C.C.C.A.n.h.i.e.<.$...V , - > , 1 5 5 8 q w e r ",
"    l u.C.C.C.C.C.C.C.A.n.x.i.e.<.$...V , - : , 1 5 5 8 8 w w r ",
"  X O.n.C.C.C.C.C.C.C.V.n.x.i.e.<.$...V , = : , 1 5 5 8 8 w w e ",
". N i.V.A.C.C.C.C.C.C.V.n.h.i.e.<.$...B < = : , 1 5 5 8 8 w w e ",
"F e.V.V.V.A.A.A.A.A.V.V.b.f.u.q.:.O.} N > = : , 1 5 5 8 q q w e ",
"f.V.V.V.A.A.A.A.A.V.V.n.x.a.e.7.:.O.) b ; = : , 1 3 5 5 8 q w e ",
"V.V.V.V.A.A.A.V.V.V.N.n.x.i.e.3.%...! l = = : < 1 3 5 5 8 q w w ",
"n.V.N.V.V.V.V.V.V.V.n.b.f.u.q.<.$...R j & = : < , 1 3 5 8 q w e ",
"N.N.V.V.N.V.V.N.N.V.n.h.i.e.7.:.O.[ H r % = : < 1 1 3 5 8 q w w ",
"N.N.V.V.V.V.N.n.n.n.x.f.u.e.3.%...' A q & = : : , 1 3 5 8 q w w ",
"b.n.N.V.V.N.n.b.x.x.f.a.e.q.:.#.[ W M 1 = : : : , 1 3 5 8 q e i ",
"h.x.n.n.n.n.b.x.h.f.s.u.e.3.:.O.^ U k = & = - : , 1 3 5 8 q e r ",
"f.f.h.x.x.x.x.f.g.s.i.e.7.:.$.] T F r & = & - : < , 1 1 4 5 5 5 ",
"s.s.s.s.g.s.s.i.i.u.e.7.<.%.X./ W V 3 # & = - > , , 1 1 3 5 5 5 ",
"i.i.a.a.i.i.i.u.e.e.7.<.:.O.[ ~ U k - # $ = - < , 3 1 1 3 5 5 8 ",
"e.e.t.u.u.e.e.e.q.7.3.:.$...^ T A q # # = - > , , 5 1 1 3 5 8 8 ",
"5.9.q.e.e.w.q.7.3.<.:.$...] T H j = # & = > > , 1 3 4 4 8 q w w ",
"w.5.1.<.3.3.1.<.:.%.$...' W U N 1 # # & = > > , 3 5 5 8 w e e t ",
"u.w.1.:.*.*.%.%.$.O...[ E U Z r # # & = = > < , 3 5 5 q w r u u "
};
