/* XPM */
static char *st11705582596[] = {
/* columns rows colors chars-per-pixel */
"64 64 67 1 ",
"  c #151710",
". c #171911",
"X c #191B12",
"o c #201F16",
"O c #1E2116",
"+ c #212117",
"@ c #23261A",
"# c #2C2C1E",
"$ c #312F20",
"% c #363426",
"& c #393728",
"* c #3E3B2C",
"= c #413925",
"- c #403D2D",
"; c #43412F",
": c #4A422E",
"> c #52442D",
", c #56482E",
"< c #454231",
"1 c #4A4532",
"2 c #4D4936",
"3 c #524C36",
"4 c #5E4D34",
"5 c #544F38",
"6 c #565139",
"7 c #5B553D",
"8 c #5F5A3E",
"9 c #614F34",
"0 c #655237",
"q c #6C5637",
"w c #6F5837",
"e c #665338",
"r c #6A5639",
"t c #605C3D",
"y c #705837",
"u c #715A38",
"i c #75603D",
"p c #525651",
"a c #555953",
"s c #625D40",
"d c #6E5E40",
"f c #705F40",
"g c #5A605E",
"h c #666040",
"j c #6E6141",
"k c #746241",
"l c #786540",
"z c #776845",
"x c #7A6A45",
"c c #766A49",
"v c #7A6D49",
"b c #7E714B",
"n c #7E7551",
"m c #7F7853",
"M c #5D6360",
"N c #626C6E",
"B c #7A7562",
"V c #81744C",
"C c #857A4F",
"Z c #817751",
"A c #817953",
"S c #897F53",
"D c #8A8053",
"F c #84806E",
"G c #888471",
"H c #9A9683",
"J c #9C9884",
/* pixels */
"NNNa---<222<*--222222222222222---;2222222<-----------*--1222MNNN",
"NNNM---<222----222222222222222;*--2222222<-----*--*-----<222MMNN",
"NNNM*--<222<---222323222222222;---2222222<*;---;-;--*-*;1222MNNN",
"ggMp%%&*<<<*&&&----;--<--;;<;;&&&&-;-;;<;*%%%&&&&&&&*&&&*<<;aMMM",
"*--%...O@@@@@@@XX X  X....O@@@XX....XO@@@O..X@@@@@@#@@@@@@@O&*;*",
"---%.XX+@@@@@@@X XXXX XX.XO@@@XXX.XXXX@@@O.XX@@@@@@@@@@@@@@@&*;*",
"---&..XX@@@@@@@XXXXXXXXXX.O@@@XXXX.XXX@@@O.XX@@@@@@@@@@@@@@@&;**",
"*--&XXXXO+OOOOOXX XX XXOOO@@@@OOOOOOOOOOOXX..+@@@@@@@OOOOOOO&**;",
"*<*&.XX.XXXX..X.X.XXXXO@@@@@@@@@@@@@@OX.XXX. @@@@@@@OXX.XXX.&---",
"***&.X.XXX.XXXXXX. XX O@@@@@@@@@@@@@@+XXX.XXX@@@@@@@@.X.XXXX%*;*",
"--*&.X.XXXX.XX.XXXXXX.O@@@@@@@@@@@@@@@XXX..XX@@@@@@@O......X&***",
"121<OO@@+OO@@OO@O@@@@OOXOOXOXOOXXXOXXX..XXX.XXOX+1>>5ssshhhh2112",
"222<@@@@@@@@@@@@@@@@@@O. X X.X XXXXX.XXX.XX.XXX oeeedAAADDDD8222",
"222<@@@@@@@@@@@@@@@@@@@.XXXXXXXXXX.X.X.X.XX.X.XXoeeedmAASDDD7222",
"222;@@@@@@@@@@@@@@@@@@+X XX X...X.XXXXX.XXXXXX.Xo0e0dAmmADDDs222",
"*;*&XXX@@@@OXXX@@@@@@@+XXXXX..@@@@X.XX@@@XXX.XX oqyqlDSSSAmm2*;*",
"*;*&.XXO@@@OXX.O@@@@@@OOX.XXX.@@@+.XXo@o@X...X..oquulDSDAAAA3*--",
"***&...O@@@O.XOO@@@@@@OX.XX.XX@@@oXXXo@#@X. ....oquylDDDSAAA2---",
"<--&XXXOOO@OOOOO@OOOOOOX.XXOXOO@@oX..o$$%####$$$%qqykSSSAAAA5---",
"**-*@@@O..OOOOOOO.O.OXX.XXO@@@XXXXXXX$uuyvAAASSSAeeedAmmSSSDs222",
"***&@@@O...O@@OXX.XX..XX.XO@@@X.XX.X.$uuyvAAASSSCre0dmmACDDDs122",
"-<*&@@@O.O.O@@@XXX.XXXX.X.O@@@X.XXX.X$uuyvAnASSSCre0dmAmSDDD5222",
"1<1*@@@@OOO@@@#OOOOXX.XOOO@@@@OOXoX..$urrcAmAAAAAee0jASASSSSp1<<",
"222<@@@@@@@@@@@@OOO.XXO@@@@@@@@@@+XX.$ee0cAmAAAmbreekDSDSDSS3*--",
"222<@@@@@@@@@@@@@@@OXXO@@@@@@@@@@@...$ee0cAAAAmAmee0kDDDDDDD5*--",
"222<@@@@@@@@@@@@@@OXXXO@@@@O@@O@@+   #eeecAZmmmAne00fDDDDDDD3---",
"<<<*XOXO@#@@@@OOOOOOOOOXXX-3,,8tss7sseyqrcAnAmmAnee0dSAAAAAA3*--",
"***%.XXO@@@@@@@X.XOO@@O.X ,uuumAAAAAAvyuucAAmAAnnee0dmZmAACA2*--",
"*-<&..XO@@@#O@@O.XX@@@OXXX>yyunAAmAAmbrryvAAmAAmne00dAAAmAmm3*--",
"--*&...O@@@@@@@XX.OO@@OXX.>uuubmmAAAmbyuyvAZmAnmn0eedAmmmmAA2---",
"222*@O@@@@@@@@@XXX.XOXXXXX>uyuCDSSSSSbeeevSSSAmAmuqqlDSSAAAA3*--",
"222<@@@@@@@@@@@O.XXXX.XX  >yuuCDSSDDDveeevSSSAAmnuuylDDDAAAA2*--",
"222;@@@@@@@@@@@XXXXX...XX.>uuuCDSSSSDV0e0xSSSSABVuuylSSSSAAA3---",
"222;O@@@@@@@@@@+o@o@@#@@@@,uwwCDDSSSSb0eexSSSAmAbuyqzSSSSAAA5---",
"222;.XXO@@@O. X0eeennmnnZAj0eeCDDSAAAc0e0cZBAAAmZuuyfAmmASSDs222",
"222-.XXO@@@XX X4eedmAAmAmAj0eeCDDSAAAc0e0cZAAAmAnuuykmAASSSDs222",
"222;.  X@@@+X X9eedZAAmmAAdeeeADSSAmAcee0cAAAAAAnuyylAAmSDSD5222",
"222;OOO@@@@OXXX0erdASAAAmAd0eeVSSAmAAcee0cAAAASSZrqqkASASDDSs-22",
"222;@@@@@@@X XXquuuSSDAmmAde0enAAAmmAcee0cAAAASSSee0fDDDSSSSp222",
"222;@@@@@@@OXXX0uufSDSSAmAdee0nAAAAmAcee0cAAASSSCeeefDDSDSSS7222",
"222<@@@O@@+X .XeuufSSSSAAAdeeebAmAAAAcse0cAAASSSAre0kDDDDSDDe322",
";;<<:::3sss7566eeyfAASAZmAdeeeVSAAAAAcqqqvSASAAACqrqkDDDDDDD6;<<",
";--:qeqzDDDSAAAreerZAZAAmAd0eeADSSAmAvyuyVSSSAAAbuuylDDDDDDD3*--",
"--*:eeelDDDAmAmreedZAAAZmAd0eeADSSmAAcyyyVSSAAAAmuuulDDDDSDD3*--",
"----e00zDDDSAAZeeedAmmAmAAjeerCDSSAAAbyyyVSSSSZAmuuulDDDDDDD3*--",
"1223ee0zDDDDSSAde0rSSSASSDkeeeCDSSSSSb0e9VSSSSAAbuuwlDDDAAAA2---",
"2223ee0zDDSSSSSr0efSSDSSDDi0eeCSSSSDSVee9lSSSAAAmuuwlDDDSAAA2---",
"2223ee0zDDDSSSSreefDDDSSDDkeeeCDSSDDSVee0VSSSAAAmuwwiDDDAAmA3*--",
"2213eeezDSSSDDSreedASSSSSDxeeeCDSSSSZV00eVDDSSASbuuwkDDSSmAA5---",
"---1uuyzAZASDSSr00dZAZASSDfeeeCSSSAAZVyyyZDDSSSDAre0dAmAASDD7222",
"---:uyyzAAmADDSr00dAAAZSSDleeeCDSSAZZVyfyVDDSSSDAee0dAAmSDDD7222",
"---1uyyzAAASDDSr00dAAAASDSf0eqCDSSZAZcyyqVDDSSSSCee0dAmmADDD7222",
"---1yyyxSAASSDSreedZSSSDDDkeeeCSSSSAAVeqqVSSSSSSDwqqimmAASSA7222",
"---:yuyxDDDDDDSreeySSSSDDDfeeeCDSSSSCV000fAZASSSCuuykmAmAAAm7222",
"--*1uuyxDSDDDSSreefSSSDDDDzeeeSSSSSSSV00scAAASSSAuuyimAAmmmm5222",
"---:uyyxDDSDDSAdeefSSSDDDDkeeeZSSSSSCV000cAZASSSDuuykmmmmAnns222",
"---,rqqzDDDDDDDuyyfSSSDDSSuqqqZASSSSSZd00fSSSAAAZrrefAZZAASSs222",
"----ee0zDDDDDDDuuuuSDSDDSVVqyfZAASSSSC000xSSSAAAZee0dAAZSDDDs-22",
"----eeelDDDDDDDuuufSSDDDSSV0yyVZAASSZV000VSSSAAAnee0dABVASDDp222",
"----eeexDDDDDDDfuufSDDDDSSVyyyVVAASSSV4d0VSSSSAAZeeedAAASDDD7122",
"SGGN1535777653533456323394-2--spss-s-4---sss6s67p-,-3s6s3p-pmHAG",
"JJJS2222222<---222-------=----22-3-------2-2-222-----2-5-*-*AJHJ",
"JJJG2222223----122------------22-3--------2252223----522---*FHHH",
"HJJG2222221----2232-----------2222--------2222232----2221---FHHH"
};
