/* XPM */
static char *_59da377ec4348778a6cb8ab082e50e3F1PzZhDOcPvBq7ko[] = {
/* columns rows colors chars-per-pixel */
"64 64 181 2 ",
"   c #020003",
".  c #0A0205",
"X  c #03020A",
"o  c #0C040B",
"O  c #070809",
"+  c #0C0A0D",
"@  c #10040E",
"#  c #110B0F",
"$  c #0D0612",
"%  c #0D0B14",
"&  c #0E0D19",
"*  c #140514",
"=  c #180215",
"-  c #130C14",
";  c #190E16",
":  c #150519",
">  c #1A061C",
",  c #140D1B",
"<  c #1B0B1D",
"1  c #0F1018",
"2  c #141115",
"3  c #1A1216",
"4  c #14121C",
"5  c #1B121D",
"6  c #1B1A1F",
"7  c #29051F",
"8  c #240D1E",
"9  c #20141E",
"0  c #22181F",
"q  c #1D0620",
"w  c #150D20",
"e  c #1C0E21",
"r  c #161221",
"t  c #1B1422",
"y  c #171920",
"u  c #1E1A23",
"i  c #1C1628",
"p  c #1F1828",
"a  c #260723",
"s  c #290421",
"d  c #230D23",
"f  c #2B0C25",
"g  c #270E28",
"h  c #280A28",
"j  c #231424",
"k  c #2A1323",
"l  c #221925",
"z  c #281A24",
"x  c #261528",
"c  c #2A162B",
"v  c #241C2A",
"b  c #2B1D2D",
"n  c #33152B",
"m  c #321C2D",
"M  c #2C1D31",
"N  c #331E33",
"B  c #371E39",
"V  c #3A1E3A",
"C  c #212124",
"Z  c #23242A",
"A  c #2A212D",
"S  c #30212D",
"D  c #2D2333",
"F  c #2E2A36",
"G  c #2C2638",
"H  c #2F293A",
"J  c #332435",
"K  c #3A2537",
"L  c #332936",
"P  c #382837",
"I  c #342539",
"U  c #3B253B",
"Y  c #352B3B",
"T  c #3B2B3C",
"R  c #35303D",
"E  c #3B303D",
"W  c #431D3B",
"Q  c #42243C",
"!  c #48263F",
"~  c #412B3D",
"^  c #3F2641",
"/  c #352C41",
"(  c #3D2D41",
")  c #3E3142",
"_  c #432442",
"`  c #4A2443",
"'  c #432B43",
"]  c #4C2A46",
"[  c #462D49",
"{  c #4A2C4A",
"}  c #423244",
"|  c #493246",
" . c #493C47",
".. c #453649",
"X. c #4B344D",
"o. c #463C4A",
"O. c #4B3B4C",
"+. c #53344E",
"@. c #513A4F",
"#. c #58394F",
"$. c #4E3550",
"%. c #4C3E51",
"&. c #543552",
"*. c #583655",
"=. c #523B52",
"-. c #5B3954",
";. c #573D5A",
":. c #5D3B58",
">. c #613A5C",
",. c #47404D",
"<. c #4E414D",
"1. c #50404E",
"2. c #4D4353",
"3. c #544253",
"4. c #524955",
"5. c #5B435B",
"6. c #5D4A5C",
"7. c #4F5058",
"8. c #55545C",
"9. c #58535B",
"0. c #57585F",
"q. c #674B5E",
"w. c #684C5F",
"e. c #5A5760",
"r. c #5B5B63",
"t. c #6B4F62",
"y. c #635661",
"u. c #6B5366",
"i. c #665964",
"p. c #6D5867",
"a. c #6B5268",
"s. c #6F506A",
"d. c #6F5569",
"f. c #6D5869",
"g. c #71516A",
"h. c #74556B",
"j. c #77536D",
"k. c #71546C",
"l. c #72566D",
"z. c #75556D",
"x. c #78566F",
"c. c #725B6B",
"v. c #735C6A",
"b. c #745D6B",
"n. c #725A6E",
"m. c #75586F",
"M. c #76596E",
"N. c #755C6C",
"B. c #785C6F",
"V. c #735370",
"C. c #745471",
"Z. c #795571",
"A. c #795774",
"S. c #787684",
"D. c #777C83",
"F. c #7C7C84",
"G. c #7E7E88",
"H. c #837E84",
"J. c #827F88",
"K. c #7E8086",
"L. c #7D8189",
"P. c #7F8490",
"I. c #828087",
"U. c #83838B",
"Y. c #88858D",
"T. c #818692",
"R. c #9AA4AE",
"E. c #9CA6B2",
"W. c #9EA8B4",
"Q. c #A3A5AD",
"!. c #ABA7AF",
"~. c #A6A9AE",
"^. c #A9A9AD",
"/. c #A6A7B0",
"(. c #AEA7B7",
"). c #A3AAB3",
"_. c #ABA9B1",
"`. c #A2ADB9",
"'. c #ABADBA",
"]. c #B1AABA",
"[. c #A9B1BC",
/* pixels */
"# # o .     . .                             . . o o         # # o o o . . .                         . .                     . o ",
"# # o .     . . . . . .     . . . .         o o @ @ . .     # # o o o o o o o o o o . . . . .       . . . .                 . o ",
"    ; ; * j p.p.v.v.N.c.8 k d.d.d.d.k.k.z.z.k.k.k.k.a.a.s.s.* @ = @ a.a.a.s.m.z.k.k.h.h.m.m.m.m.B.B.m f q.t.c.v.u.u.b < 5 3 o o ",
"    ; ; ; z p.p.b.b.N.v.8 k k.k.k.k.m.m.m.m.k.k.k.k.s.a.s.s.* @ = = a.s.s.a.m.m.k.k.z.z.m.m.m.m.B.B.m f w.t.v.v.u.u.S j 5 5 o o ",
"  . j A c.p.Q ~ #.-.x.z.a f g.s.` ` :.:.:.:.` ` ] ] _ Q V.C.f a a a A.A._ Q ` ` W W ` ` +.+.-.-.Z.Z.n 7 k.j.] ! +.@.f.n.T J $   ",
"  . j A c.f.Q Q #.-.x.z.a f g.s.` ` :.:.:.:.` ` ] ] Q Q C.C.f a a a A.A._ W ` ` W W ` ` +.+.-.-.Z.Z.n 7 k.j.] ! +.@.f.n.T J $   ",
"  6 i.y.T T +.+.+.+.*.*.a a V V _ _ _ _ :.:.*.*.{ { _ _ _ _ h h h h _ _ &.&._ _ ` ` >.>.*.*.*.*.` ` f s W Q &.*.:.:.~ U 6.6.l X ",
"  6 i.y.U T +.+.+.+.*.*.a a V V _ _ _ _ :.:.*.*.{ { _ _ _ _ h h h h _ _ &.&._ _ ` ` >.>.*.*.*.*.` ` f s W W &.*.:.:.~ U 6.6.j X ",
"- ; P P T T U U _ ' $.X.> q I B ^ ^ ' ' ;.;.' ' V V ^ ^ g g : : q q ^ ^ V V _ _ _ _ [ [ ' ' [ [ U U g a U U X.X.=.=.O.O.} ) t , ",
"- ; L L T T U U _ ' $.X.> q B B ^ ' ' ' ;.;.' ' V V U U g g : : q q ^ ^ B B _ _ _ _ [ [ ' ' [ [ U U g a U U X.X.&.=.O.O.} ( t , ",
"; 5 } } ( ( ( ( I I < < w w w w e e / / J J J J v v e e e e Y T T T e e , , J J ( ( ) ) / / i t w w t t L I ........T Y Y Y l y ",
"; 5 } } ( ( ( ( I I < < w w w w e e / / J J J J v v e e e e T T T T e e , , J J ( ( ) ) / / i t w w t t L I ........T Y Y Y l y ",
"* - v v x x e e t t v v G G v v w w r r , , w w , , r r L L / / Y Y L L r r r r r r w w v v i i r r % % r r i i v v l l l v 5 4 ",
"* - v v x x e e t t v v G G v v w w r r , , , , , , r r L L / / Y Y L L r r w , r r w w v v i i r r % $ w r i i v v l l l l 5 5 ",
"* - J D b b : : , w H H G G p p w w r r , , 5 5 5 5 5 5 , , Y Y R R , , % % , , , , , , M D D G b b , , , , M M D D D D G J 5 , ",
"* - J J b b : : , w H H G G p p w w r r , , 5 5 5 5 r r , , R Y R R , & % % , , , , , , M D G G b b , , , , M M D D D D J J 5 , ",
"- 5 E E ) T < < e t Y Y < < j j J J Y Y L L F F y y X X X X X X X X   X     % % y y L L P P P Y T P T T r e L Y ) ) } } ....t , ",
"- 5 E E ) T < < e t Y Y < < j j J J Y Y L L F F y y X X X X           X     % % y y L L P P Y Y Y P T T t e P Y ) ) } } ....t , ",
"3 6 T E ....( ( M M e e < < K K ~ T L L ) ) L L X X Q.Q.Q.Q.~.~.D.D.U.U.Q.Q.6   , , L L Y Y P P T T T T r , D D T ( .. .O.O.j < ",
"3 6 T T ....) ( M M e e < < K K ~ ~ L L ) ) L L % % /./././.~.~.F.F.U.U.Q.Q.C + , , L L Y Y P P T T T T r , D D T ( .. .O.O.x < ",
"; 0  . .T T ( T M M > < K K U U ~ ~ T T T T $ $ !.!.Z u u u 6 6 2 2 2 2 u 6 ^.^.C O , , Y Y } } Y L < , , , e e ( ( O.=.3.3.0 o ",
"; 0  . .T T ( T M M > < K K U U ~ ~ T T T T o o _._.2 X O O             + O ^._.C O , , Y Y } } Y L , : , , < e ( ( %.=.3.3.0 o ",
"3 0 <.<.T T ( ( N M > < K K T Q ~ ~ ~ T T T . . H.H.+   # # 3 3 # # + +     H.I.4   5 5 , , 4 4 % $ , , e e L I } } O.O.=.=.9 o ",
"3 0 <.<.T T ( ( N M > < K K T Q ~ ~ ~ T T T . . H.H.+   # # 3 3 # # + +     H.I.4   5 5 - - 4 4 % $ , , e e L I } } O.O.=.=.9 o ",
"; 0 <.<. ...} } J N < < j j U U ' ' J J P P o o 9.9.    O .             X   e.e.% X & - 4 4 & & H Y t r & $ L P ) } ( ( ~ ~ j ; ",
"; 0 <.<. . .} } J N < < j j U U ' ' J J P P - - 9.9.+ O % % + + O O O O % o 8.e.4 % & & 4 4 , , Y Y t r & $ L P ) } ( ( ~ ~ j < ",
"- 5  . .2.O.} } T T P P : : < < T T ( ( $ - (.(.).).).).R.R.W.W.E.E.E.E.`.`.).).'.'.Z X r y R E ) ) H H t r l l G J ( ) I L 5 - ",
"- 5  . .%.O.} } T T P P : : > < T T ( ( o - ].].'.'.).).R.R.).).).).W.W.[.[.).).'.'.Z X 5 r E ) ) ) H H t r p l G J ( ) I L 5 - ",
"- ; P P O.O.....) ) L J : : < < t t e e X o S.S.R.R.R.R.E.E.W.W.`.W.`.`.E.E.W.W.T.T.y X L Y P P Y Y L L r r r r p l P Y A A ; - ",
"- ; I P O.O.....) ) J J : : < < t t < < X o S.S.R.R.R.R.E.E.W.W.`.`.`.`.E.E.W.W.T.P.y X Y Y P P Y Y L L r r r r t p P Y A A ; - ",
"* - j x U P T T L L x x , , , , , , $ $ X o F.G.G.G.L.L.R.Q.F Z Z Z )./.U.U.F.F.L.L.4   P Y P P L L < , , , , , y y v b v v , - ",
"* - j j I I T T L L x x , , , , , , $ $ X o F.G.F.F.F.F.R.Q.2       ~./.L.L.D.D.L.L.4   P Y I P L L , , , , , , y y v v v v , - ",
"@ * < < e e e e < < , , t t , , 5 5 4 4 X $ J.J.F.F.U.U.r.r.O       r.r.U.U.K.K.F.F.4   l l ) ) 5 , t t e e G G T T o.o.o...l ; ",
"@ * < < e e e < < < , , t t , , 5 5 4 4 X $ J.J.F.F.U.U.r.r.O       0.0.U.U.K.K.F.F.4   u l ) ) , , t t e e G J T ) o.,.o.o.l ; ",
"; 5 J J T T J J j j , , 5 5 4 4 4 4 1 1 X + F.I.U.U.U.U.4 %         + + I.U.Y.Y.J.J.6 X , , 5 r r r r r T T ' ' } } .... . .l ; ",
"; 5 J J T T I J j j , , 5 5 4 4 4 4 1 1 X + F.I.U.U.U.U.+               J.U.Y.Y.J.J.6 X & & 4 4 r r r r T ( ' ' } } .... . .l ; ",
"- 4 P P I I T T J J 5 5 , , % % % % & &   O F.F.I.I.F.F.% X             U.U.J.J.U.U.6 X % % r r 4 4 , , ( ( U U | ..| | 3.3.j o ",
"- 4 P P I I T ( L J 5 5 , , % % % % & &   O F.F.I.I.F.F.% X             U.U.F.F.U.U.6 X % % r r 4 4 , , ( ( U U | | | | 3.3.j o ",
"- 5 Y Y T T ) ) Y P 5 5 , , 4 4 5 4 4 4 X X 0.e.J.J.U.J.D.D.Q._.Q.Q.D.D.U.U.U.U.r.r.& X 1 1 1 4 & & r r D J T T ' ' ~ ~ 1.3.j @ ",
"- 4 Y Y T T ) ) Y P 5 5 , , 4 4 5 5 4 4 X X 0.0.J.J.U.U.D.D._._././.F.F.U.U.U.U.e.0.% X 1 1 4 4 & & r r D D T T ' ' ~ ~ 1.3.j @ ",
"4 5 Y T %.%.} } G G 5 5 t t Y Y L L 4 4 5 5 4 4 0.0.U.U.U.U.U.U.U.U.F.F.D.D.r.r.y 4 % % y y L L r r , , < < J L ~ ' } } E E 5 $ ",
"4 5 Y T %.%.} } G D 5 5 t t Y Y Y Y 4 4 y y X X 8.8.U.U.U.U.U.U.G.G.F.F.D.D.r.0.- O % % y t L Y r r , , , , J L ' ' | | T E 5 $ ",
"% 4 L Y %.%.} } J J : < P P T T T T T T 5 5 % % 4 4 r.r.U.U.F.D.G.L.U.U.0.8.4 2 5 5 < < K K P P J J e < d d < < < < t j ; ; - % ",
"% 4 L Y %.%.} } J J : < T T T T T T T T 5 5 % % X X r.r.U.U.D.D.G.G.U.U.8.7.+   5 t < < K K P P J J e < d d < < < < < < - - % % ",
"O 4 o.,.2.2.....j j > < | | ~ ~ K K T T L L 4 4 , , % % 4 4 4 4 4 4 4 4 % % - - K K ~ ~ ~ ~ ~ ~ K K d < < < J J P P ) ) o.o.t % ",
"O 4 ,.,.2.2.....j j > < | | ~ ~ K K T T L L 4 4 , ,             X X     X X - - K K ~ ~ ~ ~ ~ ~ K K d < < < J J P P ) ) o.o.t % ",
"X 4 2.2.2.2.....< < > < U U ~ ~ K K ~ ~ E T 4 , , , & & & & & & 4 4 % % y y T T ~ ~ Q Q T T ~ ' T T d < < < } } T T ....4.4.l o ",
"X 4 2.2.2.%.....< < > < K K ~ ~ U U ~ ~ E E 5 4 , , , , & & & 1 4 4 % % u u T T ~ ~ Q Q T T ' ' T T d < < < } } T T } ..4.4.l o ",
"4 u 2.2.T T I I j j > > 8 8 K K ~ ~ P P ) ) u u , , r 5 , , & & 4 4 % % , , j j K K T T T T K K j j < < > > j j J J ( ) T T 5 - ",
"4 l 2.2.T T I L j j > > < < K K ~ ~ P P ) ) u u , , r r , , & & 4 4 % % , & j t K K T T T T K K j d < < > > d d N J ( ) T P 5 - ",
"- - 5 t j j j j j j x x , ; l l L L Y Y l l t t , , t t , , 4 4 4 4 & & % % , , 5 5 P P P P 9 5 : * < < < < < < < < e d < < - - ",
"% - , < j j d d j j x x , , l l L L Y Y l l t t , , t t , , 4 4 4 4 & & % % , , < 5 P P P P 5 ; * * < < < < < < < < < < : : - - ",
"; ; J J K J J N N N x x , , , , t t v v v v l l r r l l & & & & 4 4 & & y y t t 5 5 x l v v 5 < < < : : x x N N U U U U U I < : ",
"; 5 L L K K J J J J x x , , , , t t v v v v l l t t l l & & & & 4 4 & & t t t t 5 5 l l v v r < < < : : x x N J U U ( ( U U < : ",
"; 5 ' ' ~ ~ U U U U J J < < t t v v D D b b A A b b A A r r 4 4 4 4 y y D D J J J J D D D D b b x x > : N J ' ' X.X.$.$.....j , ",
"; 5 ' ' ~ ~ U U U U J J < < t t v v D D b b A A b b A A r r 4 4 4 4 y y D D J J J J D D D D b b x x > : J I ' ' X.X.&.&.....j , ",
"; 9 | | ' ' ~ ~ T T U U d d U P T T L L N N J J P P J J F F r r r 5 F F P P ) )  . .O.O.P P T T L J < > K U ' [ $.$.&.&.X.X.x < ",
"; 9 | | ' ' ~ ~ T T U U d d T T T T L L N N J J P P J J F F r r 5 5 F F Y Y ) )  . .O.O.T P ' ' U L q > K U ' [ $.$.&.&.X.X.x < ",
"; j O.@.@.@.[ [ T T U U d g X.X.=.=.U U N N U U T T J J F F , , , , F L T T T T ~ ~ [ [ =.=.5.5.X.X.x d U U [ X.[ [ ' ' ( ( r , ",
"; j @.@.=.@.[ [ T U U U d g X.X.=.=.U U N N U U T T J J F F , , , , L L T T T T T T ' ' ;.;.5.5.&.+.x d U U X.X.[ [ ' ' ( T < - ",
"* ; } } } } T U x x c c = = K K | | K K c c m m b b v v 4 4 o o o o , 4 v Z z z c c T T T T J J c b > : c c N N b M M M b b , - ",
"* ; } } } } U U x x c c = = J J ' ' K K c c m m v v v v , , o o o o & & v v x x z b T T U U J N x x : = x c M M b b b b b b , - ",
"o o t t ; ; 5 5 ; , 5 5 @ @ 3 3 9 9 3 3 - - ; ; 2 2 2 2 + + ; ; 5 5 O O 2 2 - - ; ; 5 5 5 5 ; ; - - o o , 4 ; - , ; 4 5 ; - - # ",
"o o 5 5 o o , , - - 4 4 o o ; ; ; ; ; ; - - # # 2 2 2 2 + + 2 2 5 5 O X 2 2 - - - - ; ; 2 2 - - # + o o ; ; - % - - ; ; - % # # "
};
