/* XPM */
static char *result[] = {
/* columns rows colors chars-per-pixel */
"64 64 31 1 ",
"  c gray10",
". c #1B1B1B",
"X c gray11",
"o c #1D1D1D",
"O c #1E1E1E",
"+ c gray12",
"@ c gray13",
"# c #222222",
"$ c gray15",
"% c #282828",
"& c gray16",
"* c #2A2A2A",
"= c gray20",
"- c #343434",
"; c #353535",
": c gray21",
"> c #393939",
", c #3A3A3A",
"< c gray23",
"1 c gray24",
"2 c #3E3E3E",
"3 c #3F3F3F",
"4 c gray25",
"5 c #414141",
"6 c gray26",
"7 c #4B4B4B",
"8 c #4C4C4C",
"9 c gray30",
"0 c #505050",
"q c #515151",
"w c gray32",
/* pixels */
"%%  %%    %%%%      %%%%5536ww.X +%%      %%%%      %%%%    %%%%",
"%%  %%    %%%%      %%%%6664qwO...%%      %%%%      %%%%    %%%%",
"%%      ww    ----ww          %$%%    66ww    66--ww    66--  22",
"%%      ww    ----ww          %%%%    66ww    66--ww    66--  44",
"  ww  66--ww  ----  6666ww  66    %%ww  66wwww  --  66ww  --  16",
"  ww  66--ww  ----  6666ww  66    %%ww  66wwww  --  66ww  --  %%",
"  --  66----ww  %%  --66  %%--    66--    66--    66----ww    %%",
"  --  66----ww  %%  --66  %%--    66--    66--    66----ww    %%",
"    %%    66--    %%--    %%%%------%%  ----%%    %%    ww  --  ",
"    %%    66--    %%--    %%%%------%%  ----%%    %%    ww  --  ",
"%%  %%66----66    %%----66  %%%%%%    66%%    66ww  %%66--66    ",
"%%  %%66----66    %%----66  %%%%%%    66%%    66ww  %%66--66    ",
"%%o   %%%%%%  66ww  %%%%--ww  %%  %%66    %%66  --ww    66  66  ",
"%%    %%%%%%  66ww  %%%%--ww  %%  %%66    %%66  --ww    66  66  ",
"  --ww      66----ww    ----ww    %%--    %%--  ----66ww  66--  ",
"  --ww      66----ww    ----ww    %%--    %%--  ----66ww  66--  ",
"  66----    %%--  ----  ----        %%--%%%%----------66  %%--  ",
"  66----    %%--  ----  ----        %%--%%%%----------66  %%--  ",
"--  %%  wwww  %%--    ww--  66ww  ww  %%    %%----66    ww  %%  ",
"--  %%  wwww  %%--    ww--  66ww  ww  %%    %%----66    ww  %%  ",
"--    6666--ww    6666--  66--66  --ww  wwww  %%66  66----ww  ww",
"--    6666--ww    6666--  66--66  --ww  wwww  %%66  66----ww  ww",
"--  66--  --66  %%------  %%--  --6666  ----ww    66    66--  ww",
"--  66--  --66  %%------  %%--  --6666  ----ww    66    66--  ww",
"  %%    %%66----------  %%66----------    %%--------66    66--  ",
"  %%    %%66----------  %%66----------    %%--------66    66--  ",
"  %%66ww  %%%%------  ww  %%%%------  wwww  %%----66  wwww  --  ",
"  %%66ww  %%%%------  ww  %%%%------  wwww  %%----66  wwww  --  ",
"ww  %%--ww    %%--    66ww    %%--    66--ww  %%%%  66  ww%%  --",
"ww  %%--ww    %%--    66ww    %%--    66--ww  %%%%  66  ww%%  <:",
"  %%  ----wwww      66  --wwww      66  66--ww    66----    ww9w",
" .%*  ----wwww      66  --wwww      66  66--ww    66----    wwww",
" o&%  --------    %%----------    %%----  66ww    %%%%----  ww  ",
"  %&  --------    %%----------    %%----  66ww    %%%%----  ww# ",
"%%  ww%%----66  ww  %%------66  ww  %%--66    wwww    %%--    :-",
"%%  ww%%----66  ww  %%------66  ww  %%--66    wwww    %%--    ,;",
"  %%--  %%    66--ww  %%%%    66--ww  %%66  66------ww  %%  ww@ ",
"  %%--  %%    66--ww  %%%%    66--ww  %%66  66------ww  %%  ww  ",
"  ww--ww  6666------ww    6666------ww  66------------ww  66--  ",
"  87--ww  6666------ww    6666------ww  66------------ww  66--  ",
"%%  %%--------  ww  %%--  %%----  66ww    66ww    %%66----66  --",
"%%  %%--------  ww  %%--  %%----  66ww    66ww    %%66----66  =-",
"  ww  %%----66  ww  %%--ww  %%--66    ww66    ww66  %%----66  08",
"  ww  %%----66  ww  %%--ww  %%--66    ww66    ww66  %%----66  79",
"ww  ww  %%    66--ww  %%--ww  %%66  66--66  66----ww  %%%%  ww  ",
"ww  ww  %%    66--ww  %%--ww  %%66  66--66  66----ww  %%%%  ww  ",
",<  --ww  6666--------ww----ww  66------66----------ww    ----  ",
">,  --ww  6666--------ww----ww  66------66----------ww    ----  ",
"  --66    %%--------    ------  %%66----%%66----------  %%----11",
"  --66    %%--------    ------  %%66----%%66----------  %%----11",
"  66  66ww    %%--  66ww--    ww    %%--    %%------  ww  %%--  ",
"  66  66ww    %%--  66ww--    ww    %%--    %%------  ww  %%--  ",
"  %%  66--wwww  %%  66--  66ww--wwww  %%wwww  %%--  66--ww  %%  ",
"  %%  66--wwww  %%  66--  66ww--wwww  %%wwww  %%--  66--ww  %%  ",
"--  %%66------    66  66  ----------ww  ----ww    66--    ww  ww",
":;  %%66------    66  66  ----------ww  ----ww    66--    ww  ww",
"ww    %%--66  66%%--66    %%%%----6666  --6666    %%%%--6666  ww",
"ww    %%--66  66%%--66    %%%%----6666  --6666    %%%%--6666  ww",
"  66--  %%66  --  %%----ww  ww    %%  66%%    66ww    %%%%  ww  ",
"  66--  %%66  --  %%----ww  ww    %%  66%%    66ww    %%%%  ww  ",
"  %%%%66    %%--    %%%%----  %%%%  ----  %%--------ww    %%--  ",
"  %%%%66    %%--    %%%%----  %%%%  ----  %%--------ww    %%--  ",
"%%        %%    %%%%        %%%%%%%%    %%            %%%%    %%",
"%%        %%    %%%%        %%%%%%%%    %%            %%%%    %%"
};
