/* XPM */
static char *bcadd46395434b85df141e174fb67fa8vjzQdALfCcvLtfDv[] = {
/* columns rows colors chars-per-pixel */
"10 10 18 1 ",
"  c #4E372A",
". c #4C392E",
"X c #503A2F",
"o c #543B2E",
"O c #563C2D",
"+ c #583D2E",
"@ c #433730",
"# c #4A3930",
"$ c #563C30",
"% c #5B3F30",
"& c #5B4031",
"* c #5F4233",
"= c #5D4034",
"- c #604333",
"; c #654636",
": c #674837",
"> c #674838",
", c #684938",
/* pixels */
"**&*&&*&**",
":oX%**%%O:",
";XX+o%++%;",
":%+X%XX+%>",
",*=% $=#$,",
",OoO#XO@.,",
">*OX%XXO%>",
";%++o%++%;",
":O%%**%%O:",
"****-*****"
};
