/* XPM */
static char *e57fc2921c4d46b499c4127ce513c0c5TTXkrLL4q6NJ5x3d[] = {
/* columns rows colors chars-per-pixel */
"64 64 250 2 ",
"   c #1A0C18",
".  c #1C0C1D",
"X  c #1B111C",
"o  c #2D0407",
"O  c #34030C",
"+  c #3C050C",
"@  c #3A0B0D",
"#  c #38100C",
"$  c #2A0517",
"%  c #220D14",
"&  c #2B0B13",
"*  c #250D1C",
"=  c #2B0C1B",
"-  c #330516",
";  c #3B0512",
":  c #340A13",
">  c #3C0C13",
",  c #350719",
"<  c #330D1B",
"1  c #3B0D1B",
"2  c #27121C",
"3  c #391417",
"4  c #34141C",
"5  c #3A131C",
"6  c #080D2C",
"7  c #1C0C24",
"8  c #140C28",
"9  c #1C0C2B",
"0  c #0D132E",
"q  c #0C1B2A",
"w  c #151627",
"e  c #1C1325",
"r  c #14132B",
"t  c #1B122B",
"y  c #090F36",
"u  c #160D34",
"i  c #0C1433",
"p  c #04163B",
"a  c #0D143C",
"s  c #0B1939",
"d  c #131333",
"f  c #1C1434",
"g  c #151A33",
"h  c #14143A",
"j  c #1B143C",
"k  c #121A3B",
"l  c #1D1A3B",
"z  c #240722",
"x  c #230C23",
"c  c #2B0B24",
"v  c #2A0D27",
"b  c #240C2B",
"n  c #320D22",
"m  c #231223",
"M  c #2C1323",
"N  c #23142A",
"B  c #2C142C",
"V  c #29192A",
"C  c #2C192D",
"Z  c #341424",
"A  c #3B1424",
"S  c #361923",
"D  c #33142B",
"F  c #3E162B",
"G  c #341A2D",
"H  c #3B1C2D",
"J  c #200A34",
"K  c #2D1633",
"L  c #221A32",
"P  c #2D1B35",
"I  c #281738",
"U  c #241C3C",
"Y  c #351C32",
"T  c #3C1C33",
"R  c #37193A",
"E  c #192035",
"W  c #3B232E",
"Q  c #27253B",
"!  c #382639",
"~  c #3A323C",
"^  c #410A0F",
"/  c #470B16",
"(  c #430C14",
")  c #430D1A",
"_  c #431315",
"`  c #43141B",
"'  c #4A141B",
"]  c #431A1D",
"[  c #4A1A1D",
"{  c #52141C",
"}  c #55191E",
"|  c #4D221D",
" . c #440F22",
".. c #431422",
"X. c #4B1522",
"o. c #4C1922",
"O. c #461B29",
"+. c #521722",
"@. c #531B24",
"#. c #5B1D26",
"$. c #551E29",
"%. c #5C1E2A",
"&. c #431E34",
"*. c #621F2B",
"=. c #4C2528",
"-. c #4D262D",
";. c #542225",
":. c #5E2226",
">. c #572926",
",. c #55242B",
"<. c #5D232B",
"1. c #52292D",
"2. c #5D2A2E",
"3. c #4C2434",
"4. c #4D2A33",
"5. c #47283A",
"6. c #552533",
"7. c #5C2531",
"8. c #532B32",
"9. c #5C2B33",
"0. c #572B3B",
"q. c #4E3139",
"w. c #63232D",
"e. c #68272C",
"r. c #64292E",
"t. c #702A2F",
"y. c #632532",
"u. c #632B34",
"i. c #682A35",
"p. c #683139",
"a. c #78363C",
"s. c #743A3C",
"d. c #78413D",
"f. c #081842",
"g. c #171C45",
"h. c #021A5B",
"j. c #221D45",
"k. c #0D2247",
"l. c #172549",
"z. c #1B244A",
"x. c #0E2A54",
"c. c #182655",
"v. c #0B345B",
"b. c #1C355B",
"n. c #262748",
"m. c #352445",
"M. c #253248",
"N. c #3A3145",
"B. c #242C55",
"V. c #342D57",
"C. c #263659",
"Z. c #2C395B",
"A. c #363658",
"S. c #0D2D6B",
"D. c #0A3A68",
"F. c #183666",
"G. c #1B3D66",
"H. c #153D6D",
"J. c #1B3B6A",
"K. c #163972",
"L. c #1C3C73",
"P. c #263964",
"I. c #2A366D",
"U. c #2A3A6C",
"Y. c #343963",
"T. c #243C73",
"R. c #2A3873",
"E. c #2B3B73",
"W. c #333D70",
"Q. c #462A49",
"!. c #4E3A4D",
"~. c #573444",
"^. c #572C50",
"/. c #6A3844",
"(. c #763A43",
"). c #7B3D45",
"_. c #7A3E49",
"`. c #433860",
"'. c #31465E",
"]. c #184267",
"[. c #1B446D",
"{. c #0C4577",
"}. c #0E4973",
"|. c #154373",
" X c #1B4274",
".X c #1B487A",
"XX c #294469",
"oX c #354766",
"OX c #284675",
"+X c #335176",
"@X c #794146",
"#X c #81383C",
"$X c #823A43",
"%X c #8A4246",
"&X c #143E88",
"*X c #084785",
"=X c #144584",
"-X c #05558B",
";X c #1C588A",
":X c #044B95",
">X c #134D91",
",X c #195A96",
"<X c #245389",
"1X c #2A5988",
"2X c #1B6496",
"3X c #14699B",
"4X c #35658C",
"5X c #2F6A92",
"6X c #2B769A",
"7X c #377299",
"8X c #0C5EA1",
"9X c #1963A8",
"0X c #1E7EAA",
"qX c #1978BA",
"wX c #3F6EA4",
"eX c #247AAD",
"rX c #297AA8",
"tX c #3779A6",
"yX c #296EB2",
"uX c #2979B7",
"iX c #367CB8",
"pX c #4A6C8A",
"aX c #51748D",
"sX c #456C9A",
"dX c #477799",
"fX c #537597",
"gX c #4679A7",
"hX c #4E7CAB",
"jX c #1B7EC3",
"kX c #2B7DC1",
"lX c #357EC3",
"zX c #997D8F",
"xX c #1F86AF",
"cX c #1B87BA",
"vX c #2A84AB",
"bX c #3481A8",
"nX c #2885B3",
"mX c #2583BB",
"MX c #2C83BB",
"NX c #3383B6",
"BX c #458198",
"VX c #4681A5",
"CX c #1A87C5",
"ZX c #1891C8",
"AX c #2584C5",
"SX c #3584C3",
"DX c #2A86D2",
"FX c #A6869B",
"GX c #A88CA7",
"HX c #AD92AF",
/* pixels */
"_ _ ] ] =.=.] 5 * * * * * Q {.{.D.{.}.{.f.l.! ! 5.5.!.Q.s k.D.D.}.].q q ~ ~ 4.4.5.5.k.k.}.}.*X*X}.{.= = = = n n ` ` ] ] [ [ _ _ ",
"_ [ 2.2.u.9.=.=.= = x L B.P.,X,X,X,X2X;X+XXXQ ! 5.5.~ N.oXoX;X;X;X;XoXoX! ! 8.8.! ! +X+X2X2X2X2X2X2Xn.n.N N A A @.@.<.<.<.<.[ ' ",
"_ ;.@X@X@X(.u.2.Z M u z.OX1XuXuXAXAXuXuXgXsX7 B 3.3.7 Q fXfXiXiXNXNXfXfXw e 0.0.x x gXgXMXMXuXuXiXiXT.T.j j &.&.w.w.a.a.a.a.} } ",
"_ ;.d.@X@X(.9.2.Z D u z.OX<XiXiXAXAXcXmXtX7X7 N 5.3.8 M.fXfXMXMXMXiXfXdXw w 5.3.7 7 gXgXmXmXAXuXiXiXL.L.j j O.O.w.w.$X$Xa.a.#.@.",
"# | d.d.@Xs.2.,.F D f g.J.=XlXlXCXCXCXcXrX6X8 e T T w M.dXdXMXMXmXuXVXhXi i D D t t bXbXCXCXAXAXiXiXL.L.j j O.O.*.*.$X$X$X$X*.%.",
"# [ s.s.s.s.9.9.D D h g.J..XuXuXqXqXcXcXrX6X8 e H G w M.fXdXMXMXuXuXhXgXi i G G t t tXtXCXCXqXqXyXyXL.L.j j F F i.i.$X$Xa.a.#.#.",
"# 3 >.>.2.9././.c b h g.J.L.*X*X-X8XcXnXtX6X8 7 Z Z w M.fXdXNXNXuXuXdXdXk k T T t t gXgXMXMX*X*X*X*XL.L.g.g.M M @X@Xe.y.*.*.( ^ ",
"# 3 ;.;.;.1./.0.b N g.c.F.H.=X*X-X-X0XeX7X5X8 7 Z M w Q pXpXtXtXrXrXsXsXg g Y Y e e 7X7XeXeX*X*X=X=XK.K.g.g.v v /./.*.*.%.%.^ ^ ",
"# # o o o & = c J j.I.I.h.x.[.[.[.[.|.[.C.C.z z = =   e A.Z.OXOX X XoXoX8 8 Z Z . . oXoXOXOXJ.J.T.L.h.h.E.E.u u $ $ - -  . ., , ",
"# # o o & & c v U n.I.I.c.c.G.G.].].].G.b.B.x z = =   e M.C.G.G.J.J.Y.Y.7 7 4 = * . Z.Z.XXXXF.F.J.J.x.S.E.E.U U $ * , -  . ., , ",
"3 3 5 4 2 = 7 L V.V.I.I.OXU.k k 0 i i i d f v v = = * * w w 6 6 a a f f m m % % * % t t g g d d f.f.E.E.E.E.Y.Y.7 7 n n A A = $ ",
"< 4 S Z 2 2 7 L V.V.I.I.W.U.k l C C K K K G A A 5 5 4 4 M M B B P P G G Z Z 3 3 4 4 Z D P P C C h h E.E.I.I.A.A.7 7 c c F F $ $ ",
"$ n Y G x x 7 9 f j.Y.Y.Y.V.z n :.:.:.:.:.:.:.:.:.:.:.:.:.:.:.:.:.:.:.:.:.:.:.:.:.:.:.:.:.:.:.:.t t Z.Z.Y.Y.l l N N z z T T $ $ ",
"c v Y P L L U U f g.Y.Y.V.V.n A :.:.:.:.:.:.:.:.w.w.w.:.:.:.:.w.w.w.w.w.:.:.:.:.:.:.<.:.<.<.:.<.V B C.C.C.C.j j U U L L T T * * ",
"I I i l.Z.Z.Y.Z.h h g.j 9 D 7.7.7.7.<.<.<.w.w.y.y.y.y.y.y.y.w.w.w.w.w.w.w.w.w.w.2.2.7.7.9.9.8.8.-.-.w w 6 6 a a Y.Y.Z.Z.g g t e ",
"n.n.b.].+XOXXXP.l.g.U I D F 7.7.7.7.<.<.w.w.w.y.y.y.y.y.y.y.y.w.w.w.w.w.w.w.2.2.2.2.2.2.9.9.8.1.-.-.S S 0 0 l.l.I.I.+X+Xb.b.g.l ",
"F..XbXvXvXrX=X.XT.P.K T <.<.7.7.y.y.y.y.w.w.w.w.y.y.u.u.u.u.y.y.y.y.w.w.w.w.<.<.<.<.,.,.>.>.1.1.-.-.:.:.r r T.T.=X=XNXNXtXtXL.K.",
"J..XvXvXvXrX;X;XT.P.K T <.<.<.7.<.<.<.<.%.%.:.<.7.7.u.u.u.y.y.y.w.w.w.w.w.w.:.:.;.;.;.;.;.;.=.=.-.-.:.:.r r T.T.,X,XNXNXtXrXL.J.",
"K.;XnXnXnXnXiXtXOXT.t D :.:.%.$.' / + ^ ^ ( X.+.$.$.,.,.<.<.<.<.:.:.w.w.:.:.} } ' ' @ @ O O 3 3 1.1.:.:.t t L.L.lXlXmXmXMXMXK.S.",
"H..XvXvXnXvXiXtXOXT.t D :.:.<.%.' / + + ^ ( ' X.@.$.$.,.,.,.<.<.:.:.:.:.#.#.[ [ _ _ @ @ O O 3 3 1.1.:.:.e e L.L.iXiXMXMXiXiXK.S.",
"B.XX4X5XtXtXsX7XP.C.e Z :.:.7.%.' / + + O O + ; ) ` X.X.@.@.<.<.2.2.:.:.' ' > > o o O O : : ` ` 6.6.:.:.x m b.b.gXgXhXhXgXgXc.z.",
"B.P.4X4X7X7X7X4XP.B.e Z :.:.7.<.X.' ; ; O O O ; ) ) X.X.@.@.<.<.w.2.#.#.' ' > > o o : : 1 1 O.O.6.6.:.:.x x b.b.wXwXgXgXsXsXB.n.",
"m.n.k s p p p a 0 r . 4 :.:.7.7.7.6.....A 1 $ $ , , > ) @.@.y.y.w.w.{ { ( ( : : < < Z Z &.&.~.~.-.-.:.:.* * y y f.f.f.f.y y N.Q.",
"m.m.l k s s a a r r * 4 :.:.7.7.6.6.0.4.A 1 $ - , , > ) +.@.y.y.r.r.{ { ^ ^ : : < < Z Z ~.~.0.0.3.3.:.:.* * 0 6 p a f.f.h h Q.Q.",
"0.0.5.5.Y Y G G = = & 3 :.<.6.6.$ !.FXzXz z c c - - + ^ { } #X#Xa.a.{ { + + - - v v b 9 HXHXz z 5.5.:.:.: : * * B B Y Y Q.Q.3.6.",
"0.0.5.5.Y Y G G = = & 3 :.<.6.6.$ !.FXzXC G Y D - - + ^ { } #X#Xa.a.{ { + + - - Y Y P P HXHXz z 5.5.:.:.: : * * B B Y Y 5.5.3.3.",
"H H V N . 7 m m M 2 = 5 :.:.7.6.3.-.n !.GXGXGXFX....' { e.t.%X%X%X%Xe.r.' ' 1 A GXGXGXGXb b T T 3.3.:.:.& & C C t t 8 9 7 7 T 3.",
"H H V N 8 7 m m M M = 5 :.:.7.6.3.3.n !.GXGXGXFX....' { e.t.%X%X%X%Xe.r.' ' 1 A GXGXGXGXb b T T 3.3.:.:.& & C C t t 9 9 7 7 T 3.",
"z.c.v.D.{.|.J.G.c.z.l Y :.:.<.7.y.y.y.7.X. .> ) $.@.' [ r.y.s.s.s.s.r.r.' ' o.o.1 1 ....0.0.6.6.,.,.:.:.* * F.F.*X*X*X*X.X.Xc.c.",
"z.c.v.D.{.|.J.G.c.z.l Y :.:.<.7.y.y.y.7.X...> ) $.@.' [ r.y.s.s.s.s.r.r.' ' o.o.1 1 ....0.0.6.6.,.,.:.:.* * F.F.*X*X*X*X.X.Xc.c.",
"+X1X3X6XeXrXgXwXJ.F.h K :.:.y.w.*.*.e.e.y.w.%.$.' ' + + + + + + + + + + @ @ ' ' 7.7.u.u.i.i.2.2.,.,.:.:.7 7 .X.XkXkXDXDXkXkX XL.",
"+X1X3X6XeXrXgXwXJ.F.h K :.:.y.w.*.*.e.e.y.y.%.$.' ' + + + + + + + + + + @ @ ' ' 7.7.u.u.i.i.2.2.,.,.:.:.7 7 .X.XkXuXDXDXlXkX XL.",
"+X+X2X6XrXtXhXsXP.B.d K :.:.y.w.:.:.:.:.<.<.<.<.7.7.7.7.6.6.7.7.7.7.7.7.<.<.;.;.' ' +.+.%.<.<.<.,.,.:.:.7 7  X XuXuXSXSXiXiXOXU.",
"+X+X5X6XrXtXhXsXC.B.d K :.:.y.w.:.:.:.:.<.<.<.<.7.7.7.7.6.6.7.7.7.7.2.7.<.<.;.;.' ' +.+.%.<.<.<.,.,.:.:.7 7  X XuXuXSXSXiXiXOXU.",
"n.n.v.v.[.[.P.Z.n.n.L G :.w.y.y.$.<.p.p.p.p.7.<.) ' ' ' ) ) ( ( ) ) ' ' ' ' ' ' u.u.p.p.u.u.@.@.1.1.:.:.. X b.b. X X|.|.[.[.z.z.",
"n.n.v.v.[.[.P.Z.n.n.L G :.w.y.y.$.<.p.p.p.p.7.2.) ` ' ' ) ) ( ( ) ) ' ' ' ' ' ' u.u.p.p.u.u.@.@.1.1.:.:.X X b.b. X X|.|.[.[.z.z.",
"&.R I I J J 9 9 V V V S :.:.y.7.X.@.u.u.u.2.' ' ; > @.@.@.@.( ( ( ( @.@.@.@.^ ^ ' ' u.u.9.9.o.o.1.1.:.:.% % L L d d u u f f R ! ",
"R R I I J J 9 9 V V V S :.:.y.7.X.@.u.u.u.2.' ' ; > @.@.@.@.( ( ( ( @.@.@.@.^ ^ ' ' u.u.9.9.o.o.1.1.:.:.% % L L d d u u f f R ! ",
"^.^.^.Q.R R Y P V V 2 S :.:.<.%.' ' ' [ ;.,.2.,.) ' u.u./.p.+.+.+.@.s.s.p.i./ / 2.2.;.;.` ` ] ] -.-.:.:.% % N N U U m.m.Q.Q.5.5.",
"^.^.^.Q.R R Y Y V V 2 S :.:.<.%.' ' ' ' ;.,.2.<.) ' u.u././.+.+.+.@.s.s.p.p./ / 2.2.;.;.5 5 ] ] -.-.:.:.% % N N U U m.m.Q.Q.5.5.",
"Q.m.U l d d g f e e 2 4 :.:.y.y.y.2.' ' > > _ _ O > 7.u.(.(.).).).).).).w.r.+ + ) ) > > ` ` 8.8.4.4.:.:.% % r r s s k k f f q.q.",
"5.! l k i i g g e e 2 4 :.:.y.y.y.2.' ' > > > > O > 7.y.(.(.).).).).).).w.r.+ + ( ( > > ` ` 8.8.4.4.:.:.% % q 0 s s s s r r q.q.",
"V.Y.1X4XdXdXpXpXM.M.e S :.:.y.y.y.y.2.2.;.;.;.@.' ' ' ' ,.<.p.p.p.p.#.#.{ { ' ' ,.$.,.,.1.1.8.8.-.-.:.:.X X C.C.dXdXdXdXfXfXm.Q ",
"V.Y.4X4XgXgXfXpXC.M.e S :.:.y.y.y.y.2.2.<.<.,.;.' ' ( _ +.@.p.p.i.p.@.@./ / { { ,.,.,.,.1.1.8.8.-.-.:.:.X X C.C.gXgXgXgXfXfXn.U ",
"=X,XeXeXnXvXtX7XXXG.g P :.w.y.y.w.w.y.y.i.y.w.w.@.+.( ( ( _ @.@.+.+.( ( ( ( @.@.7.7.9.9.9.9.8.8.4.4.:.:.r t .X.XiXiXSXSXlXlXK.S.",
">X,XeXeXnXnXtXtX[.G.k P :.w.y.y.w.w.y.y.i.i.w.w.@.@.( ( ( ( ' ' ' ' ( ( ( ( @.@.7.7.9.9.9.9.8.8.-.4.:.:.r 8 .X.XuXuXSXSXSXSX&XS.",
">X,XeXeXnXrX;X.XJ.F.l.m.:.:.y.y.*.w.w.y.e.e.w.w.#.#.@.+.[ [ [ [ [ [ [ [ @.@.,.,.7.7.9.9.9.9.8.8.-.-.:.:.d d  X X,X,XuXuXlXlX=X&X",
">X,XeXeXnXrX{.{.F.F.z.m.:.:.y.y.*.*.w.w.y.e.w.w.*.#.@.@.o.o.[ [ [ [ o.o.@.@.<.<.7.7.9.9.9.9.8.8.-.-.:.:.d d  X X,X,XyXyXlXlX>X=X",
"c.c.F.J.OXOXP.P.k.f.i f G &.y.y.w.w.y.w.w.w.w.w.*.*.#.#.<.<.,.,.;.;.;.;.:.:.<.<.2.2.9.9.9.9.,.,.-.-.B B a a k.k.U.U.OXOXJ.J.l.l.",
"f j f.g.P.P.P.C.i i 6 0 f T y.y.w.w.y.w.w.w.w.w.w.w.:.:.<.<.<.<.<.<.<.<.<.<.<.<.2.2.9.9.7.7.,.,.-.-.u u a a a a P.P.Y.Y.i i r r ",
"D D K K U U U l l Q n.B.V.V.D O.:.:.:.:.w.w.:.:.w.:.:.:.:.:.:.:.:.:.:.:.:.:.:.:.:.:.:.:.:.:.<.<.C C B.B.Y.Y.j j U U P P D D * * ",
"A A D B b b 9 t U n.V.V.A.V.9 A :.:.:.:.:.:.:.:.:.:.:.:.:.:.:.:.:.:.:.:.:.:.:.:.:.:.:.:.:.:.:.:.N N B.B.W.W.j j 9 9 c c Z Z & & ",
"5 5 F A c v N P A.A.I.E.E.U.a h P P K K B B A A 3 3 4 Z Z Z B B Y Y Z Z Z Z 3 3 4 4 M M V V V V k k T.T.E.E.A.A.z z = = ....: : ",
"1 5 A A c c N P A.Y.E.E.OXT.p p s a y y 8 8 M 2 2 = 2 m e e 0 0 l f 7 7 * * % % % % w w 0 0 i i f.f.T.T.E.E.`.`.z z - - X.X.< , ",
"> > > ; - - = M U n.I.I.x.S.H.H.H.H.H.J.P.C.* * = = . e A.A.P.P.P.P.V.V.x x & &     Z.Z.G.G.F.F.H.H.S.S.R.R.U U $ $ O O ' ' : : ",
"> > ; ; - - = z 9 g.I.I.h.x. X X|.|..X XU.C.. * = =   t A.A.XXXXXXXXA.A.x x & &     '.'.[.[.H.H.|.|.h.h.U.R.9 9 $ $ O O ) ) ; : ",
"( ' #.#.:.2.p.9.x b g.c.J.H.{.*X-X-XeXeX7X5Xe N H G g l.pXdXvXrX6X6XpXpXg g 4 4 X X 7X7XeXeX*X*X*X*XK.K.z.z.v v /./.@.@.@.@.; ; ",
"( ' w.w.w.u.(.p.* x y k. X X*X*X-X8XAXmXtX7Xt N W W g M.dXdXnXnXvXvXdXdXE E 4 4 e e tXtXmXmX:X:X*X*X X Xh h M M @X@X<.<.%.%.; ; ",
"_ } a.a.a.s.u.2.Z M d k. X=XuXuXqXcXZXAXbX6XL P H H i M.dXVXnXnXxXnXdXdXq q 4 4   X bXbXcXcXqXqXyXyXL.L.h h H H u.u.(.(.(.(.$.o.",
"_ } a.a.a.a.w.<.A Z d k.[.<XMXSXCXCXZXZXbX6XL P H H q M.VXVXcXcXxXxXBXdXq q 5 5     bXbXcXcXCXCXkXkXL.L.h h O.O.<.<.).)._._.$.$.",
"_ ;.).s.a.a.w.<.A A 6 g. X;XlXSXAXAXAXMXtX7XB G 3.3.t M.fXdXnXnXnXnXaXaXX X =.=.X . gXgXmXmXjXjXkXkXF.F.j j O.O.7.7._._._._.o.X.",
"_ ;.@X@Xs.s.<.:.A Z 6 f. X<XlXSXAXAXMXMX7X4Xv D 6.3.m Q pXaXeXeXNXNXaXaX    =.=.* * gXgXmXmXjXjXkXkXC.C.j j F F 7.7._._._._.` ` ",
"_ [ 2.2.2.<.[ [ < = 7 N n.P.9X9X9X9X9X2XOXXX&.&.9.6.W ! '.oX,X,X2X2X'.'.W W >.>.W W OXOX2X2X8X8X9X9XU U N N D D $.$.9.9.9.9.` _ ",
"_ _ ] ] [ [ ` 5 = = = * * n.:X:X:X:X>X=Xf.j.5.0.u.9.5.5.6 s *X*X{.{.0 r 5.5.>.>.5.5.p p *X*X*X*X:X:X* * * * D D ....o.o...] _ _ "
};
