/* XPM */
static char *dbc0d54db1b748b69c5a51838a562458TfAw5vQD4FQRVG3F[] = {
/* columns rows colors chars-per-pixel */
"64 64 252 2 ",
"   c #180B19",
".  c #1C0C1D",
"X  c #1A111C",
"o  c #2C0708",
"O  c #35070C",
"+  c #3C020A",
"@  c #3C0A0D",
"#  c #39100C",
"$  c #220D14",
"%  c #2B0B13",
"&  c #290618",
"*  c #250D1C",
"=  c #2B0C1B",
"-  c #330A13",
";  c #360817",
":  c #3B0D13",
">  c #330519",
",  c #22121A",
"<  c #2B121E",
"1  c #361012",
"2  c #33131C",
"3  c #391519",
"4  c #3C141B",
"5  c #080D2C",
"6  c #1B0C24",
"7  c #140C29",
"8  c #1B0C2B",
"9  c #0D122E",
"0  c #0B1B2A",
"q  c #151627",
"w  c #1B1325",
"e  c #14132C",
"r  c #1B122B",
"t  c #090E37",
"y  c #160D33",
"u  c #061736",
"i  c #0C1433",
"p  c #03163D",
"a  c #0D133C",
"s  c #0B1A3A",
"d  c #131333",
"f  c #1C1435",
"g  c #171A34",
"h  c #14153B",
"j  c #1B143C",
"k  c #131A3A",
"l  c #1D1A3B",
"z  c #220C23",
"x  c #260924",
"c  c #2B0B24",
"v  c #240C2C",
"b  c #310D23",
"n  c #231324",
"m  c #2C1223",
"M  c #24142B",
"N  c #2B152B",
"B  c #2A192C",
"V  c #331425",
"C  c #3B1423",
"Z  c #321A25",
"A  c #3B1924",
"S  c #32142C",
"D  c #3A152A",
"F  c #351A2C",
"G  c #3C1B2D",
"H  c #220C31",
"J  c #2A1634",
"K  c #231A32",
"L  c #241C3B",
"P  c #2A1A3B",
"I  c #351C33",
"U  c #351837",
"Y  c #3C1D32",
"T  c #182435",
"R  c #3A222D",
"E  c #25233D",
"W  c #37253A",
"Q  c #3A323C",
"!  c #41030D",
"~  c #430D0F",
"^  c #450412",
"/  c #440B12",
"(  c #470A17",
")  c #4A0D15",
"_  c #4D0E19",
"`  c #441415",
"'  c #43151C",
"]  c #4C131B",
"[  c #48181B",
"{  c #52141D",
"}  c #541A1D",
"|  c #5B1D1E",
" . c #4C211C",
".. c #4C1622",
"X. c #441921",
"o. c #451826",
"O. c #4D1B22",
"+. c #43172B",
"@. c #441C2C",
"#. c #531621",
"$. c #541B23",
"%. c #5B1D25",
"&. c #521F2B",
"*. c #5D1E29",
"=. c #621E25",
"-. c #621E2A",
";. c #631E33",
":. c #492527",
">. c #542425",
",. c #5E2226",
"<. c #53242B",
"1. c #5D232B",
"2. c #57282B",
"3. c #5B2A2E",
"4. c #4E2333",
"5. c #482838",
"6. c #582837",
"7. c #51313A",
"8. c #612226",
"9. c #62232C",
"0. c #622A2D",
"q. c #642631",
"w. c #672736",
"e. c #632A33",
"r. c #66323B",
"t. c #73343C",
"y. c #7B353D",
"u. c #77393C",
"i. c #78413D",
"p. c #061843",
"a. c #171B44",
"s. c #021A5B",
"d. c #261D42",
"f. c #3B1D40",
"g. c #0C2344",
"h. c #182548",
"j. c #072357",
"k. c #192755",
"l. c #123453",
"z. c #1A345D",
"x. c #272747",
"c. c #342646",
"v. c #273249",
"b. c #3E3347",
"n. c #242B54",
"m. c #362E57",
"M. c #263856",
"N. c #23325B",
"B. c #2C3A5B",
"V. c #363659",
"C. c #152A66",
"Z. c #0A3969",
"A. c #173867",
"S. c #1C3B65",
"D. c #1C3C6A",
"F. c #093677",
"G. c #143972",
"H. c #1C3D73",
"J. c #283867",
"K. c #2A366C",
"L. c #353A63",
"P. c #243B72",
"I. c #2A3873",
"U. c #2B3B72",
"Y. c #333C71",
"T. c #472947",
"R. c #52304B",
"E. c #673946",
"W. c #783444",
"Q. c #763A43",
"!. c #7A3B45",
"~. c #7B3E49",
"^. c #433860",
"/. c #2D425D",
"(. c #184166",
"). c #1B446D",
"_. c #0C4577",
"`. c #1B4274",
"'. c #114C76",
"]. c #194778",
"[. c #284267",
"{. c #354764",
"}. c #274576",
"|. c #325075",
" X c #35547B",
".X c #51445C",
"XX c #7A4146",
"oX c #74465A",
"OX c #444666",
"+X c #41657F",
"@X c #833846",
"#X c #873652",
"$X c #8A3752",
"%X c #86404A",
"&X c #143E88",
"*X c #0C4482",
"=X c #064886",
"-X c #144584",
";X c #08558B",
":X c #175586",
">X c #044B95",
",X c #154890",
"<X c #195897",
"1X c #2C5682",
"2X c #24538A",
"3X c #11679A",
"4X c #1C689B",
"5X c #37688C",
"6X c #256B95",
"7X c #356992",
"8X c #2C759A",
"9X c #387399",
"0X c #1C65A9",
"qX c #156CA9",
"wX c #1777B8",
"eX c #2A6DAC",
"rX c #2678A8",
"tX c #3679A5",
"yX c #2979B8",
"uX c #357CB8",
"iX c #496988",
"pX c #57748C",
"aX c #466D95",
"sX c #487898",
"dX c #537697",
"fX c #4679A7",
"gX c #4B7CAF",
"hX c #1A7CC1",
"jX c #2E7DC1",
"kX c #377EC2",
"lX c #1B88BA",
"zX c #2985AB",
"xX c #3581A9",
"cX c #2886B4",
"vX c #2583BB",
"bX c #2B83BC",
"nX c #3383B6",
"mX c #4781A5",
"MX c #1B86C5",
"NX c #1891C8",
"BX c #2584C5",
"VX c #3484C3",
"CX c #2A85D1",
"ZX c #7D92CB",
"AX c #7D99DA",
"SX c #8A859E",
"DX c #8B8CB1",
"FX c #9694B7",
"GX c #A18DB6",
"HX c #9394C8",
"JX c #859BD5",
"KX c #82A0E3",
/* pixels */
"` ` [ [ :.:.' 3 * * * * * E _._.F._.'._.p.g.W W 5.5.R.T.s s Z.Z.(.(.0 0 Q Q 5.5.5.5.g.g._._.:X:X_._.* * = = V b ' ' ' ' [ [ ` ` ",
"` [ >.>.2.2.:.X.= = z M x.N.:X:X;X;X:X:X(.M.W W 5.5.b.b.B.B.'.'.'.'.M.M.Q Q 5.5.W W [.[.:X:X<X<X:X:XL L n n V V O.[ >.>.>.>.` [ ",
"` >.XXXXXXQ.e.2.V m y h.}.2XyXuXBXBXyXyXfXaX6 N 5.5.6 x.dXdXuXuXnXnXdXdXw w 6.6.z z gXgXbXbXyXyXuXuXP.P.j j @.@.9.9.u.u.u.u.} } ",
"` >.XXXXXXQ.e.2.V V y h.}.2XuXuXBXBXvXyXfX9X6 M 5.5.6 x.dXdXnXnXbXnXdXdXq q 4.4.z z fXgXvXvXyXyXuXuXH.H.j j @.@.9.9.y.!.y.u.$.} ",
"#  .i.i.XXQ.3.<.D S f a.A.2XVXVXMXMXNXlXrX8X7 r Y Y q v.sXfXbXbXvXvXmXmXi i S S r r xXxXMXMXBXBXuXuXH.H.f f @.@.=.=.%X%X@X@X-.-.",
"#  .u.u.u.u.3.6.D S d a.D.-XuXyXwXwXlXlXrX8X7 w Y F q v.sXsXbXbXyXyXgXgXi i Z Z r r xXxXlXlXyXwXeXeXH.H.f f +.+.w.w.@X@XW.W.*.%.",
"# 3 2.2.3.3.E.E.x x h a.D.H.=X=X;X3XlXcXtX8X7 6 V V q v.dXsXnXnXyXyXsXsXk k Y Y r r fXfXbXbX=X=X*X*XH.H.a.a.m m XXXXw.w.-.-.^ ^ ",
"# 3 >.>.>.2.E.7.x H a.k.A.G.*X*X;X;XrXrX8X7X7 6 V m q E iXiXtXtXeXeXaXaXd d I I r r 9X9XyXyX*X*X-X-XH.H.a.a.c c E.E.-.-.*.*.^ : ",
"1 1 o o o % = x H d.K.J.p.j.).).).).).).N.N.z z = =   w V.B.}.}.`.`.{.{.7 7 V V . . {.{.}.}.D.D.H.H.s.s.U.U.y y & & ; > ' ' ; ; ",
"1 1 o o % % x c L x.K.J.j.k.D.S.(.(.(.(.z.n.z z = =   w v.M.S.S.D.D.L.L.6 6 m 2 * . B.B.[.[.S.S.D.D.C.C.U.U.L L & & > > ' ' ; ; ",
"2 2 3 2 < < 6 K m.V.K.K.U.K.k k e i i i d f c c = = , , q q 5 5 s s f f n n $ $ $ $ r r g g d d a.a.U.U.U.U.L.L.6 6 b b C C = > ",
"- 2 A V < < 6 K m.m.K.K.U.K.k l B B J J J N V V 2 2 2 2 m m M M P P B B V V 2 2 2 2 N N J J N N h h U.U.K.K.V.V.6 6 c c D D > > ",
"> = I I z z 6 8 f d.L.L.L.m.z b ,.,.,.,.,.,.,.,.,.,.,.,.,.,.,.,.,.,.,.,.,.,.,.,.,.,.,.,.,.,.,.,.r r B.B.L.L.l l M M z z Y Y & & ",
"= b I I K K K f f d.L.L.V.m.c C ,.,.,.,.,.,.,.,.,.,.,.,.,.,.,.,.,.,.,.,.,.,.,.,.,.,.,.,.,.,.,.,.M M M.M.B.B.l l L L M M Y Y * & ",
"P P i k B.B.L.B.h h a.j 8 S 1.1.,.,.,.,.,.,.,.,.,.,.,.,.,.,.,.,.,.,.,.,.,.,.,.,.,.,.,.,.,.,.,.,.:.:.q q 9 9 a a L.L.B.B.g d r r ",
"d.d.g.l.[.[.L.B.a.a.a.L v S 1.1.,.,.,.,.,.,.,.,.,.,.,.,.,.,.,.,.,.,.,.,.,.,.,.,.,.,.,.,.,.,.,.,.:.:.n n 9 9 a.a.J.J.[.[.h.h.f f ",
"A.].xXzXzXrX-X].P.J.I Y 1.1.$.} / ~ O @ @ : [ [ 1.1.q.9.9.9.,.,.,.,.2.3.2.2.4.4.X.X.: : # # 1 1 2.2.,.,.e e P.P.*X*XnXnXtXtXH.D.",
"A.].xXzXzXrX-X].P.J.I Y 1.1.$.} / ~ O @ @ : [ [ 1.1.9.9.9.9.,.,.,.,.2.2.<.<.<.<.X.X.: : # # 1 1 2.2.,.,.e e P.P.-X-XnXnXtXtXH.D.",
"G.:XzXzXcXcXuXtX}.P.r Z ,.,.,.$.] ` @ @ : : : : : : : ` 8.8.8.8.8.8.>.>.- - - - O O O O @ @ : : >.>.,.,.r r H.H.kXkXvXvXnXnXG.Z.",
"G.:XzXzXcXcXuXtX}.P.r Z ,.,.,.$.] ` @ @ : : : : : : : ` 8.8.8.8.8.8.>.>.- - - - O O O O @ @ : : >.>.,.,.r r H.H.kXkXvXvXnXnXG.Z.",
"N.[.5X7XtXtXfX7XJ.N.w V ,.,.8.1.$.O.@.G B B n n = = : 4 0.0.| | } } 3.3.2 2 * * M M S S @.@.<.<.2.2.,.,.z z z.z.fXfXgXgXfXfXk.k.",
"N.[.5X7XtXtXfX7XJ.N.w V ,.,.8.1.$.O.@.A N N n n = = : 4 0.0.| | } } 3.3.2 2 * * v v N N @.@.<.<.2.2.,.,.z z z.z.fXfXgXgXfXfXk.k.",
"c.x.k s p p p u 9 e . 2 ,.1.0.3.o.D 8 OXJXJXZXZXe r 2 C 3.3.} } $.%.2.2.Z Z 9 d JXJXZXZXH H @.@.,.,.,.,.* * t t p.p.p.p.t t b.T.",
"c.x.s s p p p u 9 e . 2 ,.1.0.3.o.D 8 OXJXJXZXZXe r 2 C 3.3.} } $.%.2.2.Z Z 5 9 JXJXZXZX8 8 @.@.,.,.,.,.* * i t p.p.p.p.t t b.T.",
"7.7.5.5.I I F Z < < % 3 ,.,.1.<.2 .XFXFXAXAXAXZXDXSX2 2 ] $.y.W.W.W...' < Z FXFXKXKXAXAXGXGX> > ,.,.,.,.- - * * N N I I T.T.4.4.",
"7.7.5.5.I I F Z < < % 3 ,.,.1.<.2 .XFXFXAXAXAXZXDXSX2 2 ..$.y.y.W.W.....< Z FXFXKXKXAXAXGXGX> > ,.,.,.,.- - * * N N I I T.T.4.4.",
"G G N M 6 6 n n m < < 3 ,.,.,.,.&.O.z OXHXHXFXDX$ % #.#.;.w.$X$X$X#X;.;.X.X.. . HXHXHXHXx x ....,.,.,.,.% % B B r r 7 7 6 6 Y 5.",
"G G N M   6 n n m < < 3 ,.,.,.,.&.O.z OXHXHXFXDX$ = #.#.;.w.$X$X$X#X;.;.X.X.. z HXHXHXHXc c ....,.,.,.,.% % B B r r 8 7 6 6 Y 5.",
"x.k.Z.Z._._.D.S.k.h.l I ,.,.,.,.9.e.E.R.v M J I X.' ! _ @X@X$X$X$X$XW.W.: : A A P P H H oXoXq.q.,.,.,.,.* * S.S.*X*X=X=X].].k.k.",
"x.k.Z.Z._._.D.S.k.h.l I ,.,.%.,.3.e.E.R.8 v J S X.' ! ] @X@X$X$X$X$XW.W.: : G A J J v H oXoXq.q.,.,.,.,.* * S.S.*X*X=X=X].].k.k.",
"|. X4X4XrXrXfX9XS.A.h J ,.,.,.8.3.3.6.6.4.4.4.4.] ] ^ ^ ^ ^ ^ ^ ^ ^ ^ ^ / / ....6.6.6.6.w.w.q.q.,.,.,.,.6 6 ].].yXyXCXCXjXjX`.H.",
"|.1X4X6XrXrXfXtXS.A.h J ,.,.8.1.3.3.6.6.4.4.4.4.] ] ^ ^ ! ! ^ ^ ^ ^ ! ! / / ....6.6.6.6.e.e.q.q.,.,.,.,.6 6 ].].jXjXCXCXjXjX`.H.",
"|. X6X6XrXtXfXaXJ.N.d S ,.,.9.9.9.9.3.1.*.*.1.1.1.1.*.*.1.1.9.9.9.9.1.1.1.1.1.1.#.#.#.#.*.*.9.9.,.,.,.,.6 6 `.`.yXyXVXVXuXuX}.P.",
"|. X6X6XrXtXfXaXB.N.f S ,.,.9.9.9.9.3.1.%.*.1.1.1.1.1.1.9.9.q.q.w.w.9.9.1.1.1.1.#.#.{ { %.%.9.9.,.,.,.,.6 6 `.`.yXyXbXVXuXuX}.J.",
"v.n.A.(.].].}.[.x.x.K F ,.,.1.9.-.*.{ *.Q.Q.~.Q.] ] / / : / ] ] ] ] / / / / { { Q.Q.W.W.#.#.q.q.,.,.,.,.. 6 z.z.].].'.'.}.].k.k.",
"x.x.l.l.).).J.B.x.x.K F ,.,.1.1.-.*.{ *.!.!.%X~.] ] + + + + / / / / + + ! ! ] ] !.!.Q.Q.#.#.q.q.,.,.,.,.. . z.z.`.`._._.).).h.h.",
"f.f.d.d.d.d.l l K K B A ,.,.*.*.{ 1.!.Q.w.q.] [ ! / #.#.$.$.] ] ] ] %.%.#.#.! ! ....w.w.Q.Q.#.#.,.,.,.,.. . E E a.a.a.a.h.h.W W ",
"Y U U J H H 8 8 M M B A ,.,.*.*.{ 1.XX~.q.1.+ + + / $.$.1.1.] ] ] ] 1.1.$.$.+ + ! ! w.w.~.~.] ] ,.,.,.,.$ $ f K d d y y f f U W ",
"R.R.T.T.U U J J M B < A ,.,.1.%.] 1.~.Q.e.3.! ! + / 9.q.Q.Q.t.t.Q.Q.Q.Q.1.1.! ! ^ ^ q.q.~.~.{ { ,.,.,.,.$ $ M M P P c.c.T.T.5.5.",
"R.R.R.T.U U U J M B < A ,.,.1.%.] <.!.Q.e.3.! ! + / 0.w.~.~.Q.!.~.~.!.!.9.9.! ! ^ ^ q.q.~.~.#.#.,.,.,.,.$ $ M M P P c.c.T.T.5.5.",
"T.T.d.P f f f f w w , 2 ,.,.1.,.] [ $.>.0.3.#.] + ! ] { q.w.~.~.!.!.q.q.] ] ! ! 1.1.1.1.#.#.%.%.,.,.,.,.$ $ e e k k l l K K 7.7.",
"5.W l k t i g g w w , 2 ,.,.1.1.] ] / ] 3.3.$.#.! ! ^ ) 9.9.~.~.!.!.1.1.^ ^ ! ! 9.9.*.*.! ! *.*.,.,.,.,.$ $ 9 9 s s s s e e 7.7.",
"m.L. X1X9XaXiXiXv.v.w Z ,.,.1.1.1.1._ ) / / ) ) { { ) ) ) ) O.O.$.$.) ) ) ) { { ) ) / / ] _ q.q.,.,.,.,.X X M.M.aXaXaXaXaXaXc.W ",
"m.L.5X5XfXfXdXiXM.v.w Z ,.,.8.9.9.1.] ) + + ! ) { { ) ) ! ! + + ( ( ! ! ) ) } } ! ! + + ] ] q.q.,.,.,.,.X X B.B.fXfXfXfXdXdXx.L ",
"-X<XrXrXzXxXfX9X[.S.g I ,.,.8.9.8.8.9.8.%.%.%.*.9.9.} { _ _ _ _ _ _ _ _ } } *.*.8.8.$.$.*.*.q.q.,.,.,.,.r r ].].uXuXVXVXkXkXG.G.",
",X<XyXyXcXcXtXtX).S.k I ,.,.9.9.=.8.9.9.8.8.8.9.0.9.$.$.{ { { { _ _ { { } } ,.,.q.q.*.*.9.9.q.q.,.,.,.,.r r ].].yXyXVXVXVXVXF.F.",
",X<XrXrXcXrX:X:XD.A.h.c.,.,.,.,.,.,.8.8.,.,.8.8.9.8.*.=.*.*.*.*.*.*.*.*.8.8.8.8.8.8.=.=.-.-.-.-.,.,.,.,.d d `.`.<X<XyXyXkXkX,X&X",
",X<XrXrXcXrX_._.A.A.h.c.,.,.,.,.,.,.,.,.,.,.,.8.8.8.9.9.-.-.-.-.9.9.9.9.8.8.8.8.8.8.=.=.-.-.-.-.,.,.,.,.d d `.`.<X<XeXeXkXkX,X,X",
"k.k.A.).}.}.J.J.g.a.i f F @.,.,.,.,.,.,.,.,.,.,.,.,.,.,.9.9.9.-.9.9.9.9.8.8.8.8.8.8.=.=.8.8.-.-.9.9.S S a a j.j.P.}.|.|.D.D.k.k.",
"f j p.a.J.J.L.B.i i 5 9 f F ,.,.,.,.,.,.,.,.,.,.,.,.,.,.9.9.9.9.9.9.9.9.8.8.8.8.8.8.=.=.8.8.-.-.-.-.y y a a a a J.J.L.L.i i e e ",
"S S J J d.x.E E l l x.n.m.c.D o.,.,.,.,.,.,.,.,.,.,.,.,.,.,.,.,.,.,.,.,.,.,.,.,.,.,.,.,.,.,.,.,.G G n.n.J.J.j j L L P P N N * * ",
"C V S S v v 8 r L x.m.m.V.m.8 S ,.,.,.,.,.,.,.,.,.,.,.,.,.,.,.,.,.,.,.,.,.,.,.,.,.,.,.,.,.,.,.,.M M n.n.Y.Y.f f 8 8 z z V V % % ",
"4 C D D x c M K V.V.K.K.Y.K.d f I I F S D D X.X.' ' A A A A D D Y Y C C C C 4 4 3 3 A A F F F F k k P.P.U.U.m.m.x z > > C o.- - ",
"4 2 C C = c M P V.L.U.U.}.P.p p s s t t 7 7 m m = = < n w w 9 9 f f 6 6 * * $ $ $ $ q q 9 9 i i p.p.P.}.U.U.^.^.x x > > X.X.; ; ",
": : ; ; > > z N x.n.U.K.C.C.A.A.A.A.A.A.N.n.* * = = . n v.v.M.M.M.M.c.c.z z % % $ $ v.v.z.z.z.z.A.A.C.C.I.I.c.c.& & O O ' ' ; ; ",
": : @ @ ; ; & * r a.K.J.s.j.`.`.].].].`.J.J.. * = =   r V.V.[.[.[.[.V.V.z z % %     /./.).).G.G.`.`.j.s.K.K.8 8 > > O O ( ( ; ; ",
"/ ` $.$.$.<.6.6.z M k.k.A.G.'.'.=X:XrXrX7X1Xw n A Z e h.iX5X8X8X6X6XiX+Xr r 2 2 X X 5X5XrXrX*X*X*X*XA.A.k.k.c c r.r.#.#.$.$.@ @ ",
"/ ] 9.9.0.e.Q.r.* z t g.`.`.=X=X;X3XBXvXtX8Xr M R R g v.sXsXcXcXzXzXsXsXT T 2 2 w w tXtXvXvX=X=X=X=X`.`.h h m m XXXX1.1.*.*.@ + ",
"` } t.t.t.t.r.e.2 m d g.`.].eXeXwXwXNXBXxX8XK K G F i l.mXmXcXcXzXzXsXsX0 0 2 2 X X xXxXlXlXwXwX0X0XH.H.h h D D r.r.t.t.t.t.O...",
"` } u.u.y.u.8.1.C V d h.).2XbXVXMXMXNXNXxX8XK J G F 0 l.mXmXlXlXlXlXmXsX0 0 3 2     xXxXlXlXMXMXjXjXH.H.h h @.@.1.1.~.~.~.~.<.&.",
"` >.u.!.u.u.8.,.C V 9 g.`.2XjXVXMXMXBXbXtX9XN S 4.4.r v.sXsXcXcXcXcXdXpXX X :.:.X X fXfXvXvXMXhXjXjXS.S.j j G G 1.1.~.~.~.~.O...",
"` >.XXXXu.t.1.,.C V 5 a.`.2XjXVXBXBXbXbX9X5Xc S 6.4.n E pXaXrXrXnXnXpXpXX X :.:., , fXfXvXvXhXhXjXjXN.N.j j D D 6.6.~.~.~.~.' ' ",
"` [ 0.0.3.3.O.O.2 = 6 r n.J.0X0XqXqX0X6X}.}.@.4.6.6.R W {.{.<X4X4X4X{.{.R R >.>.R R |.|.4X4X3X3X0X0XE x.M M D D &.&.6.6.6.6.' ` ",
"` ` [ [ [ [ ' 4 & & * * * x.>X>X>X>X,X-Xp.d.5.6.w.w.5.5.5 s _.=X_._.9 e 5.5.2.2.5.5.p p =X=X=X=X>X>X* * * * S S o.o.X.X.' ' ` ` "
};
