/* XPM */
static char *trees1706105222[] = {
/* columns rows colors chars-per-pixel */
"64 64 211 2 ",
"   c #191E2F",
".  c #171E31",
"X  c #1C272E",
"o  c #1A2334",
"O  c #182434",
"+  c #1B2933",
"@  c #1B2A3B",
"#  c #1C333D",
"$  c #1E3A3E",
"%  c #25372E",
"&  c #252634",
"*  c #232C36",
"=  c #312C37",
"-  c #213336",
";  c #283936",
":  c #223A3B",
">  c #38363B",
",  c #3C343B",
"<  c #42373D",
"1  c #2E482E",
"2  c #37572A",
"3  c #2B4435",
"4  c #294538",
"5  c #2E4C3E",
"6  c #334D32",
"7  c #374B38",
"8  c #355333",
"9  c #305037",
"0  c #3A5533",
"q  c #3C5C34",
"w  c #32533D",
"e  c #355B3F",
"r  c #3A5A3A",
"t  c #3D6221",
"y  c #3E6138",
"u  c #48483D",
"i  c #455E3A",
"p  c #505D3D",
"a  c #446D25",
"s  c #477127",
"d  c #487227",
"f  c #4A7329",
"g  c #4C7B2E",
"h  c #426533",
"j  c #456B33",
"k  c #446937",
"l  c #477131",
"z  c #4C7434",
"x  c #4D7A32",
"c  c #4B7539",
"v  c #527D34",
"b  c #577C3B",
"n  c #1E2D41",
"m  c #1C3443",
"M  c #1D3B44",
"N  c #1D3E49",
"B  c #203245",
"V  c #253E45",
"C  c #22354A",
"Z  c #223A4D",
"A  c #253D52",
"S  c #4B3D41",
"D  c #1E434C",
"F  c #1F494A",
"G  c #1F4B52",
"H  c #234246",
"J  c #2A4C46",
"K  c #22444B",
"L  c #224C4C",
"P  c #2C5243",
"I  c #22544C",
"U  c #29594A",
"Y  c #355944",
"T  c #345C44",
"R  c #254255",
"E  c #274856",
"W  c #214D54",
"Q  c #29465D",
"!  c #264B5B",
"~  c #2A495E",
"^  c #225255",
"/  c #22555B",
"(  c #295759",
")  c #235B5D",
"_  c #2C644B",
"`  c #366544",
"'  c #3D7447",
"]  c #266958",
"[  c #287359",
"{  c #2A785B",
"}  c #337D58",
"|  c #2A4D60",
" . c #275561",
".. c #295363",
"X. c #255D62",
"o. c #295C65",
"O. c #246464",
"+. c #2C6463",
"@. c #266C64",
"#. c #2C6B65",
"$. c #276669",
"%. c #286469",
"&. c #266C6C",
"*. c #286A6D",
"=. c #277267",
"-. c #2C7365",
";. c #2C7A65",
":. c #27716F",
">. c #28756E",
",. c #2A7B6D",
"<. c #317163",
"1. c #277270",
"2. c #287471",
"3. c #534242",
"4. c #5B4945",
"5. c #634D48",
"6. c #6A514B",
"7. c #75584C",
"8. c #7A5C4E",
"9. c #426F47",
"0. c #586D43",
"q. c #477240",
"w. c #5A7A47",
"e. c #6A6947",
"r. c #75684B",
"t. c #627144",
"y. c #8D6852",
"u. c #926C51",
"i. c #9D7353",
"p. c #A37755",
"a. c #4E802B",
"s. c #52852D",
"d. c #55892F",
"f. c #558334",
"g. c #588735",
"h. c #578B31",
"j. c #5A8C33",
"k. c #56843A",
"l. c #5C8C3A",
"z. c #5D9233",
"x. c #5E903A",
"c. c #629635",
"v. c #659C37",
"b. c #64973A",
"n. c #679D38",
"m. c #689F38",
"M. c #6BA13C",
"N. c #2B815F",
"B. c #378658",
"V. c #3E955C",
"C. c #2D8566",
"Z. c #2D8D66",
"A. c #2B836D",
"S. c #2D8B6B",
"D. c #358966",
"F. c #328C69",
"G. c #2F956A",
"H. c #2F986B",
"J. c #3B9563",
"K. c #369B67",
"L. c #3A9E66",
"P. c #319669",
"I. c #339969",
"U. c #3EA164",
"Y. c #478A4C",
"T. c #4A9A55",
"R. c #698D4D",
"E. c #7B8D4E",
"W. c #6A9844",
"Q. c #6C9752",
"!. c #4DA55F",
"~. c #4DAC5E",
"^. c #55AA56",
"/. c #50AD5D",
"(. c #54B25B",
"). c #5AB558",
"_. c #5AB659",
"`. c #6EA340",
"'. c #71A544",
"]. c #75A749",
"[. c #77A94B",
"{. c #7CA959",
"}. c #64B95A",
"|. c #69BB5A",
" X c #76BA5B",
".X c #469C61",
"XX c #43A562",
"oX c #4AA560",
"OX c #47A861",
"+X c #49A960",
"@X c #76C15C",
"#X c #7AC15D",
"$X c #97AC57",
"%X c #84B15B",
"&X c #83BE5C",
"*X c #90B15A",
"=X c #838C6A",
"-X c #86B360",
";X c #8AB565",
":X c #85C45D",
">X c #8CC65E",
",X c #95CA5F",
"<X c #9BCD60",
"1X c #A5CE60",
"2X c #ADD261",
"3X c #B3D462",
"4X c #BBD663",
"5X c #BDD863",
"6X c #C0DA64",
"7X c #F6E47A",
"8X c #CEDCA1",
/* pixels */
"m.m.[.M.m.m.m.m.m.m.m.m.m.m.m.m.m.m.m.m.m.m.m.m.m.m.m.m.m.m.n.n.x z.m.m.m.m.m.m.m.m.m.m.m.m.m.m.m.m.m.m.M.M.v.m.m.m.m.m.m.m.m.m.",
"M.%X8X%Xm.m.m.m.m.m.m.m.m.m.m.m.m.m.m.m.m.m.v.m.m.m.m.m.m.n.c.z.1 b m.m.m.m.m.m.m.m.m.m.m.m.m.m.m.m.m.m.v.M.m.m.m.m.m.m.m.m.m.m.",
"[.8X7X8X].m.m.m.m.m.m.m.m.m.m.m.m.m.v.m.m.z.z.n.m.m.m.m.m.m.v.j ; h n.m.m.m.m.m.m.m.v.M.m.m.m.m.m.m.m.m.v.v.v.M.v.d.M.m.m.m.m.m.",
"M.%X8X%XM.m.m.m.m.m.m.m.m.m.m.m.m.m.z.m.v.f v.n.m.m.m.m.m.m.z.0 $Xt.j.n.m.n.m.m.m.m.v.v.m.m.m.m.m.m.m.m.v.M.M.v.z.d v.v.m.m.m.m.",
"m.m.].m.m.m.m.m.M.v.m.v.z.v.m.m.m.m.v.z.v.z.v.m.m.m.m.m.m.c.q E.6X$X0 z.v.z.v.m.v.z.d.v.M.v.v.M.m.m.m.m.M.M.M.v.d.z.M.M.m.m.m.m.",
"m.m.m.m.m.m.m.m.v.M.v.z.v.m.m.m.m.m.v.v.m.v.z.v.m.m.m.m.v.a.t.4X5X5Xw.y c.j.h.v.d.a.a v.v.M.M.v.m.m.m.M.%XM.M.v.d v.M.m.m.m.m.m.",
"m.m.m.m.m.m.m.m.v.v.m.v.m.m.m.m.m.v.z.c.v.f v.v.m.m.m.m.v.6 $X6X5X6X,Xw f v.d.v.d.a z.v.M.v.M.v.m.m.m.m.M.%XM.M.v.m.M.:XM.m.m.m.",
"m.m.m.m.m.m.m.m.m.M.m.m.m.m.m.m.m.m.z.s z.v.v.m.m.m.m.m.f 0.4X4X5X5X5XQ.3 d.d c.z.c.v.v.v.M.v.M.m.m.m.m.M.:XM.].%XM.%XM.m.m.m.m.",
"M.v.v.M.m.m.m.m.m.m.m.m.m.m.m.m.m.m.v.h.v.M.m.m.m.m.m.v ` 1X4X3X5X4X3X1X` 0 z.M.M.v.d.v.M.v.h.z.m.m.m.m.M.M.M.%X'.M.M.m.m.m.m.m.",
"v.z.v.M.m.m.m.m.m.m.m.m.m.m.m.m.m.m.m.v.v.M.m.m.m.m.c.8 {.4X<X<X6X>X:X4X X4 j v.v.c.a d.v.h.s.h.m.m.m.m.m.M.M.%XM.M.m.m.m.m.m.m.",
"d.v.v.d.v.m.M.m.m.m.m.m.m.m.m.m.m.m.m.m.M.M.v.m.m.n.h ' 1X2X#X2X,X|.:X>X,X%X_ l v.M.c.d.c.s.a c.m.m.m.m.m.m.m.M.m.m.m.m.m.d.m.m.",
"d.v.c.s c.M.'.M.m.m.m.m.m.m.m.m.m.m.].M.v.v.m.m.m.f.w :X2X X|.>X|.,X:X~._.#X^.I j v.c.s z.s z.n.m.m.m.m.m.m.m.m.m.m.m.m.c.d c.m.",
"t z.h.z.M.'.%X-XM.m.m.m.m.m.m.m.M.%X8X%Xm.m.m.m.c.8 T. X|.)._._.>X>X}.XXXX)._.~.] q z.v.M.z.n.n.m.m.m.m.m.m.m.m.m.m.m.m.m.c.d.m.",
"t z.d v.M.%X].M.M.m.m.m.m.m.m.v.].8X7X8X].m.m.v.q ' _.)._./.(.}.|.,X@X(.J.T.^._.!.[ j z.M.M.M.v.m.m.m.m.m.m.m.m.m.m.m.m.m.v.a c.",
"v.M.v.M.M.M.v.M.M.M.m.m.m.m.m.m.M.%X8X%Xm.m.c.k _ (._.).XXXX(._.@X#X}.).+X} P B.~.U.{ y s.d.c.v.m.m.m.v.z.v.m.m.m.m.m.m.M.v.c.M.",
"M.M.M.%X%XM.M.].&X*XM.m.m.m.m.m.m.M.W.x.l.c _ } (.(.T.B.V.(.}._.}.).).)._./.Z.I U B.P.Z.] I 8 c.m.m.m.m.v.z.v.m.m.m.v.M.v.m.m.m.",
"v.M.%XM.M.M.M.%XM.M.M.m.m.m.m.m.m.v.q I ] N.K.!.B._ M U ^._.(..XU._.(.XX+X).(.F.D @ $ U U e x v.m.m.m.m.m.v.m.m.m.m.m.m.m.m.m.m.",
"v.M.M.M.M.M.M.M.m.m.M.M.m.m.m.m.m.m.z.f 8 w w $ O @ ] T.oXD.D.F.XXU.XXP.G.L.XXU.A.] + x h.v.M.M.m.m.m.m.m.m.m.m.m.m.M.].m.m.m.m.",
"M.m.m.m.m.m.M.v.m.m.m.m.m.m.m.m.m.m.m.m.n.z.y X D -.oXoX,.2.A.K.(.XXH.G.G.G.P.U.G.,.m 2 v.v.z.v.m.m.m.m.m.m.m.m.m.m.%X8X%Xm.m.m.",
"v.v.m.m.m.v.M.v.m.m.m.m.m.m.m.m.m.m.m.m.M.h.% F 1.F.U.Z.S.S.S.P.U.~.U.H.P.G.G.G.G.G.=.D l d.d.M.m.m.m.m.m.m.m.m.m.].8X7X8X].m.m.",
"m.m.m.m.m.m.m.m.m.m.m.m.v.M.m.v.m.m.M.n.z.1 D :.S.P.K.K.G.A.H.H.P.I.I.P.P.G.G.G.G.H.Z.@.m 2 j.v.m.m.m.m.m.m.m.m.m.M.%X8X%XM.m.m.",
"m.m.m.m.m.m.m.m.m.m.m.v.z.v.v.z.v.m.m.z.8 F :.S.P.XXOXP.G.G.G.H.H.G.G.G.P.A.S.G.G.H.H.H.] @ 8 g.m.m.m.M.m.m.m.m.m.m.m.].M.m.m.m.",
"m.m.m.m.v.v.v.m.M.v.M.M.v.z.v.v.h.z.f.5 G ,.G.G.XX(.L.H.G.H.H.K.~.U.P.G.L..X,.A.K./.L.G.G.@.$ F a k.l.l.m.m.m.m.m.m.m.m.m.m.m.m.",
"m.m.m.m.z.v.z.m.v.v.v.M.M.z.z.h.j P ^ ;.Z.K.OX(.+XXXV.H.P.K.K.OX)./.L.~.~.}..X>.P.).(.P.I.K.[ $ W / L k m.m.m.m.m.m.m.m.m.m.m.m.",
"m.m.m.m.v.z.v.m.m.m.m.z.y y e ( ) &.@.{ !.).).T._ B.Z.P.XX(.XX(.).).(.)._._._..XA.~.).U.U.~.G.# + i h.c.v.M.v.M.m.m.v.v.M.m.m.m.",
"m.m.m.m.m.v.m.m.m.m.m.v.v 3 - M D D ` ^.^.Y.T ^ ] G.P.L._._.(._._.).+XXX+X_._._.L.K.!.~.I.~.I.) 4 j.m.M.M.v.M.M.m.m.M.v.v.v.m.m.",
"m.m.m.m.m.m.m.m.m.m.m.m.m.c.j.6 : ` ` T $ M O.A.G.G.U.).)._.XXU.+X_.(.K.,.oX)._.~.I.H.I.H.I.H.A.) 5 x.M.v.v.m.n.m.m.v.z.v.m.m.m.",
"m.m.m.v.m.m.m.m.m.m.m.m.m.m.M.l.x 6 . N X.,.S.H.U.~.(.!.J.K.H.H.K./._.XXZ.,.J./.).~.I.G.G.G.H.G.A.O.P j h.m.m.M.m.m.m.v.z.v.m.m.",
"m.m.z.z.v.v.m.m.m.m.m.m.m.m.n.v.g.w ) ,.S.G.U.XX~.U.F.A.J.+X+XXXH.K.+X(.K.F.A.F.K.U.I.G.C.[ Z.S.Z.S.A.O.U 9.k.l.m.m.m.m.v.m.m.m.",
"v.v.v.v.z.d.v.m.m.m.m.m.m.v.f.8 ^ =.S.P.H.P.P.K.G.G.K.XX).)._.+XP.P.K.XX/.L.P.H.G.G.G.H.H.[ I I ] $.,.:.O.) Z 0.M.m.m.m.m.m.m.m.",
"z.h.z.v.v.d.v.v.m.M.c.l.i T ( O.A.S.A.,.G.G.G.S.,.J.(.).)._._.XXH.H.P.P.P.K.I.H.G.G.;.=.Z.H.C.F O O @ 5 7 h R.M.M.M.M.m.m.m.m.m.",
"v.v.d.d.z.a.s.v.z.2 T I ) =.1.1.&.O.O.S.S.S.,.1.D.!.).)._._.(.K.K.oXK.P.P.H.S.A.S.G.Z.I ^ ] =.:.) $ + f.c.m.M.M.M.%XM.m.m.m.m.m.",
"m.m.c.t d.z.s z.g 3 M / ) / G M m G $.,.>.:.,..X(.).(.(.)./.K.P.OXXXG.H.G.G.A.S.A.,.S.Z.[ I F I / ] ] U 5 i c.M.%X'.n.m.m.m.m.m.",
"m.m.v.a d.m.z.a.a x.g.x x 8 O G @.,.S.A.,.D./.)./.OXU.K.L.I.G.L.U.G.G.H.G.P.Z.,.>.2.:.A.H.G.G.;.R N : 3 b %X`.m.`.m.m.m.m.m.m.m.",
"m.m.n.c.m.m.g.l z.m.m.j.x w G >.A.G.F.F././.+XXXXX+XU.G.G.G.H.I.G.G.G.G.G.G.H.G.A.A.A.,.A.G.G.Z.#.~ R : v -XM.m.n.m.m.m.m.m.m.m.",
"m.v.m.n.M.%XW.R.R.v k T / @.>.S.G.G.P.I.K.I.P.L.U.U.P.G.G.G.H.P.G.H.H.L.K.H.G.G.G.G.H.A.A.G.H.H.F.+.~ R - c b.m.n.m.n.m.m.m.m.m.",
"m.h.h.v.m.`.w.+ F ) ] &.,.A.S.S.S.Z.S.A.S.G.G.G.S.S.G.H.P.H.G.S.S.S.H.K.XXK.G.G.H.U.I.P.G.P.G.G.] { #.%.$.) Y l l.m.z.v.m.m.m.m.",
"m.v.d.h.v.M.c.z 8 $ # # D W / &.>.A.S.S.G.H.G.,.,.G.G.G.H.P.P.A.>.2.,.P./.~.K.XXU.(.+XU.P.P.H.G.Z.I I X.&.1.&.) Y c h.z.n.m.n.n.",
"M.c.t d.m.v.z.v.v.h.2 1 o A o.2.S.H.P.U.L.P.G.S.G.P.K.H.L.XXK.Z.>.>.A.H.XX).(.).(.+X).).L.G.C.[ Z.Z.^ N M D / @.O.M 8 j.m.m.m.z.",
"d.z.a a.v.h.f.v.v.f.2 : A ..:.G.K.U.+X+XK.G.G.P.L./.XXL.(.L.H.G.H.>.S.H.K.(.).OX+X).).)./.U.Z.] I { A.,.) D # # c j.c.m.m.m.m.m.",
"t s.h.s z.f 2 j r V A | +.;.G.P.U.U.P.A.G.G.I.!.).+XK.+XXXG.P.G.H.S.,.H.G.XX(.K.P.XXXX+X).(.P.S.o.Z L I F W ) : g.m.m.m.m.m.m.m.",
"t d.m.g 6 F ^ /  .O.-.F.G.P.A.;.>.:.%.A.G.L./.).+XP.G.U.P.G.C.P.H.G.S.G.H.G.K.XXK.Z.S.K.+X/.K.H.;.| Q Z @ h x j.c.m.m.z.v.m.m.m.",
"c.v.M.a.+ M X.&.:.2.>.,.$./ G N E ..&.K.+X).(.U.P.F.;.G.P.C.o.S.P.P.P.G.P.G.G.P.G.,.2.A.P.XXP.H.F.o.~ ~ B h n.M.M.m.m.v.z.v.m.m.",
"M.M.v.v.c.g.8 + M D D m n C A Q ( D.P.~.(.U.I.G.;.+.;.G.;...%.>.P.L.L.H.;.;.G.G.G.S.:.2.A.S.G.H.P.A.o.~ R + j c.m.m.m.m.v.m.m.m.",
"M.m.m.x.v c H B n . n A Q | ..<.P.L.XX.XL.C.-.( +.S.G.;.o.*.1.2.Z.L.oXP.;.| +.Z.G.G.,.1.&.2.>.,.,.,.1...~ R B 6 g.n.m.v.m.m.m.m.",
"m.z 8 : C A Z B C A Q Q o.-.D.C.;.;.;.+.) o.+.;.S.S.A.A.,.2.1.2.S.H.K.H.F.*.o.o.#.S.,.:.1.&.&.1.&.1.&.*...~ Q A H r r z v f.v v ",
"m.z.v 0 * @ * A Q ..o.| ~ ( ~ | Q | Q | | %.,.,.A.S.A.,.:.:.2.S.S.S.G.H.H.,.1.:.*.:.:.:.1.o.$.1./  .$.1.&.o...~ %.&.O.^ ^ G m X ",
"l.g.j 4 Z / o.%.*.2.*.o.| Q | Q Q | ..o.*.1.2.F.S.A.>.:.*.:.1.2.S.A.>.,.Z.G.2.1.1.1.:.:.1.*.o.*.:. .M Z ! &.&.$.$.$.X.W L e z h.",
"1 @ / O.1.1.&.*.*.%.o...A A ..o.%.*.*.2.2.1.1.,.&.1.1.$.*.1.1.1.1.Z.A.&.2.:.1.:.1.&.o.&.1.1.*.*.:.A.&.@ . + $ 5 Y 6 q z j.z.M.M.",
"z.h 5 H K R ! Q R C @ @ m | ....o.o.%.*.*.*.*.o.1.&.o...&.&.&.1.1.1.1.1.:.:.1.:.1.&. . .&.1.2.,.,.G.G.=.) M 4 8 q z x n.M.M.n.n.",
"m.v.c.h.2 h 0 3 o O N ! ......| Q | ~ ~ | | | o.1.o...*.o.%.1.1.2.*.%.&.&.:.:.:.1.1.*.R N O.1.A.S.S.G.G.S.S.C.=./ # q z.n.M.M.v.",
"m.m.m.g.z q.w J G O.$.o.....| | | | ( ~ C R ..*.1.o.*.*.| ..&.&.1...| .. .o.1.1.&.1.1.&.G D ^ *.2.A.A.,.>.&.&.) J l c.M.M.n.M.v.",
"m.m.m.g.; F X.$.1.1.&.*.o.o.o.$.*.$.#.J . C | o.*.*.*.| A | $.*.o.Z Q ~ | | ..*.*.*.1.&.:.$.N m G G G G G m # 0 a.v.m.m.v.v.M.v.",
"m.m.m.m.b.w.h J F / / / / / / ( J 4 # X @ Q Q Q | | | m C | ..| R n Q o...Q n A ..| *.1.&.%.o.! N m m m # . l h.v.m.m.m.M.M.v.M.",
"m.m.m.m.n.'.%XW.R.w.r 0 0 i =XR.k.j + M o. ...~ Q Q Z . C | | Q B o C o.&...A O m A A ! ( o.%.=.1.1.1.) $ h v.v.v.v.m.m.m.m.M.v.",
"m.m.m.m.n.n.'.-X;X'.-X-Xm.v.W.r J K / $.1.1.*.+.R C o M %.o.| A & < * A &.&.o.! ! A D m o @ A E G G D 6 h.n.m.m.m.M.m.m.m.m.m.v.",
"m.m.v.m.m.m.M.M.'.%X`.M.M.m.v.f.w Z Z ( %.) ^ m O O G $.1.&.G     S S o W *.*.:.&.&.) P h h h h s.d.d.c.m.m.m.m.m.v.v.M.m.m.m.m.",
"v.h.z.v.m.m.m.m.M.`.m.m.m.m.m.m.n.v z i r 6 6 y % o > V M V < 7., 8.7.< & @ V M C ; 8 g.m.M.m.m.m.m.m.m.m.m.m.m.v.z.z.v.m.m.m.v.",
"d.h.v.m.m.m.v.m.n.m.m.m.m.m.m.m.n.n.b.j.g.x l 7 > & 7.4.& 6.y.i.5.u.u., < ; 8 y h v c.m.m.m.m.m.m.m.m.m.m.m.m.m.v.v.d.d.v.v.v.z.",
"d.h.v.m.m.m.v.M.M.m.v.M.m.m.m.v.h.n.b.j.g.x 0 3.= 3.p.4., 6.7.7.< 8.i.< S 5.4.f g.g.c.m.m.m.m.m.m.m.m.m.m.m.m.v.z.v.v.a.a v.z.s.",
"a c.v.v.M.v.M.v.m.v.z.v.m.m.m.c.s f.j.j.g.g.b u u y.8.& S 5.< 8.5., 8.5.u i p i s.j.j.c.m.m.v.z.m.m.m.m.m.m.v.z.c.d d.a z.z.a t ",
"h.v.z.z.v.m.v.M.m.M.v.z.m.m.m.m.c.v f.j.g.j.b v r.r., u e.7 i 0.r.p u t.v j.f.f.h.h.j.v.m.v.z.v.m.m.m.m.m.m.m.m.v.z.d z.z.d z.z.",
"a d.v.v.m.m.m.m.m.m.m.v.m.m.m.m.c.s c.n.c.g.g.g.g.v v g.g.g.f.j.v f.f.g.g.g.j.j.v.v.m.m.v.z.v.m.m.m.m.m.m.m.m.m.m.m.c.m.z.z.z.d ",
"c.v.m.m.m.m.m.m.m.m.m.m.m.m.m.m.n.c.n.n.v.v.b.j.c.c.g.g.v.v.j.f.j.l.n.c.x.z.c.v.m.m.m.m.m.v.m.m.m.m.m.m.m.m.m.m.m.m.m.m.M.m.m.z."
};
